/* XPM */
static char *_87794db00cd4097af919881038d84f7qFeZjPPZzj2d4T97[] = {
/* columns rows colors chars-per-pixel */
"50 50 236 2 ",
"   c #01011A",
".  c #2D131A",
"X  c #080A24",
"o  c #0B122E",
"O  c #15182D",
"+  c #0B1434",
"@  c #0D173B",
"#  c #141A34",
"$  c #151A36",
"%  c #121B3A",
"&  c #291D20",
"*  c #1E2133",
"=  c #1C223B",
"-  c #22273D",
";  c #232A3D",
":  c #3F3D3B",
">  c #492622",
",  c #743A20",
"<  c #6B5A3F",
"1  c #0C1B46",
"2  c #141E48",
"3  c #0F254F",
"4  c #162447",
"5  c #142B59",
"6  c #17335A",
"7  c #252C43",
"8  c #242B45",
"9  c #292E44",
"0  c #222B4C",
"q  c #2C3346",
"w  c #2C344C",
"e  c #30354A",
"r  c #33394B",
"t  c #222C51",
"y  c #293354",
"u  c #363C55",
"i  c #193966",
"p  c #1B3C7B",
"a  c #303761",
"s  c #3C4459",
"d  c #1C466A",
"f  c #194478",
"g  c #1D5576",
"h  c #2B4870",
"j  c #434B5D",
"k  c #46525F",
"l  c #474963",
"z  c #424C63",
"x  c #465264",
"c  c #4C5867",
"v  c #53576B",
"b  c #4E5674",
"n  c #56626F",
"m  c #586777",
"M  c #64667C",
"N  c #61737D",
"B  c #914925",
"V  c #926434",
"C  c #FAA136",
"Z  c #928B7C",
"A  c #CA864D",
"S  c #F8C44C",
"D  c #285082",
"F  c #295A88",
"G  c #255A93",
"H  c #2F6692",
"J  c #2A6698",
"K  c #376CA8",
"L  c #3379AA",
"P  c #3776B1",
"I  c #4C5F83",
"U  c #576B90",
"Y  c #5B7297",
"T  c #637484",
"R  c #687B86",
"E  c #6A7D8B",
"W  c #3A82AB",
"Q  c #3C86B9",
"!  c #3C96B9",
"~  c #6E828D",
"^  c #6B8494",
"/  c #788693",
"(  c #748A95",
")  c #7C929C",
"_  c #428ABD",
"`  c #4393B9",
"'  c #6B85A9",
"]  c #7593B7",
"[  c #378AC4",
"{  c #3C96CE",
"}  c #3DABCC",
"|  c #3AA6DD",
" . c #4B90CD",
".. c #4895CD",
"X. c #4794D3",
"o. c #4C9ED6",
"O. c #4D9DD8",
"+. c #7F9AC0",
"@. c #4AA6D8",
"#. c #4BAADA",
"$. c #52A2DA",
"%. c #54AAD9",
"&. c #4BB0D4",
"*. c #58B5DA",
"=. c #5BBBDB",
"-. c #70AFD0",
";. c #67B9D6",
":. c #6ABDDD",
">. c #75BCD8",
",. c #4EABE2",
"<. c #53AFE2",
"1. c #4AB8E3",
"2. c #53B5E4",
"3. c #53BAE3",
"4. c #59BEE8",
"5. c #7FB6E4",
"6. c #69C4DD",
"7. c #77C5DB",
"8. c #4EC0EB",
"9. c #54C3EB",
"0. c #55C7EA",
"q. c #5BC5EC",
"w. c #54C9F2",
"e. c #5ACBF1",
"r. c #5CD3F5",
"t. c #58D7F6",
"y. c #5DDCFB",
"u. c #64C5E4",
"i. c #6DCAE4",
"p. c #65CBED",
"a. c #6ECEEA",
"s. c #6BCFEF",
"d. c #75CBE2",
"f. c #7BCCE4",
"g. c #74CAE8",
"h. c #7DD1E6",
"j. c #73D3EB",
"k. c #7BD4EB",
"l. c #62D3F4",
"z. c #68DBF7",
"x. c #61D6F9",
"c. c #63DCFB",
"v. c #73DBF3",
"b. c #7CDDF3",
"n. c #5FE1FC",
"m. c #62E1FD",
"M. c #6CE2FB",
"N. c #74E3FB",
"B. c #7CE5FA",
"V. c #838797",
"C. c #8D9396",
"Z. c #839BA4",
"A. c #8598A4",
"S. c #989BA8",
"D. c #87A0A9",
"F. c #8AA3AD",
"G. c #8EAAB4",
"H. c #97A8B3",
"J. c #96B2BA",
"K. c #99B5BC",
"L. c #A5A9B5",
"P. c #ACADB4",
"I. c #EEE2B2",
"U. c #86A6C9",
"Y. c #9DBBC2",
"T. c #9CBBC7",
"R. c #8CADD2",
"E. c #97B7D9",
"W. c #A1BEC4",
"Q. c #ACBAC3",
"!. c #B4B8C5",
"~. c #90BCE3",
"^. c #99C2CA",
"/. c #84C6DC",
"(. c #8CCBDE",
"). c #96CCDC",
"_. c #9BD1DF",
"`. c #A5C3CA",
"'. c #A8C6CC",
"]. c #B7C2CB",
"[. c #ADCCD2",
"{. c #A3CED8",
"}. c #A8D4DD",
"|. c #B4D5DA",
" X c #B6D8DD",
".X c #B7D9DE",
"XX c #8AC7E4",
"oX c #85CBE3",
"OX c #91CDE0",
"+X c #86D6E9",
"@X c #96D4E3",
"#X c #9CD3E2",
"$X c #94DAEB",
"%X c #84DDF2",
"&X c #8DDEF4",
"*X c #A3C9EC",
"=X c #ABCDEE",
"-X c #A7D6E3",
";X c #ABD9E3",
":X c #B4DCE4",
">X c #BADEE3",
",X c #B3D2EE",
"<X c #A6CDF0",
"1X c #A9CEF1",
"2X c #ABD1F1",
"3X c #B5D5F2",
"4X c #9EE1ED",
"5X c #86E3F6",
"6X c #8CE4F6",
"7X c #93E4F4",
"8X c #9AE7F5",
"9X c #BEE1E6",
"0X c #BFE3E8",
"qX c #A8E8F3",
"wX c #A3ECF9",
"eX c #ABEDF9",
"rX c #B5EBF4",
"tX c #B4F1F8",
"yX c #BCF1F9",
"uX c #CACDD3",
"iX c #D4D8D9",
"pX c #DBDEE1",
"aX c #C7DDF2",
"sX c #C0E4E8",
"dX c #D5E4E9",
"fX c #DAE9F5",
"gX c #C4F4FA",
"hX c #CCF6FA",
"jX c #D8F7FA",
"kX c #E4E8E9",
"lX c #EBEDEB",
"zX c #E9F0F3",
"xX c #E4FCFB",
"cX c #EBF9FA",
"vX c #F5F8F5",
"bX c #FFFFFB",
/* pixels */
"9X9X9X9X9X9X9X9X9X9X9X9X9X9X9X9X9X9X9X9X9X9X9X9X9X9X9X9XsXsX>X X>X9X9X9X9X9X9X9X9X9X9X9X9X9X9X9X9X9X",
"9X9X9X9X9X9X9X9X9X9X9X9X9X9X9X9X9X9X9X9X9X9X9X9X9X9XsX9XW.~ x u k Y.0X9X9X9X9X9X9X9X9X9X9X9X9X9X9X9X",
"9X9X9X9X9X9X9X9X9X9X9X9X9X9X9X9X9X9X9X9X9X9X9X9X9X9XY.n - w n R O R sX9X9X9X9X9X9X9X9X9X9X9X9X9X9X9X",
"9X9X9X9X9X9X9X9X9X9X9X9X9X9X9X9X9X9X9X9X9X9X9X9X>X^ 7 z F.{.$X;.% ( sX9X9X9X9X9X9X9X9X9X9X9X9X9X9X9X",
"9X9X9X9X9X9X9X9X9X9X9X9X9X9X9X9X9X9X9X9X9X9X9X Xm ; ) }.+Xp.r.W # W.sX9X9X9X9X9X9X9X9X9X9X9X9X9X9X9X",
"9X9X9X9X9X9X9X9X9X9X9X9X9X9X9X9X9X9X9X9X9X9X>Xm q J.-Xa.e.e.e.d x >X9X9X9X9X9X9X9X9X9X9X9X9X9X9X9X9X",
"9X9X9X9X9X9X9X9X9X9X9X9X9X9X9X9X9X9X9X9X9X9X~ ; J.@Xu.q.q.e...% F.sX9X9X9X9X9X9X9X9X9X9X9X9X9X9X9X9X",
"9X9X9X9X9X9X9X9X9X9X9X9X9X9X9X9X9X9X9X9XsXK.; ) @Xq.9.4.2.#.6 k >X9X9X9X9X9X9X9X9X9X9X9X9X0XsX9X9X9X",
"9X9X9X9X9X9X9X9X9X9X9X9X9X9X9X9X9XsXsX9X|.j c _.u.4.2.#.#.F 8 Y.sX9X9X9X9X9X9X9X9X9X9XsX>X`.J.[.9X9X",
"9X9X9X9X9X9X9X9X9X9X9X9X9X9XsXsX|.G.T x y - Y.g.2.#...Q K % ) sX9X9X9X9X9X9X9X9X9XsX>XZ.x 7 * r [.9X",
"9X9X9X9X9X9X9X9X9X9X9X9X9X0X`.T w 9 x E l n #X,.@.o.{ G 5 X u ( |.0X9X9X9X9X9X9XsX`.c 7 m G.^ # W.sX",
"9X9X9X9X9X9X9X9X9X9X9XsX|.~ ; j S.iXcXxX^.-.b.r.r.r.x.r.0.! g + r F.9X9X9X9X9XsXJ.q x Y.@Xj.L = [.0X",
"9X9X9X9X9X9X9X9X9X9XsX`.z 9 S.lXxXtX6XN.B.hXjX7Xy.y.y.c.y.m.t.} d O E >X9X9XsXW.q N }.k.e.r.H q |.9X",
"9X9X9X9X9X9X9X9X9XsXY.w x iXxX8Xv.c.c.c.wXbXbXgXc.y.y.y.M.gXeXt.t.L + m  XsX|.j n }.j.r.r.w.i v 9X9X",
"9X9X9X9X9X9X9X9XsX`.q v kXhXb.x.c.c.c.y.M.wXeXN.y.y.y.y.5XjXeXr.t.y.Q + R 9X( q ^.j.r.r.r.@.4 Z.sX9X",
"9X9X9X9X9X9X9X9X|.z j kXyXz.c.c.c.c.y.y.y.y.y.y.y.y.y.y.y.M.rXyXc.y.y.J # ( 9 E h.l.l.r.8.J q [.9X9X",
"9X9X9X9X9X9X9X9XE w iXgXz.c.c.c.y.c.N.B.N.M.y.y.y.y.y.y.y.y.7XwXz.c.c.1.i X 8 >.s.l.x.9.[ 4 R sX9X9X",
"9X9X9X9X9X9XsX`.q L.cXB.c.c.c.c.6XgXxXcXcXjXeXN.y.y.y.y.y.y.c.z.c.c.c.r.[ + d a.s.l.9.{ f r [.9X9X9X",
"9X9X9X9X9X9X[.s O iXeXc.c.c.M.yXbXbXbXbXbXbXbXjX5Xy.c.y.y.c.c.c.c.c.c.r.@.f % %.u.#.Q f % G.sX9X9X9X",
"9X9X9X9X9X>Xv # O W.B.m.m.M.yXbXbXvXlXvXbXbXbXbXjXb.c.c.y.c.c.c.c.c.c.r.$.P o H L f 2 o O c K.9X9X9X",
"9X9X9X9XsXW.= V.r T.M.m.m.wXbXkXC.v x v S.vXbXbXbXyXc.c.c.c.c.c.c.c.c.e.$. .2 1 p F ` &.! d = Z.9X9X",
"9X9X9X9XsXZ.= H.u }.M.n.N.xXlXv M !.uXL.l M vXbXbXcXB.c.c.c.c.c.c.c.c.q.$.-.a 3 @.l.r.y.t.w.J % D.sX",
"9X9X9X9XsX( w S.s dXM.m.tXbXV.m !.n iXvXpXl S.bXbXbXwXc.c.c.c.c.c.c.c.<.$.5.l 3 o.4.x.x.r.r.r.G 9 `.",
"9X9X9X9XsX( e E r Q.rXgXbXlXl L.r   V.M uXL.v vXbXbXgXc.c.c.c.c.c.c.e.$.$.~.b 1 _ O.,.q.e.r.r.0.6 c ",
"9XsXsX9XsXF.O * : < C.bXbXuXj L.X   X   V.uXl lXbXbXjXz.c.c.c.c.c.x.#.@.%.*Xh   3 K X.X.@.2.3.3.J X ",
">X:X>X9XsXJ.O Z I.S V iXbXiXs P.#       S.!.l vXbXbXhXc.c.c.c.c.c.2.O.$.5.*Xt c n # 5 F K P P J 6 X ",
"/.&.;.>XsXZ.& A C C V P.bXvXl H./ o X v kXT / bXbXbXyXy.y.c.c.x.2.O.O.%.=XR.% Z.9XF.x = % % % = s Z.",
"@.1.@.}.sX[.r . , B > C.bXbXP.u Q.].Q.dXA.u pXbXbXbX8Xy.y.c.r.<.O.O.$.XX3XY 7 [.0XsX>X[.K.G.J.`. XsX",
"| 9.#.-X9XsXY.= + y T lXbXbXbXS.u b T z s ].bXbXbXcXB.c.x.4.$.O.O.$.~.,XE.0 T 9X9X9X9X9XsXsXsXsX9X9X",
"| q.*.;X9X9XsXT 0 E.,XzXbXbXbXbXiXS.V.L.kXbXbXbXbXeXl.q.#...O.O.$.5.=X2XU 9 '.0X9X9X9X9X9X9X9X9X9X9X",
"| p.*.;X9X9X9X[.9 U =X3XzXbXbXbXbXbXbXbXbXbXbXvX;Xp.9.w.P 5 D  .XX=X2X+.% ) sX9X9X9X9X9X9X9X9X).-.}.",
"@.p.3.-XsX9X9XsXZ.# ] 2X3XfXcXbXbXbXbXbXbXbXbX].F e.r.t.0.! i t U.2XR.0 m >X9X9X9X9X9X9X9X9X:X*.6.7.",
"%.4.9.(.sX9X9X9X>XT 2 ] 2X2X3XaXfXfXfXfXfXaXaXU.4 %.y.t.t.t.0.F 4 ' 0 k |.9X9X9X9X9X9X9X9XsX}.&.;._.",
">.1.p.:.9X9X9X9X9X Xm # ' 1X2X1X1X=X=X=X=X=X=XE.0 F r.c.c.y.y.r.g X z [.sX9X9X9X9X9X9X9X9XsX/.7.:X9X",
"#X#.b.1.-XsX9X9X9X9X XN # I E.1X2X=X=X=X=X=X=X1XU + _ x.c.c.c.c.3.3 R sX9X9X9X9X9X9X9X9X9X:X=.oX7.:X",
">X;.j.p.:.9X9X9X9X9X9X>XZ.q 4 U R.*X2X1X1X1X<X1XE.0 6 #.r.c.c.c.c.L 4 `.0X9X9X9X9X9X9X9XsX(.u.$X>.>X",
"sX_.=.%X*.).sX9X9X9X9X9XsX[.E O # h Y ] +.U.U.] Y 4   d o.e.x.c.y.9.3 ^ sX9X9X9X9X9X9X9X;X6.4Xd.).sX",
"9X9X>.i.+X*.-XsX9X9X9X9X9X9XsX~   1 1 + @ + + # # s m 7 i Q <.e.r.t.D s >X9X9X9X9X9X9X:X>.+X$X6.>X9X",
"9X9X;X;.%Xk.=.;XsX9X9X9X9X9X9X[.9 5 P K K 3 s J.'. XsXJ.r @ D Q @.2.H 9 |.9X9X9X9X9X>X>.d.qX6.-XsX9X",
"9X9X9X_.*.6Xa.=.;XsX9X9X9X9X9XsXZ.O f  . .p s >XsX9X9XsX[.E 9 % 3 6 % n >X9X9X9X9X:X>.7.qXd.(.9X9X9X",
"9X9X9X9X(.3.5Xj.=.#X9X9X9X9X9X9X>X) # i P G y |.9X9X9X9X9X9X[.G.~ T ) |.9X9X9XsX;X7.f.rXj.7.9X9X9X9X",
"9X9X9X9X9X(.1.b.b.=./.:XsX9X9X9X9X9XJ.j 4 1 z >X9X9X9X9X9X9X9XsXsXsXsX9X9XsX>X).6.+XrXk.f.>X9X9X9X9X",
"9X9X9X9X9X9X@X*.v.6Xu.=.(.>XsX9X9X9XsX>XJ.) `.9X9X9X9X9X9X9X9X9X9X9X9XsX>X@X6.i.4XqXi.oX9X9X9X9X9X9X",
"9X9X9X9X9X9XsX;X:.p.6X%Xu.:.).:X9XsXsX9XsXsX0X9X9X9X9X9X9X9X9XsXsX9X;X@X6.i.$XqX+Xi.@X9X9X9X9X9X9X9X",
"9X9X9X9X9X9X9X9X>XOXu.j.7X&Xg.:.>.(.-X:X9X9XsXsXsXsXsX9X9X:X;X#XoX7.d.k.7XqX$Xh.oX:XsX9X9X9X9X9X9X9X",
"9X9X9X9X9X9X9X9X9XsX:X(.6.i.%X7X%Xg.u.:.7././.oXoXoXoXoXf.d.f.k.%X8XqX4X+Xd.oX;X9X9X9X9X9X9X9X9X9X9X",
"9X9X9X9X9X9X9X9X9X9X9XsX>X#X7.u.a.b.5X6X6X6X5X%Xb.b.5X6X7X8X8X7X%Xk.f.oX#X:X9X9X9X9X9X9X9X9X9X9X9X9X",
"9X9X9X9X9X9X9X9X9X9X9X9X9XsX9X:X#XoXd.i.i.a.j.j.k.k.k.k.f.f.f.oX@X;X:X9XsX9X9X9X9X9X9X9X9X9X9X9X9X9X",
"9X9X9X9X9X9X9X9X9X9X9X9X9X9X9X9XsXsX9X>X:X;X;X;X;X;X;X;X:X>X9X9XsXsX9X9X9X9X9X9X9X9X9X9X9X9X9X9X9X9X",
"9X9X9X9X9X9X9X9X9X9X9X9X9X9X9X9X9X9X9X9X9X9X9X9X9X9X9X9X9X9X9X9X9X9X9X9X9X9X9X9X9X9X9X9X9X9X9X9X9X9X"
};
