/* XPM */
static char *bdd5b8bc9f504fafe6559acf86b72774ONebyLaWaz2tRP4F[] = {
/* columns rows colors chars-per-pixel */
"50 50 240 2 ",
"   c #01001B",
".  c #090B1F",
"X  c #3D1D18",
"o  c #070928",
"O  c #0A122B",
"+  c #0C122D",
"@  c #17162A",
"#  c #070D33",
"$  c #0D1334",
"%  c #0A1937",
"&  c #0C153B",
"*  c #0D1C3C",
"=  c #151B34",
"-  c #191D34",
";  c #151A38",
":  c #1D2234",
">  c #1C223B",
",  c #302C2D",
"<  c #21263C",
"1  c #24293D",
"2  c #4C322F",
"3  c #0D1D43",
"4  c #151B45",
"5  c #0F234C",
"6  c #162346",
"7  c #142A53",
"8  c #173357",
"9  c #252B42",
"0  c #22294A",
"q  c #2C3347",
"w  c #2D334B",
"e  c #33384A",
"r  c #323B4C",
"t  c #232C57",
"y  c #2E3557",
"u  c #343C51",
"i  c #373A55",
"p  c #1B3867",
"a  c #1B3D78",
"s  c #303B61",
"d  c #38414F",
"f  c #3B425B",
"g  c #3C4558",
"h  c #1B446B",
"j  c #1E4779",
"k  c #234977",
"l  c #334C73",
"z  c #23537B",
"x  c #5F574E",
"c  c #434A5C",
"v  c #7C654D",
"b  c #454E65",
"n  c #475165",
"m  c #4B5363",
"M  c #4D5B6B",
"N  c #565A6C",
"B  c #576771",
"V  c #556573",
"C  c #596977",
"Z  c #5D6D7B",
"A  c #626577",
"S  c #656C7C",
"D  c #62717E",
"F  c #74777D",
"G  c #A5602E",
"H  c #C16129",
"J  c #BB9535",
"K  c #F1B031",
"L  c #FCCC62",
"P  c #285789",
"I  c #29548C",
"U  c #2B6793",
"Y  c #356799",
"T  c #32729D",
"R  c #2E6FA5",
"E  c #366CA6",
"W  c #3776A9",
"Q  c #3B78B4",
"!  c #4B5D82",
"~  c #576888",
"^  c #547090",
"/  c #687786",
"(  c #757989",
")  c #667490",
"_  c #437CB2",
"`  c #647DA1",
"'  c #348DB2",
"]  c #3E8ABB",
"[  c #74828C",
"{  c #778896",
"}  c #7B929B",
"|  c #4689B8",
" . c #6B84A7",
".. c #7992A1",
"X. c #7996B9",
"o. c #1C9CD3",
"O. c #2799CC",
"+. c #389AC8",
"@. c #249DD4",
"#. c #2B9FD4",
"$. c #1AA2D4",
"%. c #2FA0CA",
"&. c #3AA3CA",
"*. c #27A3D7",
"=. c #35A3D4",
"-. c #3BA5D4",
";. c #35A9D8",
":. c #448BC7",
">. c #4897CA",
",. c #4A99D2",
"<. c #539CD4",
"1. c #5A9DD4",
"2. c #569ED8",
"3. c #619ACB",
"4. c #7F9CC3",
"5. c #48A3C8",
"6. c #47A8D6",
"7. c #55A3D9",
"8. c #56A9DA",
"9. c #4BB1DB",
"0. c #5BB4D7",
"q. c #55B3DB",
"w. c #59B6D9",
"e. c #67AAC6",
"r. c #68B4CB",
"t. c #77B8CA",
"y. c #6AA6D6",
"u. c #66B7D6",
"i. c #6BBCDC",
"p. c #71BDDB",
"a. c #77BCD8",
"s. c #51B0E1",
"d. c #58B5E2",
"f. c #55BBE5",
"g. c #5BBDE7",
"h. c #7AB4E1",
"j. c #73C0DC",
"k. c #7BC2DA",
"l. c #54C4EA",
"z. c #5BC4EB",
"x. c #5ACAEE",
"c. c #4DCFF1",
"v. c #57CBF2",
"b. c #56D7F7",
"n. c #5CD5F5",
"m. c #5DD9F7",
"M. c #5CD7F9",
"N. c #5DDBFA",
"B. c #66C9E9",
"V. c #6ECDEB",
"C. c #76D3EB",
"Z. c #63D4F4",
"A. c #63DAF7",
"S. c #6BDCF6",
"D. c #63DAF9",
"F. c #67D9F8",
"G. c #74DEF7",
"H. c #6EE2FA",
"J. c #7CE1F4",
"K. c #76E3F8",
"L. c #92918E",
"P. c #858B9B",
"I. c #8C94A3",
"U. c #839AA5",
"Y. c #979AA6",
"T. c #819ABF",
"R. c #8AA4AC",
"E. c #8DA9B4",
"W. c #92ADB5",
"Q. c #96ABBF",
"!. c #99B4BC",
"~. c #A4A6AE",
"^. c #A7ACB6",
"/. c #B1B5BD",
"(. c #EADB99",
"). c #9CB7C3",
"_. c #86AAD0",
"`. c #95B8DC",
"'. c #A1BFC5",
"]. c #B6BBC4",
"[. c #91BBE2",
"{. c #89C7DC",
"}. c #98C9D5",
"|. c #93CCDD",
" X c #99CCDA",
".X c #9BD0DF",
"XX c #A5C4CB",
"oX c #A7C6CB",
"OX c #ACCCD2",
"+X c #A4D3DD",
"@X c #ACD4DA",
"#X c #B0D1D7",
"$X c #B3D5DA",
"%X c #B6D9DE",
"&X c #B8DADF",
"*X c #8CCAE0",
"=X c #97CBE3",
"-X c #88D4E9",
";X c #94D0E0",
":X c #9BD2E1",
">X c #A6C8EC",
",X c #ACCDEE",
"<X c #A3D4E1",
"1X c #AAD7E2",
"2X c #ADD9E2",
"3X c #A7D5E9",
"4X c #B4DBE3",
"5X c #BADEE3",
"6X c #B9D3EE",
"7X c #A4CDF0",
"8X c #A9CEF1",
"9X c #ACD0F2",
"0X c #B3D3F3",
"qX c #87E3F7",
"wX c #96E7F6",
"eX c #BEE1E6",
"rX c #BFE3E8",
"tX c #A6E9F7",
"yX c #B7EEF7",
"uX c #C4C7CB",
"iX c #C9CBD1",
"pX c #C9D2D7",
"aX c #D4D6DA",
"sX c #C5DBE6",
"dX c #DBDCE0",
"fX c #C8DEF2",
"gX c #C0E2E6",
"hX c #C0E4E9",
"jX c #DAE3E6",
"kX c #CCE8F3",
"lX c #D6E6F3",
"zX c #C6F4F7",
"xX c #D9F8FA",
"cX c #E8EAE8",
"vX c #EAEFF3",
"bX c #E7F8F9",
"nX c #F3F6F4",
"mX c #FEFEF7",
"MX c #F4FCF9",
"NX c #FEFFFA",
/* pixels */
"eXeXeXeXeXeXeXeXeXeXeXeXeXeXeXeXeXeXeXeXeXeXeXeXeXeXhX4XE.M > O : U.hXeXeXeXeXeXeXeXeXeXeXeXeXeXeXeX",
"eXeXeXeXeXeXeXeXeXeXeXeXeXeXeXeXeXeXeXeXeXeXeXeXeXeXW.b - d ( I.9 M eXeXeXeXeXeXeXeXeXeXeXeXeXeXeXeX",
"eXeXeXeXeXeXeXeXeXeXeXeXeXeXeXeXeXeXeXeXeXeXeXhX$X/ > b E.5XtXC.6 D hXeXeXeXeXeXeXeXeXeXeXeXeXeXeXeX",
"eXeXeXeXeXeXeXeXeXeXeXeXeXeXeXeXeXeXeXeXeXeXhXOXb 9 U.@X-XB.v.+.+ R.hXeXeXeXeXeXeXeXeXeXeXeXeXeXeXeX",
"eXeXeXeXeXeXeXeXeXeXeXeXeXeXeXeXeXeXeXeXeXeX#Xg q ).<XV.x.x.v.z q #XeXeXeXeXeXeXeXeXeXeXeXeXeXeXeXeX",
"eXeXeXeXeXeXeXeXeXeXeXeX5X%X5XeXeXeXeXeXeX5XV 1 !.:XB.x.x.x.6.* [ hXeXeXeXeXeXeXeXeXeXeXeXeXeXeXeXeX",
"eXeXeXeXeXeXeXeXeXgX4X}.@X5XeXeXeXeXeXeXhXR.: ^.<XB.z.z.f.8.z 1 OXeXeXeXeXeXeXeXeXeXeXeXhXhXhXhXeXeX",
"eXeXeXeXeXeXeXeXeX Xt. XeXeXeXeXeXeXhXhX$Xu / kXV.z.g.8.,.W $ } hXeXeXeXeXeXeXeXeXeXrXeXoX{ Z } %XeX",
"eXeXeXeXeXeXeX4Xt.r.1XeXeXeXeXhXeX#XW...V 1 pX-Xg.q.5.:.] 7 M 4XeXeXeXeXeXeXeXeXeXgXoXV > 9 e @ R.hX",
"eXeXeXeXeXeX4Xe.e.4XeXeXeXhX&XE.V 9 ; 0 o ( 3X6.] W P p 7 o { $XrXeXeXeXeXeXeXeXeXR.q r } }.t.= } hX",
"eXeXeXeXeX2Xr.t.5XeXeXeX5XR.g - c I.uXaXc E.B.l.l.l.q.>.U 7 $ r U.5XrXeXeXeXeXeXU.1 / @X-XZ.5.+ R.hX",
"eXeXeXeX4Xr.a.eXgXeXhX#XC = N ].nXbXzXwXB.J.K.N.m.m.A.D.N.c.&.h + V OXeXeXeXhXW.< { 2XC.n.M.W - oXhX",
"eXeXeXeXt.r.5XeXeXhXOXg < ~.nXxXwXS.D.m.tXMXbXqXM.M.n.m.S.wXH.c.' % d oXrXeXOXe Z 1XV.n.n.v.j d &XeX",
"eXeXgX Xe.4XeXeXhXOXg e iXbXwXF.m.N.N.m.yXNXNXwXb.M.n.M.qXMXtXb.N.5.* r OXrX/ e }.C.n.n.n.9.5 / hXeX",
"eXeXeX+X@XeXeXeX$Xb q pXxXJ.A.A.D.D.D.N.A.qXqXA.M.M.M.M.S.tXtXG.M.N.+.# M !.< ..C.A.A.A.l.R - !.hXeX",
"eXeX@X5XeXeXeXeX/ - uXxXJ.D.D.D.D.N.N.N.N.N.N.N.M.M.M.m.M.S.xXyXD.D.M.R + 9 w k.F.A.A.x.>.8 m 5XeXeX",
"eX+X+XeXeXeXhX).> Y.bXqXF.D.D.D.D.H.qXqXJ.S.M.N.M.M.M.M.m.D.qXK.F.D.D.s.p   ^ G.F.A.x.6.P - W.gXeXeX",
"4Xt.+XeXeXeX5XM N nXyXA.F.F.D.J.yXbXMXMXMXxXtXS.M.M.M.M.M.D.D.F.F.D.D.l.Q # z S.Z.z.6.R * / eXeXeXeX",
"4X}.5XeXeXeXU.. [ bXG.D.F.D.qXbXNXmXNXNXNXNXNXzXS.M.M.M.D.D.D.D.D.D.D.z.>.p * 6.6.Q j o - W.eXgXeXeX",
"eXeXeXeXeXoX0 O c yXF.F.A.J.bXNXnXjXjXnXNXNXNXNXyXF.D.D.D.D.F.D.D.D.D.z.<.Y o k a p h k 8 > Z #XeXeX",
"eXeXeXeXhX{ 9 / c tXF.F.S.zXNXuXN i i n /.NXNXNXMXwXD.D.D.D.D.D.D.D.F.g.<.| & k >.w.x.x.l.' * n $XeX",
"eXeXeXeXeXM m P.m tXF.A.wXNX/.e P.pXaXY.w Y.NXNXNXxXS.D.D.D.D.D.D.D.D.d.1.3.0 k d.B.Z.Z.n.n.5.3 Z 5X",
"eXeXeXeX5Xf S S S yXS.K.xXcXf Y.~.F nXNX/.w aXNXNXMXqXD.F.F.D.D.D.D.Z.8.1.y.y p ,.7.B.Z.Z.n.D.| = R.",
"eXeXeXeX5Xg S N S sXtXzXmX^.n /.@ @ Y.I.nXN P.NXNXNXtXF.F.D.D.D.D.D.g.1.1.[.y & E >.,.q.z.x.Z.B.h r ",
"eXeXeXeXeXV - @ , x aXNXNX[ { (     o = dXI.A mXNXNXyXF.D.D.D.D.D.Z.7.1.y.`.t ; $ k Q :.,.,.,.,.I o ",
"eXeXeXeXhX/ , L.(.J L.NXNX( { (       = dXP.S NXNXNXyXD.D.D.D.D.D.d.<.2.[.`.4 / { > & p P P P p * 1 ",
"eXeXeXeX$Xe G L L K v cXNX^.n ].;     A vXm Y.NXNXNXtXD.D.D.D.D.f.<.<.y.7X4.& W.hXoX/ f 9 > < u / oX",
"eXeXeXeX5XM X G H H 2 iXNXcXf I.]./ P.jXP.i jXNXNXMXqXD.D.D.Z.d.<.<.7.[.0X~ 9 OXeXhXhX4XOXOXOX&XhXrX",
"eXeXeXeXeXOXr   @ @ A cXNXNX].y ) ).Q.~ u ].NXNXNXxXG.D.Z.z.8.2.2.7.a.9X>X0 C eXeXeXeXeXeXeXeXeXeXeX",
"t.4XeXeXeXhX..+ ~ X.jXNXNXNXNXiXA f f / aXNXNXNXNXtXF.B.d.7.2.7.7.h.,X0X .= W.hXeXeXeXeXeXeXeXeXeXeX",
"' }.gXeXeXeX$Xi l >X6XvXNXNXNXNXNXvXnXNXNXNXNXNXkXV.f.s.| _ 2.8.h.8X0X`.0 M 5XeXeXeXeXeXeXeXeXeXeXeX",
"5.r.gXeXeXeXhXR.=  .,X6XlXMXNXNXNXNXNXNXNXNXNXsXi.v.l.v.T 3 p e.9X9X8X! > '.hXeXeXeXeXeXeXeXeXgXgXeX",
"p.5.4XeXeXeXeX5XC ; T.9X,XfXvXMXNXNXNXNXNXMXbX~ Y D.n.M.b.&.p 6 X.9X .= } hXeXeXeXeXeXeXeXeX2X|.4XeX",
"|.%.|.gXeXeXeXeX$Xb 6 _.9X,X,X6XfXlXlXkXfX6X0X~ p x.D.n.m.N.l.z ; ! ; / 5XeXeXeXeXeXeXeXeXeXp.O.5. X",
"4X6.q.5XeXeXeXeXhXOXg ; X.8X,X,X,X,X,X,X,X,X9X4.* ] Z.D.Z.m.N.l.h   Z 5XeXeXeXeXeXeXeXeXeX5X0.O.'  X",
"eXp.@.{.gXeXeXeXeXhXOXc + ^ `.,X,X,X,X,X,X,X,X=Xs 8 q.F.D.D.m.M.9.* D eXeXeXeXeXeXeXeXeXgX.X-.i.}.5X",
"gX<X=.-.1XeXeXeXeXeXhX#XD = 0  .`.7X9X9X8X,X8X8XX.$ P d.Z.D.A.n.M.T - '.hXeXeXeXeXeXeXeX4X0.-.+XgXeX",
"eXeXu.o.0.5XeXeXeXeXeXeXeX).r   > l ^  .X.4.X.` l o o Y q.Z.A.n.M.f.5 / hXeXeXeXeXeXeXeXk.#.0.5XeXeX",
"eXeX<X&.@.k.eXeXeXeXeXeXeXhXR.. 3 5 # # # o $ ; 6 g g $ P >.f.n.n.m.z g 5XeXeXeXeXeXgX|.=.=. XgXeXeX",
"eXeXeX{.O.*.|.eXeXeXeXeXeXeX&Xc & E Q E I o / '.OX5X$XC + p W ,.s.f.P 9 $XeXeXeXeXgX+X-.@.p.eXeXeXeX",
"eXeXeX5Xu.o.;.;XgXeXeXeXeXeXhX).1 7 Q :.Q & U.hXeXeXeX4X} q $ 7 k P 3 u %XeXeXeXgX+X6.@.q.4XeXeXeXeX",
"eXeXeXeX4Xq.$.;.|.eXeXeXeXeXeXrXW.< 5 Y Q 5 } hXeXeXeXeXhX#XU.M r w n W.eXeXeXeX|.-.@.6.<XgXeXeXeXeX",
"eXeXeXeXeX2Xq.o.*.k.5XgXeXeXeXeXhX!.g $ 8 & U.hXeXeXeXeXeXeXhXeX%X$X5XhXeXgX5Xk.#.o.-.=XeXeXeXeXeXeX",
"eXeXeXeXeXeX4X0.o.*.w.:XeXgXeXeXeXhX$X} m D $XeXeXeXeXeXeXeXeXeXeXeXeXeXeX<Xu.O.@.6.:XeXeXeXeXeXeXeX",
"eXeXeXeXeXeXeX4Xp.;.*.;.i.<XeXgXeXeXeXhXeXeXeXeXeXeXeXeXeXeXeXeXeXeXeX2Xk.-.O.@.0.1XgXeXeXeXeXeXeXeX",
"eXeXeXeXeXeXeXeXeX:X9.*.@.-.i.<XeXgXeXeXeXeXeXeXeXeXeXeXeXeXeXgXeX1Xk.6.#.@.=.k.4XeXeXeXeXeXeXeXeXeX",
"eXeXeXeXeXeXeXeXeXgX4Xk.-.@.@.=.u.{.1X4XeXgXgXgXgXgXgXgXeX5X1X{.u.-.@.@.=.u.<XeXeXeXeXeXeXeXeXeXeXeX",
"eXeXeXeXeXeXeXeXeXeXeXeX1Xp.6.*.@.*.;.9.w.j.k.k.k.a.k.p.0.9.=.@.@.*.6.p.:XeXgXeXeXeXeXeXeXeXeXeXeXeX",
"eXeXeXeXeXeXeXeXeXeXeXeXeXeX4X*Xi.9.;.*.*.o.o.o.o.o.o.o.@.*.=.9.j.;X4XeXgXeXeXeXeXeXeXeXeXeXeXeXeXeX",
"eXeXeXeXeXeXeXeXeXeXeXeXeXeXeXgXeX4X<X*Xk.i.u.0.q.q.w.i.{.|.1X5XgXgXeXeXeXeXeXeXeXeXeXeXeXeXeXeXeXeX"
};
