/* XPM */
static char *c8fd3494f4634187c856ff81d91170a2mcqkda4GmQch8y0K[] = {
/* columns rows colors chars-per-pixel */
"50 50 245 2 ",
"   c #000017",
".  c #00001B",
"X  c #050929",
"o  c #11142A",
"O  c #0D1838",
"+  c #141B37",
"@  c #301726",
"#  c #1B243C",
"$  c #22263D",
"%  c #282A3B",
"&  c #32323C",
"*  c #74452C",
"=  c #0D1E46",
"-  c #151F44",
";  c #192646",
":  c #142C56",
">  c #15335C",
",  c #222946",
"<  c #242B44",
"1  c #2A2C43",
"2  c #2C334B",
"3  c #2B3548",
"4  c #34374F",
"5  c #333A4D",
"6  c #232D54",
"7  c #293757",
"8  c #323C51",
"9  c #393D54",
"0  c #1A3864",
"q  c #2B3C61",
"w  c #3B4456",
"e  c #1C4773",
"r  c #214A6C",
"t  c #384565",
"y  c #224775",
"u  c #235479",
"i  c #47404E",
"p  c #434B5E",
"a  c #434C64",
"s  c #4C5869",
"d  c #515769",
"f  c #484D70",
"g  c #4B5776",
"h  c #545873",
"j  c #596675",
"k  c #5F707D",
"l  c #64687A",
"z  c #62737E",
"x  c #834D28",
"c  c #D8782F",
"v  c #917447",
"b  c #A5956F",
"n  c #C4B17A",
"m  c #FDCA48",
"M  c #265685",
"N  c #2D5E93",
"B  c #28688A",
"V  c #2A6499",
"C  c #336B98",
"Z  c #366DA2",
"A  c #3475A8",
"S  c #3779B1",
"D  c #4C6484",
"F  c #566485",
"G  c #5F7299",
"H  c #687687",
"J  c #6F7288",
"K  c #767A8A",
"L  c #1282BE",
"P  c #3985AA",
"I  c #3988B8",
"U  c #5F8D9E",
"Y  c #6D818E",
"T  c #6B8392",
"R  c #778997",
"E  c #7D949D",
"W  c #4D8EBA",
"Q  c #748FB3",
"!  c #73ADBE",
"~  c #1891C7",
"^  c #2894CB",
"/  c #3194CB",
"(  c #3698CA",
")  c #37A9CD",
"_  c #28A1D5",
"`  c #38A6D3",
"'  c #3DBAE4",
"]  c #448DC4",
"[  c #4699CA",
"{  c #479AD0",
"}  c #4C9CD4",
"|  c #529CD4",
" . c #589DD1",
".. c #769BC0",
"X. c #48A7CC",
"o. c #57AAC9",
"O. c #56B2CE",
"+. c #44ABD3",
"@. c #4DADD3",
"#. c #48A9D8",
"$. c #55A6D6",
"%. c #52ACDC",
"&. c #4AB3D5",
"*. c #4EB8D4",
"=. c #4CB4DB",
"-. c #54B4D4",
";. c #5AB6D4",
":. c #54B4DD",
">. c #5BB9D8",
",. c #6DB5CD",
"<. c #77B8CD",
"1. c #63A9D3",
"2. c #66B9D5",
"3. c #6ABEDB",
"4. c #74BCD5",
"5. c #7ABAD5",
"6. c #72BDDA",
"7. c #4AB6E1",
"8. c #56B9E5",
"9. c #6EB8E0",
"0. c #59C1DE",
"q. c #62C0D7",
"w. c #6CC3DC",
"e. c #74C3DA",
"r. c #7BC5D9",
"t. c #7BC5DB",
"y. c #7FD5DF",
"u. c #4BC0E6",
"i. c #57C5E8",
"p. c #5BCAEE",
"a. c #5BCDF2",
"s. c #5DD2F3",
"d. c #5ED6F8",
"f. c #5EDCFA",
"g. c #67C7E6",
"h. c #68CEED",
"j. c #76CBE4",
"k. c #79D5EB",
"l. c #62D4F3",
"z. c #62D7F8",
"x. c #63DCFA",
"c. c #67DCF8",
"v. c #74DDF7",
"b. c #5DE0FC",
"n. c #62E2F9",
"m. c #6CE0FA",
"M. c #7AE3F9",
"N. c #9A8F82",
"B. c #858898",
"V. c #839BA4",
"C. c #8899A8",
"Z. c #979BA6",
"A. c #9B9EB0",
"S. c #8BA4AC",
"D. c #96A5AF",
"F. c #95A7B2",
"G. c #9BB7BD",
"H. c #A5A8B1",
"J. c #ACB2BA",
"K. c #B4B6BC",
"L. c #FFE586",
"P. c #87A6CA",
"I. c #9CB9C2",
"U. c #8FBAD0",
"Y. c #8CBAD2",
"T. c #A5BBC5",
"R. c #B5BDC4",
"E. c #83BAE4",
"W. c #9CBEE2",
"Q. c #85C4D7",
"!. c #84C9DC",
"~. c #8BCBDC",
"^. c #99C4D1",
"/. c #93CCDC",
"(. c #9ACFDD",
"). c #95D1DF",
"_. c #9DD2DE",
"`. c #A5C3CA",
"'. c #A7C6CC",
"]. c #B9C3CD",
"[. c #ADCDD3",
"{. c #ABC9D7",
"}. c #B6CCD9",
"|. c #A3D3DE",
" X c #A9D4DC",
".X c #B4D5DA",
"XX c #B6D5DB",
"oX c #84CBE1",
"OX c #8AC8E6",
"+X c #99C2E6",
"@X c #93CEE1",
"#X c #8BD2E3",
"$X c #85D7EC",
"%X c #8BD5EC",
"&X c #97D7E6",
"*X c #9DD3E1",
"=X c #85D9F1",
"-X c #9ADFF2",
";X c #A2C6E9",
":X c #ABCDEE",
">X c #A4D6E1",
",X c #A9D7E2",
"<X c #A5DAE4",
"1X c #ACDAE3",
"2X c #AADCEB",
"3X c #B4DDE4",
"4X c #BADEE4",
"5X c #B5D5ED",
"6X c #ADCFF0",
"7X c #ACD2F3",
"8X c #B3D3F3",
"9X c #BCD8F3",
"0X c #9AE1ED",
"qX c #89E5F8",
"wX c #98E8F7",
"eX c #A9E0EA",
"rX c #BEE1E6",
"tX c #B4E5EB",
"yX c #BDE3E9",
"uX c #A6E7F4",
"iX c #B4EBF5",
"pX c #B9ECF5",
"aX c #ADF4FB",
"sX c #B9F1F9",
"dX c #C6CBD0",
"fX c #D6D8DB",
"gX c #C2DBE9",
"hX c #C1E2E6",
"jX c #C1E4E9",
"kX c #CAE6EA",
"lX c #CAE9EC",
"zX c #D7ECED",
"xX c #C4EDF3",
"cX c #DEECF6",
"vX c #C8F4F8",
"bX c #D3F2F6",
"nX c #D9F6F9",
"mX c #E5EAEB",
"MX c #E5F6F5",
"NX c #E8F0F0",
"BX c #EBFBFA",
"VX c #F4F7F4",
"CX c #FEFEF6",
"ZX c #F4FDFB",
"AX c #FEFFFB",
/* pixels */
"rXrXrXrXrXrXrXrXrXrXrXrXrXhXhXrXrXrXrXrXrXrXrXrXrXrXrXrXrXrXrXrXrXrXrXrXrXrXrXrXrXrXrXrXrXrXrXrXrXrX",
"rXrXrXrXrXrXrXrXrXrXrXrXrXrXrXrXrXrXrXhXjXhXhXkXkXkXkXkXhXrXrXrXrXrXrXrXrXrXrXrXrXrXrXrXrXrXrXrXrXrX",
"rXhXrXrXrXrXrXrXrXrXrXrXrXrXrXhXrXrX3X@X#Xj.t.t.t.oXkXVXmXjXrXrXrXrXhXrXrXrXrXrXrXrXrXrXrXrXrXrXrXrX",
"rXrXrXrXrXrXrXrXrXrXrXrXrXhXzXlXtXiXuX=XqXwXiXpXxXpXsXMXdXE j p V.3X|.3XrXrXrXrXrXrXrXrXrXrXrXrXrXrX",
"rXrXrXrXrXrXrXrXrXrXrXrXrXyXuX0X-X=X-X-X%X=X=X$X-XuXt.D 1 9 J g 5 Q.0.&X<X3XrXrXrXrXrXrXrXrXrXrXrXrX",
"rXrXrXrXrXrXrXrXrXrXrXrXrX&Xu.7.g.3.=.j.%XuXiXpXbXI.8 p J.kXuXW 3  Xw.g.0XeX_.3XrXrXrXrXrXrXrXrXrXrX",
"rXrXrXrXrXrXrXrXrXrXrXkXjX0.>.<XlXeXbXZXZXZXZXZXT.2 B.zXuXl.a.u s hXrX>Xe.j.$Xy.>XrXrXrXrXrXrXrXrXrX",
"rXrXrXrXrXrXrXrXrXrXrX@Xg.j.3XhXtXbXnXeX#Xj.g.W 2 Z.bXk.p.s.:.; U ).rXhXrX1XoXi.g.4XrXrXrXrXrXrXrXrX",
"rXrXrXrXrXrXrXhXzXrXe.3.<XhXhX2Xj.i.:.3.oXj.6.: B.bXk.a.p.8.C 5 hX>X4XrXrXrXhX3X1XrXrXrXrXrXrXrXrXrX",
"rXrXrXrXrXrXjXNXkX3.!.rXhX3X!.&.2.@X3XrXhXkXK d lXk.i.%.{ I O T cXhXrXrXrX3X4XhXrXrXjXrX4XrXrXrXrXrX",
"rXrXrXrXrXhXNXgX2.<XhXhX>X3.t.,XrXhXjXjX4XI.2 ].$X:.} ] ] y 8 5.w.~.3XhX3X6.~.|.rXrXG.j w j .XrXrXrX",
"rXrXrXrXrXkXhX,.>XhX4X!.t.3XkXjXjX.XS.j w $ l 2X%.] S C M + J.bX<X4.o.t.3X*X&X#XY.j 3 d H $ G.jXrXrX",
"rXrXrXrXrX4X<.|.hX3Xe.~.kXhXjX}.H 2 4 j B.& D.g.@.X.[ Z 0 o w V.4XrX/.-.-._.3XY.8 s I.&X2.; G.jXrXrX",
"rXrXrXrX4X4._.hX>X3.*XkXrXrXC.2 9 A.mXBXbX! j.l.d.d.f.x.s.+.B # s `.jX1X;.) Y.w z  Xk.s.X.; `.yXrXrX",
"rXrXrXhX(.~.jX1X-.@XhXrX4XH $ B.NXnXwXM.n.qXbXvXv.f.x.x.x.M.n.+.0 3 G.jX3Xo.> j 1Xk.s.d.I 8 .XrXrXrX",
"rXrXrX4X~.4X3X2.@XkXrXhXJ % K.BXuXc.f.f.f.iXAXBXqXf.f.f.m.bXsXf.i.u 1 T.jXE 5 ^.k.d.f.s.M s rXrXrXrX",
"rXrXrX*X>XrXe.t.zXhXkXC.< K.nXqXf.f.f.f.f.m.wXqXx.x.f.f.m.vXuXl.f.p.e w '.a T k.l.l.l.#.: E jXrXrXrX",
"rXrX3Xt.rX*Xq.zXkXjXT., Z.nXM.f.x.x.f.f.b.b.b.x.x.f.f.f.f.c.xXiXx.x.=.: 8 3 <.l.l.l.i.V < '.yXrXrXrX",
"rXhX_./.rXw.tXlXrXhXd l MXqXx.x.x.f.m.qXwXqXM.x.x.x.f.f.f.x.qXqXx.x.d.S X t h.l.l.i.( : H rXrXrXrXrX",
"rXrX!.3X).#XlXrXjXF.4 fXiXx.x.x.x.wXnXZXCXCXBXsXv.f.f.f.f.x.x.x.c.x.z.$.0 7 h.p.7.( 0 5 [.rXrXrXrXrX",
"rXrX*XrX1XjXhXrX4Xa 9 mXqXf.x.x.iXCXAXAXAXCXCXCXbXv.f.x.f.f.x.x.c.x.x.%.Z O I I u = X 5 I.rXrXrXrXrX",
"rXrXrXrXhXhXrXjXT , 1 [.v.x.x.uXAXCXdXJ.dXVXAXCXCXpXx.x.x.x.x.x.x.x.z.$.] - > e M P P r ; E rXrXrXrX",
"rXrXrXrXrXrXrX.X5 K s /.c.x.M.BXmXJ d F f F fXAXCXZXqXx.x.x.x.x.x.x.l.|  .q 0 :.l.s.p.p.P ; S.jXrXrX",
"rXrXrXrXrXrXyX`.1 Z.h &Xc.x.sXVXl K dXNXVXB.h VXAXAXsXx.x.x.x.x.x.x.h.| 1.g > } g.l.p.a.s.A 2 '.yXrX",
"rXrXrXrXrXrXjXT.1 Z.j pXM.wXZXR.h H.$ K.dXmXh K.AXAXnXv.x.x.x.x.x.x.8.| 9.D = S { :.p.s.l.l.r H hXrX",
"rXrXrXrXrXrXjXT.1 j 1 K hXBXAXB.B.d   1 $ R.C.B.AXAXBXM.x.x.x.x.x.a.$.| OXD X : Z ] { #.:.8.Z 5 .XrX",
"rXrXrXrXrXrXrX[.$ % b b N.CXAXK Z.w . . . H.D.K AXAXZXM.x.x.x.x.x.%.| 1.;Xt j H + 0 V A A V > 3 .XrX",
"rXrXrXrXrXrXrX'.& n L.m v mXAXZ.R K . . $ fXJ A.AXCXBXv.x.x.x.x.8.} | E.;X6 V.hXF.s , ; # 1 d G.rXrX",
"rXrXrXrXrXrXrX[.& x c c * K.AXfXf ].K h R.].p fXAXCXnXc.x.x.z.8.} } 1.7XP., `.jXjX4X[.`.T.! ^.jXrXrX",
"rXrX3XQ.3XrXrXrXV.o @ @ i fXAXAXB.f I.{.C.9 Z.AXAXAXsXm.x.a.%.| | $.+X8XD p 4XrXrXrXjX4Xe.) W |.hXrX",
"rXhX|.o.(.hXrXrXrXs , Q }.AXAXAXVXA.f t h J.AXAXAXZXqXl.8.$.| | $.E.8XW., V.jXrXrXhX>XX.-.1Xt.X.Q. X",
"rXhX~.t.4.3XhXrXjXF.; P.8XcXAXAXAXAXVXNXCXAXAXAXAXiX8.%.] Z ] $.E.7X8XF w .XrXrXrX~.{ 4.4XhX3XQ.o.,.",
"rX|.O._.~.-.e.4XrX4Xs t ;X8XcXCXAXAXAXAXAXAXAXAX}.g.p.a.[ 0 : ..7X7X..# S.jXrXhXQ.( 5.rXrXrXrX3Xo./.",
"Y.X.!.rXrX!.) _.hXjX`., F :X6XgXcXZXCXZXCXZXNXcXg I x.l.f.i.M ; Q Y.6 z rXrXrXhX1.2.rXrXrXrXrXt.1.rX",
"Y.X.yXyXrXrXe.2.rXrXjXV.+ G :X:X:X5X9XgX9X5X6X8Xg M a.z.x.f.s.B + , s .XrXrXrXrX2.-.0XxXlXhXrX,.5.hX",
"3X@.&XvXxXiX#Xo.|.rXrXrXR + D +X:X:X:X:X:X:X6X8XQ = { f.z.x.x.s.r # '.jXrXrXrX3X( L j.sXvXtXyXQ.,.hX",
"hX5.@.aXaXaX' _ 5.hXrXrXrXC.% 7 Q ;X:X:X:X:X:X:XW.6 y 8.z.x.x.x.@.; F.jXrXrXrX4X5.~ @XvXsXiXiX<X,.4X",
"hX(./ #.` g.g.&.,XrXrXrXrXjX`.s + 7 G P.W.;X;X;XW.g X C 8.z.x.d.d.u s rXrXrXrXrXe.^ OX%X:.%X$Xg.o.3X",
"rX4X5._ ` /.1X>.e.rXrXrXrXrXjXrXH . X O ; 7 t 7 - X + O C :.a.d.f.I < [.yXrXrX~.e.Q.X.` ^ ^ / { ,.4X",
"rXrXrX3X;.4.hX1X*.t.rXrXrXrXrXjX[.< : M y 0 X w Y C.`.k O M ] 8.a.#.; G.jXhX~.2.3XhX1X-./.,X1XrXrXrX",
"rXrXrXhX|.X.|.hX1X-.e.4XhXrXrXrXjXE O N W S ; E jXjXyX4XR ; ; y Z N + G.rXt.-.1XhXrX3.e.rXrXrXrXrXrX",
"rXrXrXrXrX4.-.3XhX1X-.-.>XhXrXrXrX4Xz O M W 0 T jXrXrXrXrX`.H 8 < < z {.2.-.1XhXrXt.>.3XrXrXrXrXrXrX",
"rXrXrXrXrX3X;.2.3XhX3X3.` t.3XhXhXrX4XY # > ; R jXrXrXrXrXjXhX.X[.[.Q.X.2.3XhXrXt.*.1X>X3XrXrXrXrXrX",
"rXrXrXrX3X3X1X+.w.3XhXrX~.&.&.!.3XhXhXrXI.H H [.rXrXrXrXhXhXrX1X!.-.-./.rXhX3Xw.&.1X/.*.>XrXrXrXrXrX",
"rXrXrXrX3Xt.1X(.+.2.Q.rXhX3X~.#.+.w.@X1XrXjXjXhXhXrXrX3X>X!.;.+.;.@X4XhXhX>X-.;.1X|.>.k.3XrXrXrXrXrX",
"rXrXrXrXrX|./.rX/.` _ 2.1XhXhX3X@Xg.=.=.>.e.t.t.e.3.>.-.&.;.!.>XrXhXhX3Xe.&.t.@X3X!.%XrXrXrXrXrXrXrX",
"rXrXrXrXrXrX4XrXhX>X@X6.@.~.3XhXj.#XrX1X*X@XoXt.t.oX@X>X3XrXhXhXhX3Xt.+.-.@Xg.8.1X3XrXrXrXrXrXrXrXrX",
"rXrXrXrXrXrXrXrXrXrXhXrX(.O.O./.t.2.3XrXhXjXhXhXhXhXhXhXhX4X1X/.6.+.@.~.#Xg.j.3XrXrXrXrXrXrXrXrXrXrX",
"rXrXrXrXrXrXrXrXrXrXrXrXhX4X!.-.@.~ ) -.6.~._._._./.~.t.3.=.` ` %.@X4X<X#X1XrXrXrXrXrXrXrXrXrXrXrXrX",
"rXrXrXrXrXrXrXrXrXrXrXrXrXrXhX3X~.t./.6.;.X.X.X.X.+.@.>.3.oX*X,XrXhXrXrXhXrXrXrXrXrXrXrXrXrXrXrXrXrX"
};
