/* XPM */
static char *_e5736da49ba43d9b94a40e4dcbb8c62gUeVUQbmSG93pZoP[] = {
/* columns rows colors chars-per-pixel */
"50 50 207 2 ",
"   c #5CE1E6",
".  c #1C0304",
"X  c #210707",
"o  c #240909",
"O  c #2B0D0D",
"+  c #220807",
"@  c #2E110E",
"#  c #32120F",
"$  c #2B1012",
"%  c #331311",
"&  c #391715",
"*  c #3B1A14",
"=  c #3B1C1A",
"-  c #210D16",
";  c #2B1928",
":  c #301C27",
">  c #392A3C",
",  c #2F233C",
"<  c #431D1B",
"1  c #421E16",
"2  c #46211C",
"3  c #4A241D",
"4  c #49251B",
"5  c #452627",
"6  c #522623",
"7  c #542A24",
"8  c #5A2E25",
"9  c #5A2C29",
"0  c #5D3225",
"q  c #5F322A",
"w  c #55302A",
"e  c #483239",
"r  c #5D3A36",
"t  c #633625",
"y  c #64352C",
"u  c #6B3B2E",
"i  c #67382B",
"p  c #713D2D",
"a  c #6C3C31",
"s  c #713F32",
"d  c #78432D",
"f  c #744131",
"g  c #794633",
"h  c #7E4A35",
"j  c #72453B",
"k  c #7C4C3D",
"l  c #312744",
"z  c #322845",
"x  c #372D4A",
"c  c #2F2440",
"v  c #41354F",
"b  c #413753",
"n  c #433955",
"m  c #453C58",
"M  c #5F3F40",
"N  c #53414E",
"B  c #6E4443",
"V  c #764B45",
"C  c #754B46",
"Z  c #745454",
"A  c #564C68",
"S  c #534175",
"D  c #59477A",
"F  c #5D4C7E",
"G  c #594E67",
"H  c #605671",
"J  c #675D76",
"K  c #615365",
"L  c #6B627A",
"P  c #746476",
"I  c #834D35",
"U  c #834F3A",
"Y  c #875035",
"T  c #8C5335",
"R  c #865038",
"E  c #8B543A",
"W  c #925635",
"Q  c #90573A",
"!  c #945A3B",
"~  c #985D3D",
"^  c #81554A",
"/  c #885745",
"(  c #955E43",
")  c #865F5C",
"_  c #9B664B",
"`  c #95614A",
"'  c #9E6B53",
"]  c #9B6D5D",
"[  c #87615D",
"{  c #A26D53",
"}  c #856365",
"|  c #936C68",
" . c #99797D",
".. c #947274",
"X. c #A37E7A",
"o. c #A27A70",
"O. c #AE877C",
"+. c #5F4E80",
"@. c #604F81",
"#. c #645384",
"$. c #6A5988",
"%. c #7B6B8B",
"&. c #726686",
"*. c #7D748B",
"=. c #756592",
"-. c #796A95",
";. c #7D6E98",
":. c #776892",
">. c #7F7198",
",. c #88798B",
"<. c #977C86",
"1. c #83739C",
"2. c #887998",
"3. c #8B7CA4",
"4. c #8678A1",
"5. c #9E8184",
"6. c #90859F",
"7. c #8B809E",
"8. c #A68685",
"9. c #AB8C89",
"0. c #BD9586",
"q. c #BE998E",
"w. c #B69289",
"e. c #AB929D",
"r. c #B28C81",
"t. c #968BA4",
"y. c #998DA4",
"u. c #9986AD",
"i. c #9A8BAD",
"p. c #9584A8",
"a. c #9D8BB2",
"s. c #9E91B4",
"d. c #9F96AB",
"f. c #A194AD",
"g. c #AA9AAD",
"h. c #B19AA6",
"j. c #A28FB7",
"k. c #A394B6",
"l. c #A491B9",
"z. c #AA9CBC",
"x. c #A69AB7",
"c. c #AFA3BC",
"v. c #AAA2B6",
"b. c #B8AAB9",
"n. c #C39E90",
"m. c #C09B8F",
"M. c #C3AAAC",
"N. c #D2BABB",
"B. c #AE9EC1",
"V. c #B29FC7",
"C. c #AEA1C2",
"Z. c #B3A5C3",
"A. c #B6AAC4",
"S. c #B9ACC5",
"D. c #BCADCB",
"F. c #B8A8CB",
"G. c #BEB1CC",
"H. c #BDA9D2",
"J. c #BFB2D1",
"K. c #CCBAC4",
"L. c #C1B5CD",
"P. c #C8BBCC",
"I. c #C3B5D4",
"U. c #C6BAD3",
"Y. c #C9BDD6",
"T. c #CCBCDC",
"R. c #C7B5DA",
"E. c #D1BCC0",
"W. c #CEBCE1",
"Q. c #D1BEE4",
"!. c #D4C4CC",
"~. c #DEC9CC",
"^. c #D8C7CE",
"/. c #CDC3DA",
"(. c #CBC1D6",
"). c #D1C6DE",
"_. c #D3CADD",
"`. c #E2CED1",
"'. c #E4D3D9",
"]. c #E0CBCB",
"[. c #D4C4E5",
"{. c #D5CBE4",
"}. c #D8CEE4",
"|. c #D6C4E9",
" X c #D8C6EA",
".X c #DCCCEC",
"XX c #DBD2E6",
"oX c #DDD3E9",
"OX c #E0D4ED",
"+X c #E3DAED",
"@X c #E7DCEB",
"#X c #E2D4F1",
"$X c #E6DBF2",
"%X c #EADEF5",
"&X c #EBDFF9",
"*X c #E0CFF0",
"=X c #EAE0EE",
"-X c #EDE5F6",
";X c #EBE2F2",
":X c #EEE5F9",
">X c #EBE4F4",
",X c #F1E6FC",
"<X c #F5EDFE",
"1X c #F2EAFB",
"2X c #F0E8F7",
"3X c #F7F0FF",
"4X c #FAF3FF",
/* pixels */
"                                                                                                    ",
"                                                                                                    ",
"                                                                                                    ",
"                                                                                                    ",
"                                                                                                    ",
"                                                                                                    ",
"                                                          D D D D D D D D D D D D D D               ",
"                                                        #.#.#.#.#.#.#.#.#.#.#.#.#.#.#.#.            ",
"                                                        ;.1.1.1.1.1.1.1.1.1.1.1.1.1.>.:.            ",
"                                        D D D D S S @.>.s.C.A.A.Z.Z.Z.Z.Z.Z.Z.Z.A.Z.z.7.H x         ",
"                                      #.#.#.#.#.F F $.3.F.}.+X+X+X+X+X+X+X+X+X+X$X+X/.f.J b l       ",
"                                    =.-.;.;.;.;.:.:.1.s.Y.$X<X<X1X1X:X-X-X-X-X:X3X3X@XA.,.H A       ",
"                              S   $.3.k.z.C.C.z.z.z.C.G.[.$X&X:X&X$XOXXXXX}.XXOX-X3X1X_.b.t.*.H m   ",
"                          @.+.F F =.a.I.XXoXoXoXoXoXoXoX.X.X.X.X.X[.T.U.L.G.L.Y.XX-X<X2X+X(.d.L m l ",
"                        =.:.:.=.=.4.z.{.:X<X<X1X<X<X1X%X#X X|.|.|.Q.R.D.A.Z.Z.G./.OX-X3X4X@Xc.&.m z ",
"                      =.3.s.x.x.x.C.I..X%X,X,X,X,X,X,X%X#X X X X X[.T.R.G.D.Z.A.L./.XX:X4X-XA.&.m z ",
"                    F :.k.Y.}.XX}.}..X.X.X#X#X$X$X$X$X#X.X.X.X.X.X X[.Q.T.I.A.A.A.G.Y.oX1X=Xb.&.m z ",
"                  #.=.3.C.}.-X1X:X;X#X.X X X.X.X.X.X.X.X.X.X.X X X[.[.W.R.D.Z.Z.Z.S.I.}.%XXXv.L v , ",
"                G >.i.z.I.{.OX+X+XoX.X X X X.X.X.XOX#X*X.X.X X[.).T.I.F.V.z.k.x.A.U.).oXoX/.y.K > ; ",
"              x H t.G.).).Y.U.U.U.Y./.[. X.X.X.X*XOXOX.X.X X[.T.I.D.B.l.a.u.u.k.D.}.+X+X{.S.,.N : o ",
"            b A L x._.@X}.L.A.Z.A.D.Y.[..X.X.X X X[.[.[.Q.T.I.D.Z.z.k.a.i.u.i.x.I.oX$XXXL.f.P e $ . ",
"          G L *.t.A._.XX/.D.Z.A.D.I.T.[. X X[.T.R.D.Z.z.z.z.k.i.t.i.x.Z.A.D.D.I./.oX}.P.h.<.Z 5 o . ",
"        b J 6.b.L.U.U.U.G.A.A.D.R.T.[. X X[.T.G.z.i.2.2.2.2.1.%.%.6.c./.oXoXoXoX}.).L.h. .Z r = o . ",
"      l b L x.XX=X}.U.S.Z.Z.A.D.R.W.Q.Q.W.R.D.Z.f.2.%.%.%.%.%.&.%.p.S.XX-X1X;X@X_.L.g.<.) j 7 & o . ",
"      l b L v.@X3X;X).L.Z.z.x.B.F.H.H.H.F.Z.z.k.f.i.y.t.y.i.i.t.i.z.U.XX@X'.~.N.M.e.<.} V i 4 # o . ",
"      z b L v.@X4X<X@X_.D.k.i.a.j.l.l.l.j.a.i.i.x.S.U.(.(.(.(.(.(./././.P.M.q.O.o.| ) V a 8 < # o . ",
"      c v J g.oX3X4X<X+XU.x.u.p.u.i.i.i.u.u.p.a.Z./.@X-X;X=X=X=X@XXX/.S.h.8.] ( / k j a y 7 < % o . ",
"      ; > K y.).:X4X3X:X}.G.Z.B.C.Z.C.C.C.B.B.Z.I.}.+X@X'.~.~.].~.E.b.e.<.| / I d p u y 9 6 < % o . ",
"      - : N ,.G.oX1X3X3X-XoX{.{.{.{.{.{.{.{.{.{.{.{.).K.M.q.0.0.0.r.X.| [ ^ U g p i q 9 9 6 < % o . ",
"      . $ e P g.U.XX;X1X2X;X;X;X;X%X;X;X;X;X;X@XXX(.S.h.X.' _ _ _ ` / ^ k k g f u y 9 9 9 6 < % o . ",
"      . o 5 Z <.h.b.K.!.^.^.^.^.!.!.^.~.`.`.`.~.K.b.e.X.] ~ W W W T I h g f a a y y 9 7 6 2 * @ o . ",
"      . o = M } .. . .5.8.9.9.8.5.5.9.w.m.n.n.q.w.O.o.] ` ! W W W T T T h f y y y i y 7 < & % O     ",
"      . o & w j V C B B V V ^ V B B ^ ` ' { { ' ' _ ` ` ( ! ! ! ! ! ! Q I f y q y a u 7 & O o       ",
"        o % 3 0 q 8 7 8 y i u i y i p I T T W W ! ! ! ! ! ! ! ! ! ! ! E I g u y a a i 3 % o .       ",
"          @ * 1 2 3 6 7 8 8 t i p d d g I I T W W W W ! ! ! ! ! ! ! E R I h g f f a q 2 % X .       ",
"            O @ % < 6 7 9 9 y p I Y I h h I E ! ! ! ! ! ! ! ! ! ! E R h h I E I g y 7 < @ o .       ",
"              X O & 2 6 7 9 y f I E I h h I E ! ! ! ! ! ! ! ! ! ! E R h h R E I f 8 3 & O o         ",
"                o $ & < 6 y a s f g h I R E Q ! ! ! ! ! ! ! ! ! ! ! E E E E E h i 3 & % O           ",
"                  o O % 3 y a a y u f I E ! ! ! ! ! ! ! ! ! ! ! ! ! ! Q E E I f 7 & O o             ",
"                    X # 2 q y q 7 7 u h E ! ! ! ! ! ! ! ! ! ! ! Q E T I h g u q 3 % o               ",
"                      O * 3 3 2 = < 8 f E Q ! ~ ~ ~ ~ ~ ~ ~ ! Q E h f t 0 7 3 3 * @                 ",
"                        # % % @ O % 3 u h E ! ! ~ ~ ~ ~ ~ ! ! E h u 8 2 & % % % @                   ",
"                          o + . X O < 0 u g I I Y Y Y Y Y Y I g u q 2 @ + X X o                     ",
"                            . . . o & 2 7 8 q t t t t t t t q 8 7 3 & o . . .                       ",
"                                    @ % % * * * * * * * * * * * % % @                               ",
"                                      o o o o o o o o o o o o o o o                                 ",
"                                        . . . . . . . . . . . . .                                   ",
"                                                                                                    ",
"                                                                                                    ",
"                                                                                                    "
};
