/* XPM */
static char *_d9af33847da4ff78158d663fb4988c6YINWDmNGOhBy1Usr[] = {
/* columns rows colors chars-per-pixel */
"50 50 53 1 ",
"  c #645A3A",
". c #635A3A",
"X c #635939",
"o c #63593A",
"O c #685D3C",
"+ c #6F633F",
"@ c #766842",
"# c #796B44",
"$ c #7A6C44",
"% c #7A6C45",
"& c #655B3B",
"* c #695E3D",
"= c #706440",
"- c #766943",
"; c #786A44",
": c #786A43",
"> c #655B3A",
", c #675C3B",
"< c #6D613E",
"1 c #726641",
"2 c #776943",
"3 c #7A6B44",
"4 c #786B44",
"5 c #756842",
"6 c #736641",
"7 c #6B603D",
"8 c #746742",
"9 c #6C603E",
"0 c #695E3C",
"q c #776A43",
"w c #726540",
"e c #6D623F",
"r c #716440",
"t c #6A5E3D",
"y c #655A3A",
"u c #625939",
"i c #675D3C",
"p c #6A5F3D",
"a c #716540",
"s c #625839",
"d c #6E623F",
"f c #6D623E",
"g c #6B5F3D",
"h c #665C3B",
"j c #726541",
"k c #665B3B",
"l c #736741",
"z c #685E3C",
"x c #706340",
"c c #746741",
"v c #6C613E",
"b c #756742",
"n c #586738",
/* pixels */
"     .XoO+@#$##################################$$%",
"       &*=-#$##################################;;:",
"     >,*<12#3################################42566",
"   o ,7+6@:##################################:8=<9",
"    &0+5:##################################3#qw7,>",
"  &,*e6:$$#################################$32rtyu",
".yi7+6-#$3#################################$32r* u",
"o>0+5:#####################################$32rp>X",
"X>paq$$####################################$32rp>X",
"s pa:%$####################################$32r* u",
"o&prq3$####################################$32rp>o",
",0<1q#3####################################3#q1<0,",
"d+a5;########################################;5a+d",
"55-:##########################################:-55",
"##################################################",
"$$3##########################################$$%%%",
"###############################################3$$",
"###########################################;q2-222",
"$$$$3###################################3$#@6r====",
"33333###################################$$:6fp00**",
"2222q:;##################################:5+0&  yy",
"rr==r6@;###############################:@6+ghouXoo",
"**00pf6q#3###########################3#2j<0h ooo  ",
"hhhk,7a2#3###########################$#-rph&&&>   ",
"ppppgd6q#############################3#21fgp7g0h  ",
"wwaajl-;###############################:@6j16a<O>o",
":::::;4#################################4:::q5+0>o",
"$$$$3####################################3#q5j<O X",
"33333###################################$$;8+7O& X",
"########################################3#2a7,&>>y",
"########################################3#21<*z00*",
"##########################################:5j=x===",
"###########################################;22--22",
"##################################################",
"############################################3$$$$$",
"##################################################",
"##################################################",
"$$3############################################3$$",
"##################################################",
"@-2:##########################################:2-@",
"+=1@#$3####################################3$#@1=+",
"O*<6:$$####################################$$:6<*O",
"o&*+5:######################################:5+*&o",
"X ,g+1@;##################################;@1+phos",
". >h0<12#3##############################3#21<0h .X",
"   >,7a2#3##############################3#2a7,kkhh",
"  kO7+cq##################################q6+979vv",
"o>O<wb2;##################################;-866666",
"o>p=-#######################################;;::;;",
"X&pw;%%#####################################$$%%$$"
};
