/* XPM */
static char *_fd15d74c7504cd4a16d64c14b3bdce4nKQknIU2QiAw5iT6[] = {
/* columns rows colors chars-per-pixel */
"50 50 242 2 ",
"   c #05041D",
".  c #10141D",
"X  c #09281C",
"o  c #080623",
"O  c #170824",
"+  c #1D0C25",
"@  c #051423",
"#  c #0B1926",
"$  c #1A162A",
"%  c #1A1B35",
"&  c #240B23",
"*  c #270B25",
"=  c #370C25",
"-  c #271529",
";  c #2A1B2D",
":  c #34142A",
">  c #391528",
",  c #271B35",
"<  c #3B1C31",
"1  c #092626",
"2  c #182727",
"3  c #12302D",
"4  c #173928",
"5  c #37232D",
"6  c #28362E",
"7  c #27223A",
"8  c #372435",
"9  c #363630",
"0  c #45152A",
"q  c #441B2C",
"w  c #4F182E",
"e  c #4C1C2C",
"r  c #561A2C",
"t  c #471D31",
"y  c #631E2D",
"u  c #462B2A",
"i  c #55262E",
"p  c #462636",
"a  c #4B2133",
"s  c #542231",
"d  c #5B2A33",
"f  c #582836",
"g  c #4B3536",
"h  c #57353A",
"j  c #66262E",
"k  c #682935",
"l  c #712D36",
"z  c #69373A",
"x  c #773639",
"c  c #7C3A3C",
"v  c #184E1B",
"b  c #2C571F",
"n  c #297317",
"m  c #0D442B",
"M  c #174729",
"N  c #1B592A",
"B  c #0F4C32",
"V  c #175A34",
"C  c #27482B",
"Z  c #275A28",
"A  c #244537",
"S  c #364735",
"D  c #245A31",
"F  c #355B36",
"G  c #186931",
"H  c #296A29",
"J  c #27792B",
"K  c #39742C",
"L  c #276A31",
"P  c #3B6A32",
"I  c #2A7833",
"U  c #387634",
"Y  c #565138",
"T  c #6E4930",
"R  c #69463B",
"E  c #7C443F",
"W  c #497437",
"Q  c #666E35",
"!  c #362843",
"~  c #32334C",
"^  c #4D2E44",
"/  c #493649",
"(  c #593843",
")  c #6A3C43",
"_  c #763A40",
"`  c #355458",
"'  c #3E6E4E",
"]  c #524A54",
"[  c #684949",
"{  c #784846",
"}  c #7D5546",
"|  c #6E5051",
" . c #487050",
".. c #515469",
"X. c #57566A",
"o. c #645B6C",
"O. c #7D5C68",
"+. c #615C71",
"@. c #567A6C",
"#. c #5A6578",
"$. c #686679",
"%. c #7A6673",
"&. c #76737C",
"*. c #863838",
"=. c #843C3C",
"-. c #923F3B",
";. c #88423E",
":. c #90443B",
">. c #843F40",
",. c #874945",
"<. c #964B45",
"1. c #86544A",
"2. c #975549",
"3. c #9C5C4D",
"4. c #845757",
"5. c #9B5E52",
"6. c #A35A4C",
"7. c #A45D53",
"8. c #996554",
"9. c #956952",
"0. c #A9644E",
"q. c #B3654D",
"w. c #A76755",
"e. c #AD6C55",
"r. c #B16853",
"t. c #B46C55",
"y. c #AA715C",
"u. c #B9745A",
"i. c #B65563",
"p. c #85636A",
"a. c #876972",
"s. c #A16A64",
"d. c #A67664",
"f. c #BC7B61",
"g. c #C27A5C",
"h. c #C37D61",
"j. c #258F23",
"k. c #2F8B2A",
"l. c #3A882B",
"z. c #298635",
"x. c #378835",
"c. c #399634",
"v. c #4F8D33",
"b. c #489334",
"n. c #6E953C",
"m. c #4AA737",
"M. c #55B336",
"N. c #65B137",
"B. c #5AC22F",
"V. c #64C439",
"C. c #78CE3C",
"Z. c #5A924E",
"A. c #739351",
"S. c #55B041",
"D. c #6ABA42",
"F. c #77B64B",
"G. c #73996F",
"H. c #71C647",
"J. c #75C941",
"K. c #7AD244",
"L. c #86E138",
"P. c #8EB153",
"I. c #AAA05F",
"U. c #988973",
"Y. c #B38968",
"T. c #C2805E",
"R. c #C58464",
"E. c #CA8866",
"W. c #D38965",
"Q. c #D18B69",
"!. c #D9946D",
"~. c #DC946C",
"^. c #CB9172",
"/. c #DB9A72",
"(. c #E1966D",
"). c #E49C73",
"_. c #E49F78",
"`. c #E8A479",
"'. c #F2A97C",
"]. c #86D747",
"[. c #8DCF52",
"{. c #98E64E",
"}. c #A5E855",
"|. c #B4EB5C",
" X c #AFF650",
".X c #A4D465",
"XX c #B2ED63",
"oX c #C8FD65",
"OX c #D0F570",
"+X c #5D7286",
"@X c #616C85",
"#X c #677588",
"$X c #747B8E",
"%X c #867F8B",
"&X c #728C8B",
"*X c #768598",
"=X c #7C8C9C",
"-X c #7AA68E",
";X c #7B8FA1",
":X c #7E93A5",
">X c #9F9D85",
",X c #858696",
"<X c #968D97",
"1X c #8899AA",
"2X c #999EAE",
"3X c #8EA5B8",
"4X c #94A9B1",
"5X c #95A9B8",
"6X c #A7AFBC",
"7X c #D6A88A",
"8X c #EEB084",
"9X c #F4B183",
"0X c #E0B4A0",
"qX c #A0D187",
"wX c #E2C392",
"eX c #CDF085",
"rX c #96AFC2",
"tX c #99B5C4",
"yX c #A6B9C7",
"uX c #A4BFD0",
"iX c #92C0C1",
"pX c #ABC2CF",
"aX c #A9C6D6",
"sX c #B0CEDD",
"dX c #B4D0DF",
"fX c #B3D3E3",
"gX c #BAD6E5",
"hX c #BCDDEB",
"jX c #BEE1EF",
"kX c #C2CDD5",
"lX c #C3DCE9",
"zX c #C2E0EE",
"xX c #D7E3E9",
"cX c #C3E5F4",
"vX c #C6E9F7",
"bX c #C8E8F6",
"nX c #C7EAF9",
"mX c #CAEDFB",
"MX c #D9ECF7",
"NX c #CCF0FE",
"BX c #D0F5FF",
"VX c #DEF5FE",
/* pixels */
"NXNXNXNXNXNXNXNXNXNXNXNXNXNXNXNXNXNXNXNXmXNXNXNXNXNXNXNXNXNXNXNXNXNXNXNXNXNXNXNXNXNXNXNXNXNXNXNXNXNX",
"NXNXNXNXNXNXNXNXNXNXNXNXNXNXmXnXnXnXbXbXnXnXnXNXNXNXNXNXNXNXNXNXNXNXNXNXNXNXNXNXNXNXNXNXNXNXNXNXNXNX",
"NXNXNXNXNXNXNXNXNXNXmXNXBXnX5Xo.%.a.p.p.a.%.o.6XfXvXNXNXNXNXNXNXNXNXNXNXNXNXNXNXNXNXNXNXNXNXNXNXNXNX",
"NXNXNXNXNXNXNXNXmXmXNXfX1X,X1.w.h.Q.Q.Q.Q.Q.u.5.( *XyXcXNXNXNXNXNXNXNXNXNXNXNXNXNXNXNXNXNXNXNXNXNXNX",
"NXNXNXNXNXNXNXNXNXmXrX] a 2.W.~.!./.9X9X`.`._.Q.h.,.^ X.tXmXNXNXNXNXNXNXNXNXNXNXNXNXNXNXNXNXNXNXNXNX",
"NXNXNXNXNXNXNXNXcX;X7 i <.r.u.g.W.)._.).).~.9X9X`.!.u._ / 1XcXNXNXNXNXNXNXNXNXNXNXNXNXNXNXNXNXNXNXNX",
"NXNXNXNXNXNXNXNXuX% q ;.6.2.c 6.(.~.~.`._.Q.).).~.~.~.g.<.h #XfXNXNXNXNXNXNXNXNXNXNXNXNXNXNXNXNXNXNX",
"mXjXhXjXNXNXNXdX..: l =.*.=.6.r.W.Q.'.`.f.c ,.R h Y { 0.W.u.p 1XmXNXNXNXNXNXNXNXNXNXNXNXNXNXNXNXNXNX",
"iX' Z.G.4XrXvXaX$ e s l j =.0.Q.W.g.E.1.9 2 4 D G V B 4 h } c ^ rXNXNXNXNXNXNXNXNXNXNXNXNXNXNXNXNXNX",
"tX' N.V.A.G.&X#.$ : > r l ;.u.).W.2.g N c.F.H.V.].[.c.z.D # : k yXNXNXNXNXNXNXNXNXNXNXNXNXNXNXNXNXNX",
"mXaX .J W  .A.P.P.9 - r { h.g.e.h S b.].}.oXoX}.].J.[.|.|.Z.1 < 6XNXNXNXNXNXNXNXNXNXNXNXNXNXNXNXNXNX",
"NXNXhX&XY u 4 F F.[.W e 6.).R.z @ M U P.OXoXoXoX].{.oXOX}.F.D ; &.mXNXNXNXNXNXNXNXNXNXNXNXNXNXNXNXNX",
"NXNXNXlXi.T n 1 # K F d q.W.9.# 1 X v v P F.{.C.M.M.J.N.H 1 o t %.nXNXNXNXNXNXNXNXNXNXNXNXNXNXNXNXNX",
"NXNXNXmXgX@.v.z.N m $ <.t.E 6 V 1 Z L.B.n X M c.M.x.M j.j.X   a a.bXNXNXNXNXNXNXNXNXNXNXNXNXNXNXNXNX",
"mXmXmXNXNXcX=XP K 3 q 6.8.; N N.W 9 Q n.Z v l.{.eXeXW b Z W 2 e 4.lXNXNXNXNXNXNXNXNXNXNXNXNXNXNXNXNX",
"NXNXNXNXNXNXfX, = e =.6.x @ V S.}.P.n.v.v.l.K N.|.OXD.J N.v.# q ) gXNXNXNXNXNXNXNXNXNXNXNXNXNXNXNXNX",
"NXNXNXNXNXNXfX7 r k 7.f.f @ B G z.m.l.M.{.C.z.N b.M.I k.J 1   s %.cXNXNXNXNXNXNXNXNXNXNXNXNXNXNXNXNX",
"NXNXNXNXmXgX@X- = e _ w.}   # V G G A -XA..X].m.I 4 G m     : k yXNXNXNXNXNXNXNXNXNXNXNXNXNXNXNXNXNX",
"mXmXNXNXhX..s l t & > _ 2.h + @ B z.x. .>X .P K K J 4     + i 8 rXNXNXNXNXNXNXNXNXNXNXNXNXNXNXNXNXNX",
"NXNXnXtX$.{ 0.g.e.k : : x e.8.( ; 1 N c.V.K.].].m.M   + d { ] =XjXNXNXNXNXNXNXNXNXNXNXNXNXNXNXNXNXNX",
"NXfX#X( z 9.`.!.`.h.,.s * : { e.y.[ O # N D D D 2 < ) ,.d q +.aXnXmXNXNXNXNXNXNXNXNXNXNXNXNXNXNXNXNX",
"NXpX[ k - / U.} '.9X/.w.l e = : { Y.d.8 - o - ; 4.y.} p i ;.{ o.$XgXNXNXNXNXNXNXNXNXNXNXNXNXNXNXNXNX",
"NXNXyX7   # M Y d.).9X8Xh.c s z * ; { e.u.4.y.8.{ h < e 6.e.&.yXlXnXNXNXNXNXNXNXNXNXNXNXNXNXNXNXNXNX",
"NXNXbX&.# N z.G M [ ^.^./.2.a x =.i & : g ( g p z d.2.3.z ; tXBXNXNXNXNXNXNXNXNXNXNXNXNXNXNXNXNXNXNX",
"NXNXmX4XA J N.].D.S 5 g ~.h.{ t s l x s : E { w./.f.3.w.9 1 tXNXNXNXNXNXNXNXNXNXNXNXNXNXNXNXNXNXNXNX",
"NXNXaX..x.M.{. X}.I @ - 3.E.Q.w.z a j -.,.,.3.R./.r.R.} Z m.@.aXNXNXNXNXNXNXNXNXNXNXNXNXNXNXNXNXNXNX",
"NXaX` J J.K.V.B.c.m O + * f w.u.h.R.[ e l <.,.1.{ h.E.p N H.c.-XcXNXNXNXNXNXNXNXNXNXNXNXNXNXNXNXNXNX",
"BX:X1 c.[..XF.I 1 o O 0 d k z w.Q.e.3.2.R s l ,.x { z & M b.qXU.$.aXNXNXNXNXNXNXNXNXNXNXNXNXNXNXNXNX",
"BX;X; 1.T.7XwXI.5 8 o O > q : f f s { | O.O./ p j y =   g 9.d.w.a.pXNXNXNXNXNXNXNXNXNXNXNXNXNXNXNXNX",
"BX=X& x f.>X0X7X{ + o * : = 0 s d i f $.<X$.6X,Xp r =   O 8 ,.r.3.p.rXNXNXNXNXNXNXNXNXNXNXNXNXNXNXNX",
"BX:X< { >.<.6.s.z O o * e y j *.-.*.f ^ o.%X,X*X^ w > + * q d ,.0.z ..gXNXNXNXNXNXNXNXNXNXNXNXNXNXNX",
"NX5X- : 1.Y.1.9.Q C & 0 > > t p h > < ! X.X.~ ! < c 3.c * . C v.[.[.H +XmXNXNXNXNXNXNXNXNXNXNXNXNXNX",
"NXrX$ z l d R P.XXXXA.5 d =.6.y.{ E w.{ ( t [ 1.c f.e.5.5 # 4 N. X].l.S *XcXNXNXNXNXNXNXNXNXNXNXNXNX",
"NX3X+ p g c Y.OXoXoX}.v.< <.r.R.e.6.w.t.R.5.e.2.;.g.0.f.g = 6 K.N.Z | 4.p @XaXNXNXNXNXNXNXNXNXNXNXNX",
"BX3X# H b.Q n.XXoXD.K b.; c 6.Q.t.0.R.w.!.E.;.w.2.u.e.E.s.5 N M.N = <.o.=X5XaXmXNXNXNXNXNXNXNXNXNXNX",
"BX3X1 J c.M.B.J.{.c.# m @ - 3.E.u.t.t.E.!.0.,.R.3.e.R } { S 4 m 1 * s ~ =X1X5XyXgXcXmXNXNXNXNXNXNXNX",
"NXhX=X` M N L G L M @ D x.C h 8.w.E 2.Q.R.3.T.Q.,.R W l.4 1 4 V B ; w , $.@X*X1X2X5XyXsXcXNXNXNXNXNX",
"NXNXNXfX3X#X..# @ 3 b.XX}.I $ 2.9.u f h t.u.g.u.z C M.{.U +XrXrXtX,Xt ! ,X1X1X*X*X=X1X4XpXMXVXNXNXNX",
"NXNXNXNXBXcX*X% m c.K.XX[.L   5 h   + 1.g.1.t.,.- B c.m.4 #.hXNXBXyXp ..4XyXlXgXpX5X;X=X1XyXxXVXBXNX",
"NXNXNXNXhX#.a ; N J z.x.D # % % o o 7 ,.u.5 E - O 2 M M ] h yXNXNXhXtXsXNXmXNXNXNXvXfXuX5X3X3XkXMXmX",
"mXmXNXcX#.+ j 1.Y  .' F g w ..*X$X@XrX8 1.$ O O 0 c 8.8.w.) yXNXNXNXNXNXNXNXNXNXNXNXNXNXmXvXzXlXbXmX",
"NXNXmXnX1X^ s k 2.r.7.5.,.w #.cXnXnXcX3X4X~ O & = j =.<.) $XlXNXNXNXNXNXNXNXNXNXNXNXNXNXNXNXNXNXNXNX",
"NXNXNXNXNXyX8 j =.:.=.l d $.dXNXNXNXNXNXNXaX~ & & : i d $.fXNXNXNXNXNXNXNXNXNXNXNXNXNXNXNXNXNXNXNXNX",
"NXmXNXnX:X#.; q q q : 8 1XcXNXNXNXNXNXNXvX#X$ + = i x c a +.aXcXNXNXNXNXNXNXNXNXNXNXNXNXNXNXNXNXNXNX",
"NXNXNXcX~ O > r r r = ~ fXNXNXNXNXNXNXNXjX~ O = 0 > z x *.c [ o.2XdXmXNXNXNXNXNXNXNXNXNXNXNXNXNXNXNX",
"NXNXNXfX7 = e x 3.0.;.> #.NXNXNXNXNXNXNXhX!   & = & k *.<.t.q.r.,.X.zXNXNXNXNXNXNXNXNXNXNXNXNXNXNXNX",
"NXNXNXsX, e i z 1.1.1.i $.NXNXNXmXmXmXNXcX=X/ - $ $ 0 r =.6.<.<.k ] zXNXNXNXNXNXNXNXNXNXNXNXNXNXNXNX",
"NXNXNXsX% & l t.!./.!.y.| :XNXNXmXmXmXmXmXNXfXaXaXuX$.] O.O.O.%.$.aXmXNXNXNXNXNXNXNXNXNXNXNXNXNXNXNX",
"NXNXNXcX*X7 w <.r.u.u.u.[ #XmXNXNXNXNXNXNXNXNXNXNXNXnXcXvXnXnXmXmXNXNXNXNXNXmXNXNXNXNXNXNXNXNXNXNXNX",
"NXNXNXNXmX5X! ; < t q : +.jXNXNXNXNXNXNXNXNXNXNXNXNXNXNXNXNXNXNXNXNXNXNXNXNXNXNXNXNXNXNXNXNXNXNXNXNX"
};
