/* XPM */
static char *_6d4955e17af4feed345dbcdc6e15e14JZXz9LNFiD7abTqg[] = {
/* columns rows colors chars-per-pixel */
"50 50 230 2 ",
"   c #000001",
".  c #03050C",
"X  c #0B0505",
"o  c #040C14",
"O  c #050D16",
"+  c #08141C",
"@  c #15191B",
"#  c #0A1E2A",
"$  c #091B26",
"%  c #191C26",
"&  c #0B222E",
"*  c #1B242A",
"=  c #0E2836",
"-  c #1D2233",
";  c #122937",
":  c #12303D",
">  c #22232E",
",  c #232422",
"<  c #2B2B35",
"1  c #2C2E3A",
"2  c #252835",
"3  c #312D34",
"4  c #29343A",
"5  c #33323B",
"6  c #3A373F",
"7  c #0E2F41",
"8  c #0D3248",
"9  c #153548",
"0  c #143E57",
"q  c #112F41",
"w  c #222E45",
"e  c #292F42",
"r  c #2B3548",
"t  c #3C3C45",
"y  c #333744",
"u  c #283B57",
"i  c #413F44",
"p  c #1A455A",
"a  c #2B464A",
"s  c #2A435D",
"d  c #354E57",
"f  c #164D6C",
"g  c #175979",
"h  c #294864",
"j  c #364A67",
"k  c #295366",
"l  c #255C75",
"z  c #375779",
"x  c #33556C",
"c  c #266279",
"v  c #346A74",
"b  c #44434B",
"n  c #4A464B",
"m  c #4D4A4D",
"M  c #484246",
"N  c #514C4E",
"B  c #4C4C54",
"V  c #454A57",
"C  c #524E52",
"Z  c #4A535B",
"A  c #565356",
"S  c #595456",
"D  c #565459",
"F  c #595659",
"G  c #5C595D",
"H  c #615C5E",
"J  c #4C5666",
"K  c #5D5C61",
"L  c #535A68",
"P  c #435671",
"I  c #625E62",
"U  c #576772",
"Y  c #646265",
"T  c #64646A",
"R  c #6D6A6D",
"E  c #69676B",
"W  c #676C77",
"Q  c #6D787C",
"!  c #767579",
"~  c #145C80",
"^  c #3A5C87",
"/  c #1B6284",
"(  c #1B6B99",
")  c #177399",
"_  c #296989",
"`  c #39678A",
"'  c #266B94",
"]  c #3E6897",
"[  c #217197",
"{  c #347797",
"}  c #38718C",
"|  c #237FA5",
" . c #2C79B0",
".. c #0F7EAE",
"X. c #455D81",
"o. c #436998",
"O. c #4C7999",
"+. c #546F92",
"@. c #687583",
"#. c #737C89",
"$. c #4B72A2",
"%. c #567CA7",
"&. c #807E81",
"*. c #3B8598",
"=. c #1984AC",
"-. c #1182B0",
";. c #2985AA",
":. c #2983BB",
">. c #3A94B7",
",. c #328FB2",
"<. c #478894",
"1. c #7F8389",
"2. c #768495",
"3. c #729598",
"4. c #67888C",
"5. c #4995A6",
"6. c #4B87B5",
"7. c #5B88B1",
"8. c #5399B9",
"9. c #6787AB",
"0. c #658AB3",
"q. c #6C93B9",
"w. c #7998BA",
"e. c #768EAE",
"r. c #52A9BF",
"t. c #2897C4",
"y. c #339ECA",
"u. c #39A6C6",
"i. c #32AFD4",
"p. c #4A99C2",
"a. c #7597C0",
"s. c #47A8D4",
"d. c #45B5D6",
"f. c #50ADC9",
"g. c #70A8CA",
"h. c #77BEE2",
"j. c #2EC5DF",
"k. c #38D8ED",
"l. c #47C7DF",
"z. c #61CCDE",
"x. c #5BC9E4",
"c. c #44D9EA",
"v. c #4AD4EA",
"b. c #75D4EB",
"n. c #5EF6FC",
"m. c #4DEBF9",
"M. c #67FAFD",
"N. c #78FCFE",
"B. c #848589",
"V. c #868C94",
"C. c #939396",
"Z. c #8B9097",
"A. c #8995A5",
"S. c #829CB7",
"D. c #999FA7",
"F. c #9CA6B2",
"G. c #8FA5B0",
"H. c #A7A7AB",
"J. c #A8ACB0",
"K. c #B3B4B7",
"L. c #A9B2BB",
"P. c #809CC0",
"I. c #8AA6C3",
"U. c #87A6C6",
"Y. c #92AAC5",
"T. c #94AEC9",
"R. c #9BB4CC",
"E. c #99B1C9",
"W. c #99B7D2",
"Q. c #A3B7CB",
"!. c #A7BACC",
"~. c #B8BFC7",
"^. c #A3BAD1",
"/. c #A9BED2",
"(. c #98CCD1",
"). c #ACC2D4",
"_. c #ADC5DA",
"`. c #A6C4DB",
"'. c #B3C6DA",
"]. c #BCCCDC",
"[. c #B7C8D8",
"{. c #BED0DE",
"}. c #B3DCDB",
"|. c #B1CAD2",
" X c #89D3EB",
".X c #BACEE3",
"XX c #BCD1E2",
"oX c #B9D9EC",
"OX c #A4C6E4",
"+X c #83FAFD",
"@X c #9AF9FA",
"#X c #A7FCFE",
"$X c #ACE3EE",
"%X c #C7C9CB",
"&X c #C1CDDB",
"*X c #C1D1DD",
"=X c #CCD4DC",
"-X c #D6D8DA",
";X c #C3D4E2",
":X c #C6D8E6",
">X c #CCDBE6",
",X c #CDDDE9",
"<X c #C9D6E2",
"1X c #D2DDE6",
"2X c #D1DFE9",
"3X c #D8DFE7",
"4X c #D4E2EB",
"5X c #DBE5EC",
"6X c #DDE8EE",
"7X c #DCE2E6",
"8X c #DEEAF2",
"9X c #D6E4F2",
"0X c #C4FAFA",
"qX c #D8FCFD",
"wX c #CBE3F1",
"eX c #E2E6EB",
"rX c #E2E9EE",
"tX c #EAEBED",
"yX c #E2EAF1",
"uX c #E4ECF2",
"iX c #EAEEF2",
"pX c #ECF1F5",
"aX c #EDF6FA",
"sX c #EBFEFE",
"dX c #E5F5F9",
"fX c #F1F6F9",
"gX c #F3FBFD",
"hX c #FCFEFE",
"jX c #F2F4F5",
"kX c #F0EFEF",
/* pixels */
"A A A A A A A A A A A A A A A A A A A A A A A A A A A A A A A A A A A A A A A A A A A A A A D D A A ",
"A A A A A A A A A A A A A A A A A A A A A A A A A A A A A A A A S F A F S F F F F F F F F F F F F A ",
"A A A A A A A A A A A A A A A A A A A A A A A A A A A A A A A A S F A F F A F F F F F F F F A F F A ",
"S A A A A A A A A A A A A A A A A A A S S S S A A S S A S S S S F F F A A F F F F F F F F F A A F A ",
"S A A A A S A A A A A A A A A A C S S A A A A A D F A A A S C A A m m A F F F F F F F F F F F F F F ",
"S A A A A F A A A A A A A A A G I C A A A A A m n n m C A A R F m J.J.C F F F F S F F F F F F S F D ",
"S A A A A A A A A A A F A A M 1.A.m S A m m G ! C.C.! Y C C A.K A ].OXZ S A A F F F F F F F S S F F ",
"S D A F F A A A A D A A A D E A B H C N B.~.7XaXfXaXpXeX%XR t m F L d t S G T A F S F F F F S F F A ",
"S A A A A A A D C n A A C G @.A S N E %XhXgXpXyX5X5X5X8X9XS.%X! m F Y B A I E A F F F F F F F F F F ",
"S A A A A A F A T B.C A A C m N R 1.=XhXrXrXyXyX8X5X5XpXR.;XgXiXK.! B C N I E F F A F F F F F F F F ",
"F A A A A A F m B._.B m A ! T C.jXuX/.pXhXpXuXiXyXyX5X/.R.iX5X5XiXrX%XQ I G n A F G F F F F F F F F ",
"F D A A A A A S D V M ! -XgXrX9XaXiX_.5X<XW.yXiXyXpX].&XfXyXrX5X4X5X8X'.iX-XK.E A Y G F F F F A F F ",
"S D A A A A A A K T M ~.hXiXfX.X,XpX1X>X[.^.iXiXiXiX*XaXiXiXyXyXyX5X;X4XpXiXgXF.N F m A F F F F F F ",
"S A A A F S F C m A B |.hXiXfXT.^.fXpX1XpXfXiXiXgXR.;XfXiXyXyX5X].4X].iXpXrXaXS.C Y J.I S F F F F A ",
"S A A A F A K ! V.A D T.;X4XW.9.'.pXpX1X[.hXpX5XT.] pXfXpXpXiX6X:XdXU.w.pXuX`.o.y R !.D F F F F F F ",
"A A A A A F C Q 2.M C.9XU.q.0.Y.5XpXhXiX%.I.0.{ :. .6.9.%._.rX6XpX:XY.R.q.%.%.E.L C b n I A F F F F ",
"S A A A A A F F n I eXfXiXQ./.].6XfX;Xa.( :.y.d.f.5.d.y.t. .7.iXXX].pXaX;XQ.=XgXe.5 G K.rXE A G F F ",
"S D A D A N S T A H.aX4X5XiXiX5X[.I.' :.>.l v 4 X   * a v d.u.6.R.gX5X4X5X8X6X`.I.J n F.`.J S G G F ",
"S A A A F D.E A R tX5X6X5XiXpXhX6X] >.x.4       . o       @ <.t.6.4XiX4X4X5X[.!.gX~.n K y i G G G F ",
"A A A A F @.D S L.dXyX8XyXyXiXiX7.s.v @   * d O # $ # $ $     d i.8.yX4X4X5X{.iX5X>XL S I T S G F F ",
"A D D A D N N C.aXXX;XyXiXyXpX^.:.<., @ O & : 7 9 8 8 9 : # O   <.i.W.gXuX^.Y.5X<X>X!.A G Y H F G F ",
"A D D A A A Y eXfXpX1X*X<XiXfX7.p.@ @ ; = s 8 l g g l f p q ; O X f.b.].Q.].5X5X4X4X8XV.C E K F F F ",
"A D D A S m J.fX7XrXiXiX<XE.q.s.5.  o # p l g [ ) ;.,.) c p q &   a m.q.rXiX5X4X4X>X2X].K F G F F G ",
"A D D A C R pX5X5X5X5X5XiXjXq.>.4   $ q l ~ | y.d.i.i.t.| _ p 9 O   v  XpX4X4X4X4X,X<XwXA.A G F G G ",
"A D D F n H.aX5X5X4X5X5XyX3Xg.{   O # p g [ i.c.n.m.m.l.t.;.f 9 &   4 #XeX5X4X4X4X,X;X>XQ.D G G G G ",
"S D F F m J.iX4X4X4X4X5XyX5Xf.{ X + & x g >.k.M.+X#XN.m.i.;.' k a   a N.4X5XyXhX2X,X:X>XQ.b G G G G ",
"F D F F C A.yX2X4X4X4X5XuX1Xs.v   + = k } f.m.N.qXhX0Xn.v...{ k $   a +XrXeX5XT.U.4X>X4XR.e A G G F ",
"F D D F S W '.4X,X4X4X4XrXjXb.*.  O : x } u.m.N.qXhX#XN.c.-.[ p & @ @ b.wXiXiXT.U.2X4X,X9.- b G G F ",
"F F F F F D 9.4X>X,X5XrXrX[.p.8.X $ : k / t.c.M.+X#X@XM.z.,.' 0 ;   V $X`.W.5X8X2X2X4X'.z > t G G G ",
"F F F F F S P ].5X4X).'.[.Q.].f.* . = p f =.x.M.M.M.N.k.d.,.g 9 +   (.sXkX].'.uX5X1X4Xw.w 2 t F G G ",
"F F F F F H B w.,XI.S.>X5XiXtX X5.  + 9 l ( y.l.b.k.j.i.,./ f : . * @X8X3X5X_.;X,X>XXXX.- 1 t F G G ",
"F F F A K W S P q.*XiX5XyXiXeXXXb.a   & k } { =.=.f.u.) g f 9 $   3.qX5X1X4X;XR.2X;Xw.w 2 y n F G F ",
"F F F S G I T B [.fX4X5X4X_.2XeXh.r.@ . & : k c / _ } O.l 9 +   L gXrX3X1X>X,X;X4X>XX.- 5 t A G G F ",
"F D F m C.F.S F L.uX1X4X:XR.5X).^.qX@X4   + & 8 9 8 p x $   % Q  XoXeX>X,X,X4XXX4XXXj > 5 B F G G G ",
"F D F S W U S F A.uXrX8X4X8X>X*XfXtXqX$XZ o .   . . .   * 3.0XsXaX`.:X4X4XXX:XT.T.T.w t Y A G G G G ",
"S F F F C Y ! C 2.pXiXiXiX_.R.iX5X5XeXgX$X(.}.U Z 4.G.4.}.gXdX7X4X4XE._.R.2XyX1XR.` - W [.F G G G F ",
"F F F F S Y T S W 4XrX4XuX/./.iX4X5X4X5X^.8XsX0XsXqXsXsX_.tX3X4X>X2X4X;X_.pX4X6X,Xj 2 B L F H G G F ",
"F F D F F F F G T &XyX5X8XY.*X5X4X4X4X4X).eXeXtXrXtXeX5X!.1X4X2X,X>X1X>X].rX4X5X_.j 5 F H G G G G G ",
"F F F F F G F F I 9.a./.].e.5X>X,X4X8XW.w.pX5X5X4X4X1X4X*XQ.4X;X>X>X:X>XY.[.{.U.0.u 5 F I G G G G F ",
"F F F F F G G G I D h o.] S.uX4X,X:X^.E.<XrX4X4X4X4X,X,X:XY.4X2X2X>X:X4X).o.$.^ s 1 V F G G G G G F ",
"F F F F F F G A m V.b - 9 ^ P.).[.{.).pXrX4X4X4X4X4X,X,X;XQ.4X:X:X4X;XT.%.u w > 2 e Z F G G G G G G ",
"F F F F F G C C.K.K B Z y - u z R.{.5X5X5X1X>X,X,X,X:X:X:XQ.:X4X2X^.%.x w > V Z - W ~.F H G G F G G ",
"F F F F F G C D.wXK S V.L < > % h O.;X5X5X,X:X>X,X:X:X;X>X^.S.,Xa.z w % 1 % L J 5 Z W F H G G F F G ",
"F F F F F F F D Z B Y A M A B.K < w ^ 9.E.5X4X,X:X:X:X;X:X^.` o.u - y K.eXZ.M n A F S H G G G F F G ",
"F D F F F F F F S G I H A K.hX[.B i < r ` q.R..X:X;X{.^.w.$.u r 5 % V.hXpXaX#.F G G I G G G F F F F ",
"F D F F F F F G G G F F A 2.oXg.b H n 3 r h ^ %.q.q.0.o.j r > y Z 5 A.9XkX_.P S I G G G G F F F F F ",
"F F F F F F F F G G G G G D z u 6 S &.D.b 6 1 r s h u e < 2 J V #.C J 0.U.%.r A I G G F G F F F F F ",
"F F F F F F F F F G G G G G C 5 b F W @.F G m 6 3 < < 5 y 1 U L n D S Z h 2 1 F H G G F F F G F F F ",
"F F F F F F F F F F G G G G I K G H F m G G G D B b b b b b b C G G G H N t b G G G G G F F F F F F ",
"A F F F F F F F F F F G G F G G G G G K G G G G G F D A A A G G G G G G I G G G G F F F F F F F F F "
};
