/* XPM */
static char *_f690fe3141f4e58e729063acd341afbP1TMARzsiezJdLmu[] = {
/* columns rows colors chars-per-pixel */
"50 50 187 2 ",
"   c #000203",
".  c #080607",
"X  c #020806",
"o  c #080806",
"O  c #00040A",
"+  c #030A0D",
"@  c #080B0F",
"#  c #18150E",
"$  c #000513",
"%  c #020B13",
"&  c #00061A",
"*  c #000B1B",
"=  c #071016",
"-  c #0B1216",
";  c #02121D",
":  c #0C141A",
">  c #121414",
",  c #161817",
"<  c #12161B",
"1  c #131B1E",
"2  c #1C1D1A",
"3  c #211E17",
"4  c #25241F",
"5  c #010E21",
"6  c #041322",
"7  c #091423",
"8  c #0C1A24",
"9  c #051529",
"0  c #0A1728",
"q  c #071A2B",
"w  c #0D1C2B",
"e  c #121C23",
"r  c #1A1F22",
"t  c #111E2C",
"y  c #091C33",
"u  c #101F32",
"i  c #0D202F",
"p  c #192023",
"a  c #16222B",
"s  c #1B242C",
"d  c #1F292F",
"f  c #0F2334",
"g  c #142434",
"h  c #1B2633",
"j  c #1C2935",
"k  c #132639",
"l  c #18273C",
"z  c #16293B",
"x  c #1C2C3C",
"c  c #1D303F",
"v  c #252624",
"b  c #242825",
"n  c #222B2C",
"m  c #2D2D2B",
"M  c #2B2C27",
"N  c #312F2A",
"B  c #2F3029",
"V  c #303026",
"C  c #30312A",
"Z  c #202731",
"A  c #222D34",
"S  c #212D3A",
"D  c #2D3234",
"F  c #2F3835",
"G  c #24313C",
"H  c #283339",
"J  c #363634",
"K  c #383735",
"L  c #353B37",
"P  c #3A3A36",
"I  c #363C3B",
"U  c #3B3F3E",
"Y  c #413E3B",
"T  c #37403C",
"R  c #3B413D",
"E  c #41413C",
"W  c #162B40",
"Q  c #1D2E42",
"!  c #1D3243",
"~  c #202F42",
"^  c #243343",
"/  c #2A3746",
"(  c #2C3944",
")  c #24354B",
"_  c #283548",
"`  c #27394A",
"'  c #2C3C4B",
"]  c #3C3E41",
"[  c #313D4A",
"{  c #233950",
"}  c #2B3D51",
"|  c #333F51",
" . c #413F40",
".. c #2F414D",
"X. c #3B4141",
"o. c #33414C",
"O. c #3A434B",
"+. c #274056",
"@. c #2D4051",
"#. c #2C455B",
"$. c #344353",
"%. c #3A4655",
"&. c #374852",
"*. c #3C4A56",
"=. c #34465B",
"-. c #394759",
";. c #33485D",
":. c #3B4B5B",
">. c #3E505C",
",. c #3C4D63",
"<. c #3F4F69",
"1. c #324A62",
"2. c #3D5264",
"3. c #3F596E",
"4. c #3F556D",
"5. c #424340",
"6. c #474B4A",
"7. c #434C57",
"8. c #414E5C",
"9. c #45525D",
"0. c #4A5459",
"q. c #414E64",
"w. c #445364",
"e. c #495664",
"r. c #455967",
"t. c #4C5965",
"y. c #44546C",
"u. c #49566B",
"i. c #465A6B",
"p. c #4B5B6B",
"a. c #515B65",
"s. c #525E6B",
"d. c #455671",
"f. c #4B5772",
"g. c #465973",
"h. c #4B5B74",
"j. c #4C5D79",
"k. c #515F74",
"l. c #505E78",
"z. c #4E616F",
"x. c #556066",
"c. c #53626E",
"v. c #59616C",
"b. c #466071",
"n. c #4C6073",
"m. c #4D6378",
"M. c #536373",
"N. c #5A6673",
"B. c #556877",
"V. c #5B6975",
"C. c #52647A",
"Z. c #5B6778",
"A. c #576878",
"S. c #556A7A",
"D. c #5E6E7E",
"F. c #5A6A7A",
"G. c #616E7D",
"H. c #63717C",
"J. c #566E83",
"K. c #5C6E82",
"L. c #5D7184",
"P. c #5B7289",
"I. c #5F788C",
"U. c #636F81",
"Y. c #627283",
"T. c #647485",
"R. c #687584",
"E. c #6A7984",
"W. c #64758A",
"Q. c #63758A",
"!. c #637A8D",
"~. c #69798A",
"^. c #6B7B8C",
"/. c #717D8D",
"(. c #657C92",
"). c #6C7D93",
"_. c #707F92",
"`. c #6E818F",
"'. c #71818E",
"]. c #6D8195",
"[. c #658093",
"{. c #718394",
"}. c #748493",
"|. c #74849A",
" X c #77889C",
".X c #7A8B9B",
"XX c #7C8DA1",
/* pixels */
"u.f.d.h.g.d.h.i.p.e.a.t.*.~ y & x o.( v.s.s.e.s.s.j 9.8.t ( *.G A % w / e.p.f.f.h.f.g.d.h.4.g.y.g.g.",
"f.f.y.j.g.j.g.i.w.s.9.S h g C.K.u.r.j x c.p.t.t.s.' 7 t *.v.G e.H.T.t.* x %.:.f.y.f.y.d.h.y.g.g.g.g.",
"f.u.h.d.g.g.y.h.u./ * 6 U.~.Q.K.! M.' 0 u.u.M.p.u.p.%.p.M.o.* M.^.M.' w.0 $ 7 u.h.h.f.y.d.h.g.g.g.g.",
"d.l.y.d.h.y.C.} q $.' g Y.^.).} z Y.~.z :.A.%.w.F.p.F.' w.z ^ .X,.9 :.).p.Z.$.0 ' w.y.y.h.d.g.j.g.g.",
"j.q.y.l.y.h.,.z } D.m.@.w.~.Y.^.w.} XX,.6 ^ q q ^ :.:.@.Q $.{.K.Q.W.W.W.~.F.' *.$.6 u.h.y.j.d.h.g.g.",
"d.g.j.w.M.^ g u.C.y.i.g.w w./.G.D.D.M.}.w.$ :.:.^ 6 ' p.g A.Y.{.).<.h.|.M.7 ..p.p.G ; _ C.y.d.h.g.g.",
"g.d.f.k.' * e.M.i.g.g.m.$.6 s.[ x z / ~.'.x :.M.Z.w.M.' p.}.F.w.} } T.F.6 ' *.*.F.' $ u ,.y.h.f.g.g.",
"d.h.u.%.6 9.M.r.p.n.n.y.M.( e 0.N.v.N.s.N.( e 9.*.8.9.G e.V.8.t :.F.}.$.g F.u.p.c.:.$.-.l q.u.y.f.g.",
"d.h.<.* 7 a.M.u.p.g.n.n.r.; O O     O   O   O   O   O   O O O % $ ; j ^ p.M.' -.h.p.M.M.7 x M.w.y.f.",
"d.h.5 ^ *.S *.s.u.i.i.i.s.%                                   O   O a s.w.s._ | C.y.C.:.g 7 ' z.f.g.",
"m.} y :.Z.c.* *.M.M.c.s.s.: O                                   X X 0.x.s.Z.w.q.u.l.g z ' ' x u.y.y.",
"w.9 -.F.' F.w.6 j s e a n D J I J K K K K K K K J J J K K K K J L L b 1 = * ' M.M./ 5 ' $.E.&...g.d.",
"w.x F.{.L.M.^.9.8 O     < X.X.5.E E E E E E E E U U U E E E E E 5.L - O   % j G.%.6 T.w.M.}.:.w m.h.",
"j ^ ].K.i.L.^..XH   X   , K R U U U U U U U U U R U U U R R U U K E ,   O   A s a t.E.}.^.T.L.) ,.h.",
"j M.W.W.=.} :.u.H p m 4 K U U I R R X.U ] U ] U X.U ] U X.R ] U U I J b m 1 + X A E.E.' ' M.|.y ) h.",
"S t.~.F.Q.i.* O 1 L 5.Y E U U X.R X.X.X.X.X.X.X.X.U U U X.X.X.] U U U R 6.b     + 0.j o.:.k.T.-.Q C.",
": O $ $ * * +   > J K Y U U R R U U U U U U U U U U U U U U U U U 5.U ] X.2     o   % % % * O O t p.",
"A %.* $ $ Z r   2 U U  .] U U R U U U U U U U U U U U U U U U U U U I I X.m 3 #   2 O.o.o.( O.7.j -.",
"$ s h N.Z.7.:   v E U ] ] U U U U U U U U U U U U U U U U U U U U E X.T 5.R P N   > a.g ^ ^ w t./ %.",
"h &.^.U.^.E.= X b 5.U ] ] ] T T R U U U U U U U U U U U U U U R U R R T X.R E m   - %.:.W.W.M.$ * *.",
"*.}.T.T.Y.R.d   b R U ] ] X.X.T R U U U U U U U U U U U U U U R R R T T R I P M   - /.W.L.Q.).M.g *.",
"8.'._.{.~.}.d   b 5.U ] ] X.X.R R U U U U U U U U U U U U U U R E R T T X.R E C   : R.^.XX).Q.XX*.-.",
"w S x Q ^ S % X b X.U ] ] ] X.R R U U U U U U U U U U U U U U R U L I I R U U C   O / l k Q ^ x 7 %.",
"% 6 * & $ 7 O   b E U ] ] ] R R R U U U U U U U U U U U U U U U U R X.I X.R R N     * 6 6 5 * * 5 :.",
"( N.Z.| ^ [ e   v E U ] ] U R R U U U U U U U U U U U U U U U U U U X.U R U E N   @ s.w.x f c.N._ %.",
"o.s.g ^ s.7.:   v E U Y U U R R R U U U U U U U U U U U U U U U U U X.U ] U E N   > G s :.w G N.x %.",
"( 9.* %.s.v.p   v E U U U U R R R U U U U U U U U U U U U U U U U U ] U ] U E N   > a.t.c.M.% a.^ -.",
"( v.[ | s.s.1 X v E U U U U R R R U U U U U U U U U U U U U U U U U ] U U U E N   @ t.c.>.$.o.9./ $.",
"[ F.M.Z.M.N.-   b E U ] ] U R R R U U U U U U U U U U U U U U U U U X.U R U E N . @ N.p.B.i.M.F.^ $.",
"0 x ~ l x G e   b 5.U ] ] ] R R U U U U U U U U U U U U U U U U U U R T R U E N   + j z Q ! x z g %.",
"' M.-.y.w.u.8 X b X.U ] ] ] R R R U U U U U U U U U U U U U U R U U R T R U R m   : 8.y.g.4.g.p.z %.",
"' 2.;.).].{.a X b X.U ] ] ] R R U U U U U U U U U U U U U U U R U U R T R U R m   % ^.).P.1.,.^.-.8.",
"^ :.C.(.Q.T.s   b 5.U X.X.X.R R U U U U U U U U U U U U U U U U U U R T X.U E B   = T.Q.J.#.;.` w w.",
"w.].I.P.J.`.a   b 5.U X.X.R R U U U U U U U U U U U U U U U U U U U R T X.U E B   - T.P.!.[.(.K.^ 8.",
":.^.].I.!.{.j   b 5.U X.X.R R U U U U U U U U U U U U U U U U U U U R T X.U E B   : ~.(.!.!.(. X$.w.",
"' F.i.m.n.M.= @ b 5.U X.X.R R U U U U U U U U U U U U U U U U U U U R T X.U E B   - w.C.S.n.m.C.S e.",
"w z x f ! x %   b E U R X.R R U U U U U U U U U U U U U U U U U U U R T X.U E C   X z z k z x l w w.",
"o.M.M.M.i.c.p   b E U R X.X.R U U U U U U U U U U U U U U U U U U U R T X.U E C   % M.C.n.M.p.F.^ 8.",
"h M.p.i.A.v.<   b 5.U R X.X.R U U U U U U U U U U U U U U U U U ] U R T X.U E V X O e.p.y.z.p.M./ w.",
"e S ` p.x *.s   b 5.U X.X.X.R U U U U U U U U U U U U U U U U U ] U R T X.U E V   : s.n.p.p.p.| 7 e.",
"*.8.$.i $.w.1   b 5.U ] ] ] U U U U U U U U U U U U U U U U U U ] U R T X.U E V   @ p.A.c 6 $.e.g w.",
"O.V.M.p.u.Z.r   b 5.U ] ] ] R U U U U U U U U U U U U U U U U U ] U R T X.U E V   % p.n.M.M.w.F./ w.",
"( w.:.w.w.w.:   b 5.U ] X.X.R U U U U U U U U U U U U U U U U U U U R T X.U E C   + 8.2.2.r.w.u.h w.",
"t x x z z x % @ b 5.U ] X.R R U U U U U U U U U U U U U U U U U U U R T X.U E C   X x z ! k l Q t w.",
"M.~.!.(.~.'.s   b E U R X.R R U U U U U U U U U U U U U U U U U U U R T X.U E B   - T.(.!.!.^.).' w.",
"$.p.J.J.Q.^.s   b E U R R R R U U U U U U U U U U U U U U U U U U U R T X.U E B   % ~.(.g.b.(.).' w.",
"x } ;.3.Q.T.a   b 5.U R X.R R U U U U U U U U U U U U U U U U U U U R T X.U E B   1 K.P.(.3.;.C.z w.",
"u.^.C.(.Q.^.a   b 5.U X.X.R R U U U U U U U U U U U U U U U U U U U R T X.U E B X O ~.P.(.2.y F.z 8.",
"u.^.].(.].~.j   b 5.U X.X.X.U U U U U U U U U U U U U U U U U U U U R T R U E N   : R.(.(.[.!..X$.w.",
"j ' ) ! ` o.=   b 5.U X.] X.U U U U U U U U U U U U U U U U U R U U R T R U E N     [ ) { +.! ` k :."
};
