/* XPM */
static char *_af649138b1f4d9ea9b64f478620d0d6y8Iw1Bh5wVVl0Lun[] = {
/* columns rows colors chars-per-pixel */
"50 50 158 2 ",
"   c #2F5583",
".  c #335983",
"X  c #345E8A",
"o  c #39638E",
"O  c #376596",
"+  c #386695",
"@  c #3E6A95",
"#  c #3E6D9B",
"$  c #486C8E",
"%  c #426C95",
"&  c #436E9B",
"*  c #46729C",
"=  c #4B759D",
"-  c #4C789E",
";  c #577796",
":  c #5B7E9E",
">  c #4676A4",
",  c #4A76A1",
"<  c #4D7AA3",
"1  c #527DA4",
"2  c #527FA9",
"3  c #5480A6",
"4  c #5C84A6",
"5  c #5682AA",
"6  c #5B85AB",
"7  c #5B88AD",
"8  c #5E8CB2",
"9  c #6285A2",
"0  c #6B87A2",
"q  c #648CAC",
"w  c #698FAD",
"e  c #6C92AF",
"r  c #638EB1",
"t  c #6692B3",
"y  c #6B94B4",
"u  c #6D99B7",
"i  c #6593BA",
"p  c #6D97B9",
"a  c #6E9BBB",
"s  c #7396B3",
"d  c #739AB5",
"f  c #7B9DB5",
"g  c #7097B9",
"h  c #749CBB",
"j  c #7A9FBA",
"k  c #75A1BD",
"l  c #7CA3BD",
"z  c #759FC1",
"x  c #7BA5C2",
"c  c #7FAAC5",
"v  c #88A1B7",
"b  c #82A4BD",
"n  c #8AA7BC",
"m  c #84A9BE",
"M  c #83AAC4",
"N  c #8BAEC4",
"B  c #83ACC9",
"V  c #89AFC9",
"C  c #95AEC0",
"Z  c #87B0C6",
"A  c #8DB1C5",
"S  c #8DB3CA",
"D  c #93B2C6",
"F  c #9BB6C6",
"G  c #93B5CA",
"H  c #99B6C8",
"J  c #94B9CE",
"K  c #9BBBCE",
"L  c #8AB7D0",
"P  c #8DB8D2",
"I  c #92B7D0",
"U  c #95BCD3",
"Y  c #9CBED1",
"T  c #A5B8C7",
"R  c #A1BDCE",
"E  c #A8BBC8",
"W  c #A0BDD1",
"Q  c #92C2D6",
"!  c #9DC2D5",
"~  c #9CC3D8",
"^  c #9BC9DE",
"/  c #A7C0CF",
"(  c #ACC3CF",
")  c #A4C3D4",
"_  c #AAC6D4",
"`  c #ACC9D6",
"'  c #A1C6D9",
"]  c #A8C7D9",
"[  c #A5C9DB",
"{  c #ACCBDB",
"}  c #B2C7D3",
"|  c #B2CAD5",
" . c #BACCD6",
".. c #B3CDDA",
"X. c #B9CED9",
"o. c #ABD0DF",
"O. c #B5D2DE",
"+. c #BBD3DD",
"@. c #BED8DF",
"#. c #A6CEE0",
"$. c #A8CEE1",
"%. c #A4D2E4",
"&. c #ACD1E2",
"*. c #B3D5E2",
"=. c #BBD6E1",
"-. c #B6D8E5",
";. c #BCDAE4",
":. c #B3DBEA",
">. c #C3D0D7",
",. c #C3D6DE",
"<. c #CAD6DC",
"1. c #C6D9DF",
"2. c #C9D9DE",
"3. c #C1D6E0",
"4. c #C3DBE3",
"5. c #CCDDE3",
"6. c #C4DEE8",
"7. c #D1DFE3",
"8. c #C7E0E7",
"9. c #CDE1E5",
"0. c #C7E1E9",
"q. c #CCE2E9",
"w. c #D3E2E5",
"e. c #DAE5E6",
"r. c #D5E4E9",
"t. c #DAE6E9",
"y. c #D4E8ED",
"u. c #DDE8EA",
"i. c #D2EBF3",
"p. c #D8E8F0",
"a. c #E0E7E7",
"s. c #E1E8E7",
"d. c #E2EBEB",
"f. c #E9EEEC",
"g. c #E6F0EF",
"h. c #E9F0EF",
"j. c #EEF0EC",
"k. c #EDF1EF",
"l. c #F1F3EF",
"z. c #F2F4EF",
"x. c #E2EEF0",
"c. c #E4EEF1",
"v. c #E5F0F1",
"b. c #EAF1F0",
"n. c #EDF1F1",
"m. c #ECF2F1",
"M. c #EFF3F4",
"N. c #F3F5F2",
"B. c #F4F5F3",
"V. c #F7F7F2",
"C. c #F6F7F4",
"Z. c #F8F7F2",
"A. c #F7F9F3",
"S. c #F7F8F7",
"D. c #F9F9F3",
"F. c #F8FAF5",
"G. c #F2F6F9",
"H. c #F7F9F8",
/* pixels */
"G.H.V.D.V.V.s.a.N.V.V.A.z.k.k.u.u.S.Z.V.f.w.u.a.d.e.k.k.t.M.C.l.5.t.r.h.S.C.C.V.l.N.C.V.h.h.k.A.F.w.",
"S.d.u.s.u.u.s.k.f.s.s.s.s.f.s.4.x.f.s.s.5.G { =.+.w.u.K X.n.s.t.V ] 6.d.k.t.t.u.s.s.u.u.h.h.s.u.u.! ",
"f.e.e.e.e.e.e.e.e.u.e.e.e.e.e.u.s.e.e.5.M N u.` N N G , n 5.5...q S *.u.s.e.e.e.e.e.e.e.e.e.e.e.5.S ",
"w.e.e.e.e.e.e.7.( 5.t.t.u.e.t.t.e.e.e._ 7 D u.J 3 7 > # 3 k g 1 & W u.4.e.t.e.e.e.e.e.e.e.w.e.e.X.l ",
"+.e.e.e.7.5.X.D 4 f R n >.t.u.e.e.e.e.5.l 5 p 5 , t a 6 y h < @ > | d.+.F ,.+.,.5.e.e.e.e.e.w.w.5.G ",
"k.s.e. .e q y t * o % ; <.s.t.e.e.e.e.e.G < < < 7 M ' Y U Y V u i I _ ..y e k t 9  .e.e.e.e.w.w.,.G ",
"k.e.e.5.w . % & + O O v h.u.t.w.5.t.e.w.G 4 s G M G +...+.4.@.` ! U y r , o @ . 9 e.e.e.w.w.e.w.| x ",
"X.,.w.+.l % & , 1 5 < b +.4.3.N n 5.4.) x 1 h +.@.+.4.O.4.q.4.4.+.{ G 7 , = @ X E k.e.e.e.w.w.w.+.k ",
") l l k 6 = 5 r g h b S l j h 1 = j l t 1 - y ..9.9.+.4.9.q.5.q.4.4.+.{ G h q t ,.f.e.e.r.e.e.w.5.J ",
"u.) g 1 = 1 r j N ) ` _ K y = @ @ * < & = 6 j X.9.4.4.9.q.5.4.4.4.4.5.w.O.{ J Y ) ] +.X.X.X.w.e.1.B ",
"5.J { Z q y M ' O.3.=.4.O.K h r r 8 5 6 r g N +.t.r.q.9.q.q.r.9.4.4.w.4.4.4.+.) J y u 7 * 0 7.r...g ",
"r.t.c.4.D ) ..O.;.+.4.q.5.4.=.' K J J H D D _ 1.t.u.9.q.w.k.k.d.u.d.d.u.r.4.;.O.' M < +   T s.e.,.N ",
"F.N.k.e.5.d.u.4.=.4.q.q.5.q.5.4.w.t.e.5.5.5.5.w.t.s.u.r.d.d.t.t.t.u.e.e.t.e.=.4.;.{ c 1 & } e.e.w.) ",
"k.u.e.u.k.l.n.+.{ ;.q.5.4.4.;.w.d.s.u.u.u.w.e.t.u.u.u.u.s.t.t.t.e.e.t.r.r.e.+.+.4.;.O.U x ) 5.e.4.S ",
"e.e.e.u.u.u.,.M M ..9.9.q.q.4.d.s.s.u.u.t.e.7.e.u.u.u.u.u.t.t.e.e.e.e.e.e.e.X.+.9.;.;.*.{ ..+.) b q ",
"b.e.e.e.e.e.+.M q J 5.9.9.q.9.f.s.s.u.u.t.t.t.t.u.u.u.u.t.t.t.e.e.e.e.e.e.e.R O.4.4.;.=.O.` G x j f ",
"f.e.e.e.u.t.w.G 6 b 4.5.9.5.r.d.u.u.u.u.t.t.t.u.u.u.u.u.u.u.e.e.e.e.e.e.e.4.J =.q.+.9.4.O.{ ) ..t._ ",
"u.e.e.}  .5.` M 5 g ` q.q.9.d.u.t.u.u.u.u.u.u.u.u.u.u.u.t.u.t.e.e.e.e.e.e.4.` 4.4.;.=.*.=.4.q.4.X.D ",
"+.,.,.t 1 h a 6 1 p Y 4.q.d.s.t.u.u.u.u.u.u.u.u.u.u.u.u.t.t.t.t.7.t.t.t.t.t.w.=.4.q.;.;.;.q.u.d.w.R ",
"s.t.X.6 X @ & , 7 p G 9.d.u.t.u.u.u.u.u.u.u.u.u.u.u.u.t.t.t.u.u.r.r.t.e.e.r.r.5.;.8.;.=.;.w.V.l.f.+.",
"l.t.,.w * 2 6 r t l } e.u.t.t.u.e.w.u.u.u.u.u.u.u.u.t.t.t.t.t.t.t.t.t.e.r.e.e.e.+.O.;.*.*.5.f.e.e.O.",
"u.r.X.4 < z S J J X.2.e.e.t.t.t.5.u.u.u.u.u.u.u.u.u.t.t.t.t.t.t.t.t.t.r.r.e.e.w.' *.-.-.;.4.d.e.w._ ",
"h.u._ s p S { +.9.t.e.e.e.t.t.e.r.d.u.u.u.u.u.t.t.t.u.t.t.t.t.t.r.r.t.r.e.e.e.,.{ ;.y.d.t.h.d.w.5.G ",
"l.u.e.u...[ *.4.r.u.e.e.e.e.e.w.u.d.u.u.u.u.u.u.u.u.u.t.t.t.t.t.t.r.r.r.e.e.w...*.q.b.V.l.f.e.w.,.M ",
"f.e.e.e.K G *.4.5.t.t.t.e.t.t.t.u.u.u.u.u.u.u.u.u.u.t.t.t.t.t.t.t.r.r.e.e.e.w.O.&.q.N.t.e.e.w.w.5.G ",
"d.t.e.4.M y ' ;.;.,.e.t.t.t.t.t.t.t.t.t.u.u.u.u.u.u.u.t.t.t.t.t.t.r.r.e.e.w.w.O.$.4.f.t.r.e.e.w.w.O.",
",.| R S j 5 B 4.u.| +.t.t.t.t.t.t.t.t.t.t.u.u.u.u.u.u.t.t.t.t.t.r.w.e.r.w.w.w.| &.O.,.,.5.5.e.w.9.) ",
"D w 1 r 5 5 a _ +.O.5.e.t.t.t.t.t.t.t.t.t.u.u.u.t.t.t.t.t.t.t.t.r.w.1.5.w.w.5.) *.{ x a y C e.w.X.l ",
",._ 4 = < 8 h J =.q.u.e.e.t.t.t.t.t.t.t.t.t.t.t.t.t.t.t.t.r.r.r.r.t.r.w.w.w.5.{ ;.{ S 1 $  .t.w.5.J ",
"e.N 6 7 z M S Y +.u.u.t.t.r.t.t.t.t.t.t.t.t.t.t.t.t.t.t.r.r.r.r.r.r.e.w.w.w.9.{ ;.=.' k b f.t.e.w.' ",
"4.W M M Y { { ` 5.t.u.t.r.r.r.r.t.t.t.t.t.t.t.t.t.t.r.r.r.r.r.r.e.e.w.w.w.w.| ' ;.=.=.Y ! | ` X.K x ",
"p.c.u.4.O.O.+.;.r.t.t.r.e.r.r.r.r.r.r.r.t.t.r.r.r.r.r.r.r.r.r.e.w.w.w.w.w.w.=.*.;.*.) Y ! j y 6 < i ",
"S.n.f.s._ ..*.4.e.e.e.e.e.e.e.r.r.r.r.r.r.r.r.r.r.r.r.r.r.r.r.e.r.w.w.w.w.w.r.;.*.;.*.&.~ B t r x M ",
"l.e.e.5.N G *.=.e.r.e.e.w.e.w.w.r.r.r.r.r.r.r.r.r.r.r.w.w.w.r.r.e.e.w.w.w.w.w.4.{ +.=.=.&.{ O.w.4.~ ",
"7.w.e.4.l r ~ *.,.5.e.r.w.w.w.w.e.r.r.r.r.r.w.w.r.w.w.w.w.w.w.w.w.w.w.9.9.9.w.,.' =.*.*.{ =.5.c.5.x ",
"' 5.w.J q 5 B ;.O.K H 7.w.w.w.w.w.w.r.w.r.t.t.w.5.w.w.w.w.w.w.w.w.w.w.9.w.w.9._ O.=.=.*.{ { ` G h 3 ",
"f.d.5.l - 5 h { 8.O.Y ,.w.w.w.w.w.w.w.w.w.e.w.w.5.5.w.w.w.w.w.w.w.4._ _ O.+.) [ =.;.4.*.O.;.4.) d g ",
"z.e.e.) 1 5 a U { O.;.4.w.w.w.w.w.w.w.w.w.w.w.w.w.w.w.w.9.9.9.9.5.G M U ! ' { ;.=.;.*.;.q.y.v.V.d...",
"f.w.7.G 1 6 x U o.;.=.4.w.w.w.w.w.w.w.w.w.w.w.w.w.w.w.9.9.9.9.w.+.N { ;.;.;.;.*.O.*.=.y.b.N.k.s.e.) ",
"e.w.e._ w l X.=.*.*.=.=.=.r.r.w.w.w.w.w.9.9.9.9.9.9.9.9.9.9.w.9.Y ' ;.;.4.;.-.*.4.*.;.g.n.t.e.w.+.A ",
"5.e.e.e.2.u.N.d.4.&.*.=.` ..4.,._ ) =.r.9.9.9.9.9.9.9.5.9.5.=.U P *.;.*.&.&.*.*.&.#.-.u.s.w.w.w./ f ",
"f.u.e.e.s.f.d.d._ ) &.;.=.] Y Y ' ' { 5.w.9.9.9.9.5...J ~ U L U &.-.*.&.4.9.4.*.*.-.O.5.e.w.7.7.1.D ",
"d.w.w.e.e.e.e.4.M h ~ *.*.-.=.;.;.6.*.' 3.9.9.9.4.] Q %.&.&.&.*.&.&.#.q.b.V.d.q.r.r.w.k.s.7.7.7.w.' ",
"f.e.7.w.e.w.w.4.l - J 6.q.4.*.*.-.;.-.*.' ) ' { ' ^ :.i.x.t.w.w.-.&.;.u.N.d.s.f.k.V.D.k.w.5.5.7.1.D ",
"z.e.7.w.w.w.w.5.b s 4.b.n.t.=.&.;.{ *.-.*.[ ~ ' #.&.q.G.V.k.N.n.4.0.u.N.s.w.w.e.e.u.e.7.5.w.7.5.F d ",
"l.w.7.7.w.w.w.w.5.d.z.N.k.d._ ~ $.*.-.-.-.&.&.&.$.*.r.k.e.e.e.e.r.k.V.f.w.w.w.w.w.7.5.5.5.5.5.5.,.A ",
"u.7.7.w.w.w.w.w.r.t.r.e.e.5.l M ;.*.&.;.4.;.6.y.q.;.4.u.e.e.w.w.w.e.e.7.7.7.w.7.5.5.5.5.w.5.5.9.+.m ",
"d.w.7.w.w.w.w.w.w.w.w.w.9.` y G r.5.q.r.d.d.v.V.f.*.' Y | / ,.w.9.9.w.9.w.w.7.5.5.9.w.9.7.w.7.5.+.A ",
"n.e.w.5.5.5.4.w.w.w.5.+.+.s y 3.x...r.b.n.d.h.u.w.J ' g 1 : ,.r.w.5._ +.w.9.5.5.5.+.,.w.5.+.5.w.5.K ",
";.| | N s f l _ X._ K e q D ' G ] j +.3.5.5.X.+.+.g ! U h b +.+.,.) q l _ K G ) J q s _ R 9 b +.) Z "
};
