/* XPM */
static char *ad91234500204f5bfab0a9c4f1bc5c447q2Xbfah1TY1FzNv[] = {
/* columns rows colors chars-per-pixel */
"50 69 104 2 ",
"   c #0C3F18",
".  c #302F19",
"X  c #30301A",
"o  c #471F07",
"O  c #461F08",
"+  c #46220D",
"@  c #4B230B",
"#  c #4F280F",
"$  c #50280E",
"%  c #4E2614",
"&  c #4E2B15",
"*  c #522E16",
"=  c #582F14",
"-  c #562D1B",
";  c #582E1C",
":  c #553017",
">  c #5A3116",
",  c #573118",
"<  c #5C341A",
"1  c #61371C",
"2  c #62381C",
"3  c #0C4019",
"4  c #1C5617",
"5  c #1C5518",
"6  c #1E5819",
"7  c #21571A",
"8  c #3E5B2E",
"9  c #467C2E",
"0  c #497E30",
"q  c #3F9725",
"w  c #3F9825",
"e  c #409725",
"r  c #429926",
"t  c #479F28",
"y  c #4A9C29",
"u  c #529E2B",
"i  c #4E8531",
"p  c #518537",
"a  c #528834",
"s  c #598C3D",
"d  c #4BA42A",
"f  c #4FA82B",
"g  c #59A12D",
"h  c #54AE2D",
"j  c #54B02D",
"k  c #5AB12F",
"l  c #50A433",
"z  c #55AC32",
"x  c #5CAB30",
"c  c #5BB231",
"v  c #5DB338",
"b  c #60A32F",
"n  c #65A631",
"m  c #65AD33",
"M  c #6DAF34",
"N  c #64AF3E",
"B  c #74AB35",
"V  c #78AC36",
"C  c #63B436",
"Z  c #6BB635",
"A  c #65B639",
"S  c #66BA3A",
"D  c #69BB3A",
"F  c #73B537",
"G  c #77B939",
"H  c #6EC13C",
"J  c #72C63E",
"K  c #73C83E",
"L  c #649443",
"P  c #6B9B46",
"I  c #72A445",
"U  c #61B141",
"Y  c #6EBA42",
"T  c #73C444",
"R  c #76CA42",
"E  c #73C24B",
"W  c #7DCE4A",
"Q  c #81AF39",
"!  c #83B03A",
"~  c #8AB23C",
"^  c #87B83F",
"/  c #93C143",
"(  c #80D04B",
")  c #8FD84F",
"_  c #90D84F",
"`  c #85CF50",
"'  c #91CB5E",
"]  c #92CD5E",
"[  c #8BD553",
"{  c #8AD754",
"}  c #91DB50",
"|  c #93DE51",
" . c #94DF51",
".. c #95D65B",
"X. c #96DA5A",
"o. c #98DF58",
"O. c #A1C548",
"+. c #96E152",
"@. c #99E357",
"#. c #9AE656",
"$. c #9BEA55",
"%. c #9DEC56",
"&. c #98E058",
"*. c #90C660",
/* pixels */
"*.X.$.$.$.$.#.} _ _ _ _ _ _ _ _ _ } #.$.$.$.| ) } #. .| #.| ) | #.$.$.$.$.$.$.$.$.$.$.$.$.$.$.$.X.*.",
"X.` T D S D S A C C C C D H H H H H J J J J H H D D A A S A C A S D D D S H J J J J J J J J J W [ X.",
"$.T y e q q q q q e e q d h h h h h h h h h h h f r q q q q e e q q q q q d h h h h h h h h h v W $.",
"#.D e r r r r y r r r r d h h h h h h h h h h h h t r r r r r r r r r r r d h h h h h h h h h h K $.",
"] N q r r w u ~ n w r r d h h h h h h h h h h h h t e r r r r r r r r r r d h h h h h h h h h h J $.",
"..A e r r r y B g r r r d h h h h h h h h h h h h t r r r r r r r r r r r d h h h h h h h h h h J $.",
"$.D q r r r r r r r r r d h h h h h h h h h h h h t r r r r r r r r r r r d h h h h h h h h h h J $.",
"$.D q r r r r r r r r r d h h h h h h h h h h h h t r r r r r r r r r r r d h h h h h h h h h h J $.",
"$.D q r r r r r r r r r d h h h h h h h h h h h h t r r r r r r r r r r r d C / Z h h h h h h h K $.",
"X.D t d d d d d d d d d d d d d d d d d d d d d d d d d d d d d d d d d d d x ^ m d d d d d d d H $.",
"' Y h h h h h h h h h h d r r r r r r r r r y y t h h h h h h h h h h h h d r r r r r r r r r e D $.",
"@.J h h h h h h h h h h d r r r r r r r r r ! V t h h h h h h h h h h h h d r r r r r r r r r q D $.",
"$.K h h h h h h h h h h M B y r r r r r r r n b t h h h h h h h h h h h h d r r r r r r r r r q D $.",
"$.J h h h h h h h h h h F Q y r r r r r r r r r t h h h h h h h h h h h h d r r r r r r r r r q S o.",
"$.J h h h h h h h h h h d r r r r r r r r r r r r h h h h h h h h h h h h d r r r r r r r r r r N ' ",
"$.J h h h h h h h h h h d r r r r r r r r r r e r h h h h h h h h h h h h d r r r r r r r r r q S &.",
"$.K h h h h h h h h h h d r r r r r r r r r r r t h h h h h h h h h h h h d r r r r r r r r r q S +.",
"#.J f h h h h h h h h h d t t t t t t t t t t t t d h h h h h h h h h h h d t t t t t t t t t r S | ",
"} A r r r r r r r r r r d h h h h h h h h h h h f t r r r r r r r r r r r d h h h h h h h h h h J #.",
"_ C q r r r r r r r r r d h h h h h h h h h h h h r e e r r r e r r r r r d h h h h h h h h h h J  .",
"_ A e r r r r r r r r r d h h h h h h h h h h h h t r r r r r r r r r r r d h h h h h h h h h h H | ",
"_ A e r r r r r r r r r d h h h h h h h h h h h h t r r r r r r r r r r r d h h h h h h h h h h J $.",
"_ A e r r r r r r r r r d h h h h h h h h h h h h t r r r r r r r r r r r d h h h h h h h h h h K $.",
"+.S q r r r r r r r r r d h h h h h h h h h h h h t r r r r r r r r r r r d h h h h h h h h h h J +.",
"$.D q r r r r r r r r r d h h h h h h h h h h h h t r r r r r r r r r r r d h h h h h h h h h h H | ",
"$.D r r r r r r r r r r d h h h h h h h h h h h h t r r r r r r r r r r r d h h h h h h h h h h J #.",
"$.J d f f f f f f f f f d t t t t t t t t t t t d d f f f f f f f f f f f d t t t t t t t t t t D | ",
"$.K h h h h h h h h h h d r r r r r r r r r r r t h h h h h h h h h h h h d r r r r r r r r r q C ) ",
"$.J h h h h h h h h h h d r r r r r r r r r r r r h h h h h h h h h h h h d r r r r r r r r r e A } ",
"$.J h h h h h h h h h h d r r r r r r r r r r r t h h h h h h h h h h h h d r r r r r r r r r q D #.",
"$.J h h h h h h h h h h d r r r r r r r r r r r t h h h h h h h h h h h h d r r r r r r r r r q D $.",
"$.R z h h h k F C h h h d r r r r r r r r r r r t h h h h h h h h h h h h d r r r r r r r r r r D $.",
"$.( A j h h C O.G h h h d r r r r r r r r r r r t h h h h h h h h h h h h d r r r r r r r r r l T $.",
"%.{ E S c h k Z c h j j d r r r r r r r r r r r t h j j j j j j j j j j j d r r r r r r r t z U W %.",
"I P L s a i i i i i i i i 9 9 9 9 9 9 9 9 9 9 9 9 i i i i i i i i i i i i i 9 9 9 9 9 9 9 0 p s L I ",
"8 8 8 8 8 8 8 8 8 8 8 8 8 8 8 8 8 8 8 8 8 8 8 8 8 8 8 8 8 8 8 8 8 8 8 8 8 8 8 8 8 8 8 8 8 8 8 8 8 8 ",
"7 7 7 7 7 7 7 7 7 7 7 7 7 7 7 7 7 7 7 7 7 7 7 7 7 7 7 7 7 7 7 7 7 7 7 7 7 7 7 7 7 7 7 7 7 7 7 7 7 7 ",
"6 6 4 4 4 4 4 4 4 4 4 4 4 4 4 4 4 4 4 4 4 4 4 4 4 4 4 4 4 4 4 4 4 4 4 4 4 4 4 4 4 4 4 4 4 4 4 4 6 6 ",
"6 6 6 6 6 6 6 6 6 6 6 6 6 6 6 6 6 6 6 6 6 6 6 6 6 6 6 6 6 6 6 6 6 6 6 6 6 6 6 6 6 6 6 6 6 6 6 6 6 6 ",
"5 5 5 5 5 5 5 5 5 5 5 5 5 5 5 5 5 5 5 5 5 5 5 5 5 5 5 5 5 5 5 5 5 5 5 5 5 5 5 5 5 5 5 5 5 5 5 5 5 5 ",
"3 3                                                                                             3 3 ",
"X X . . . . . . . . . . . . . . . . . . . . . . . . . . . . . . . . . . X X X . . . . . . . . . X X ",
"; - - - - - - - - - - - - - - - - - - - - - - - - - - - - - - - - - - - % % % - - - - - - - - - - ; ",
"2 2 1 1 1 1 1 1 1 1 1 1 1 1 1 1 1 1 1 1 1 1 1 1 1 1 1 1 1 1 1 1 1 1 2 < @ o @ < 2 1 1 1 1 1 1 1 2 2 ",
"2 2 2 2 2 2 2 2 2 2 2 2 2 2 2 2 2 2 2 2 2 2 2 2 2 2 2 2 2 2 2 2 2 2 2 2 < > < 2 2 2 2 2 2 2 2 2 2 2 ",
"2 2 2 2 2 2 2 2 2 2 2 2 2 2 2 2 2 2 2 2 2 2 2 2 1 = > 2 2 2 2 2 2 2 2 2 2 2 2 2 2 2 2 2 2 2 2 2 2 2 ",
"2 2 2 2 2 2 2 2 2 2 2 2 2 2 2 2 2 2 2 2 2 2 2 2 < @ = 2 2 2 2 2 2 2 2 2 2 2 2 2 2 2 2 2 2 2 2 2 2 2 ",
"2 2 2 2 2 2 2 2 2 2 2 2 2 2 2 2 2 2 2 2 2 2 2 2 2 < 1 2 2 2 2 2 2 2 2 2 2 2 2 2 1 2 2 2 2 2 2 2 2 2 ",
"2 2 2 2 2 2 2 2 2 2 2 2 2 2 2 2 2 2 2 2 2 2 2 2 2 2 2 2 2 2 2 2 2 2 2 2 2 2 < $ @ = 2 2 2 2 2 2 2 2 ",
"2 2 2 2 2 2 2 2 2 2 2 2 2 < = = = = < 2 2 2 2 2 2 2 2 2 2 2 2 2 2 2 2 2 2 2 < $ @ = 2 2 2 2 2 2 2 2 ",
"2 2 1 1 2 1 1 2 2 2 2 2 2 < @ + + @ < 2 1 2 1 1 1 2 2 2 2 2 1 1 1 1 1 1 2 2 2 2 1 2 2 1 1 1 1 2 2 2 ",
"2 2 1 1 1 1 1 1 1 1 1 1 1 1 < < < < 1 1 1 1 1 1 1 1 1 1 1 1 1 1 1 1 1 1 1 1 1 1 1 1 1 1 1 1 1 1 2 2 ",
"2 2 1 1 1 1 2 2 1 1 1 1 1 1 2 2 2 2 1 1 1 1 1 1 1 1 1 1 1 1 1 1 1 1 1 1 1 1 1 1 1 1 1 1 1 1 1 1 2 2 ",
"2 2 1 1 1 < > > < 1 1 1 1 1 1 1 1 1 1 1 1 1 1 1 1 1 1 1 1 1 1 1 1 1 1 1 1 1 1 1 1 1 1 1 1 1 1 1 2 2 ",
"2 1 1 1 2 = + + = 2 1 1 1 1 1 1 1 1 1 1 1 1 1 1 1 1 1 1 1 1 1 1 1 1 1 1 1 1 1 1 1 1 1 1 2 1 1 1 1 2 ",
"2 1 1 1 1 < > > < 1 1 1 1 1 1 1 1 1 1 1 1 1 1 1 1 1 1 1 1 1 1 1 2 2 1 1 1 1 1 1 1 1 1 1 1 1 1 1 1 2 ",
"2 1 1 1 1 1 1 1 1 1 1 1 1 1 1 1 1 1 1 1 1 1 1 1 1 1 1 1 1 1 1 < = * = < 1 1 1 1 1 1 1 1 1 1 1 1 1 2 ",
"1 1 1 1 < < < < 1 1 < 1 1 1 1 1 < 1 1 < < 1 < < 1 1 1 1 < < 1 < @ + $ < < < < < < < < 1 1 1 1 < 1 2 ",
"1 < 1 < < < < < < < < < < < < < < < < < < < < < < 1 < < < < < < < < < < < < 1 < < 1 < < 1 < < < < 1 ",
"< < < < < < < < < < < < < < < < < < < * * < < < < < < < < < < < < < < < < < < 1 < < < < < < < < < < ",
"< < < < < < < < < < < < < < < < < < < * # < < < < < < < < < < < < < < < < < < < < < < < < < < < < < ",
"< < < < < < < < < < < < < < < < < < < < < < < < < < < < < < < < < < < < < < < < < < < < < < < < < < ",
"< < < < < * @ > < < < < < < < < < < < < < < < < < < < < < < < < < < < < @ O @ < < < < < < < < < < < ",
"< < < < < = % < < < < < < < < < < < < < < < < < < < < < < < < < < < < < * @ * < < < < < < < < < < < ",
"< < < < < < < < < < < < < < , < < < < < < < < < , , < , < , , < < < < < < < < < < < < < < < < < < < ",
"< , : , : , , , : : , , , : : , < , , , , = , , , = , , , : : < , , , , , , , , , , , , , , , , < < ",
", : : : * * : : = * = = * * * * : : : = = : : : * + % , : = : : = = = = * * * * * * = : : : * = , , ",
"* * * * * * * * * * * * * * * * * * * * * * * * & + % * * * & & * * * * & & & * * * & * * * & * * * ",
"& & & & & * & & & & & * & & * & & & & & & & & & & & & & * & & & & & & & & & & & & & & & & & & & & & "
};
