/* XPM */
static char *_dddb5946d164840d029726b6c375ec0ryMS2S1OHHvwQsSr[] = {
/* columns rows colors chars-per-pixel */
"36 50 61 1 ",
"  c #90C660",
". c #9BE955",
"X c #90D94F",
"o c #80BD55",
"O c #7DB441",
"+ c #7DB742",
"@ c #7DB642",
"# c #7CBA43",
"$ c #7CB943",
"% c #BBCB5C",
"& c #80BA51",
"* c #7CB542",
"= c #7CBB43",
"- c #82C660",
"; c #80BA52",
": c #7DB542",
"> c #4A6B2E",
", c #46642D",
"< c #45642D",
"1 c #45632D",
"2 c #45632C",
"3 c #44622C",
"4 c #44612B",
"5 c #43612B",
"6 c #44612C",
"7 c #43602B",
"8 c #425F2A",
"9 c #42602B",
"0 c #425E2A",
"q c #415D29",
"w c #415E2A",
"e c #405C29",
"r c #405D29",
"t c #3F5C29",
"y c #3F5B28",
"u c #3E5A28",
"i c #3D5927",
"p c #3E5A27",
"a c #3D5827",
"s c #3C5726",
"d c #3E5927",
"f c #3F5A28",
"g c #3B5525",
"h c #3B5626",
"j c #3B5625",
"k c #3A5424",
"l c #3C5626",
"z c #395324",
"x c #3A5525",
"c c #3A5425",
"v c #385123",
"b c #375123",
"n c #364E22",
"m c #354E21",
"M c #395224",
"N c #364F22",
"B c #375023",
"V c #385223",
"C c #375022",
"Z c #354D21",
"A c white",
/* pixels */
" ....XXXXXXXX...XX.X.XX............ ",
".oO+@@@@@@@@@@@@@@@@@@@@@@@@@@@@+Oo.",
".+#$$$$$$$$$$$$$$$$$$$$$$$$$$$$$$#+.",
" @#$$%$$$$$$$$$$$$$$$$$$$$$$$$$$$#@.",
".@#$$$$$$$$$$$$$$$$$$$$$$$$$$$$$$#@.",
".@#$$$$$$$$$$$$$$$$$$$$$$$$$$$$$$#@.",
".@#$$$$$$$$$$$$$$$$$$$$$$$$$%$$$$#@.",
" @#$$$$$$$$$$$$$$$$$$$$$$$$$$$$$$#@.",
".@#$$$$$$$$$$$$$%$$$$$$$$$$$$$$$$#@.",
".@#$$$$$$%$$$$$$$$$$$$$$$$$$$$$$$#@.",
".@#$$$$$$$$$$$$$$$$$$$$$$$$$$$$$$#@ ",
".@#$$$$$$$$$$$$$$$$$$$$$$$$$$$$$$#@.",
".@#$$$$$$$$$$$$$$$$$$$$$$$$$$$$$$#@X",
"X@#$$$$$$$$$$$$$$$$$$$$$$$$$$$$$$#@.",
"X@#$$$$$$$$$$$$$$$$$$$$$$$$$$$$$$#@X",
"X@#$$$$$$$$$$$$$$$$$$$$$$$$$$$$$$#@.",
"X@#$$$$$$$$$$$$$$$$$$$$$$$$$$$$$$#@.",
".@#$$$$$$$$$$$$$$$$$$$$$$$$$$$$$$#@X",
".@#$$$$$$$$$$$$$$$$$$$$$$$$$$$$$$#@.",
".@#$$$$$$$$$$$$$$$$$$$$$$$$$$$$$$#@X",
".@#$$$$$$$$$$$$$$$$$$$$$$$$$$$$$$#@X",
".@#$$$$$$$$$$$$$$$$$$$$$$$$$$$$$$#@.",
".@#$$$$$$$$$$$$$$$$$$$$$$$$$$$$$$#@.",
".&*=#%##########################=*&.",
".-;:@@@@@@@@@@@@@@@@@@@@@@@@@@@@:;-.",
">>>>>>>>>>>>>>>>>>>>>>>>>>>>>>>>>>>>",
",,,,,,,,,,,,,,,,,,,,,,,,,,,,,,,,,,,,",
",,,,,,,,,,,,,,,,,,,,,,,,,,,,,,,,,,,,",
",,,,,,,,,,,,,,,,,,,,,,,,,,,,,,,,,,,,",
",,,,,,,,,,,,,,,,,,,,,,,,,,,,,,,,,,,,",
",,,,,,,,,,,,,,,,,,,,,,,,,,,,,,,,,,,,",
",,,,,,,,,,,,,,,,,,,,,,,,,,,,,,,,,,,,",
",,,,,,,,,,,,,,,,,,,,,,,,,,,,,,,,,,,,",
",,,,,,,,,,,,,,,,,,,,,,,,,,,,,,,,,,,,",
",,,,,,,,,,,,,,,,,,,,,,,,,,,,,,,,,,,,",
",,,,,,,,,,,,,,,,,,,,,,,,,,,,,,,,,,,,",
",,,,,,,,,,,,,,,,,,,,,,,,,,,,,,,,,,,,",
",,,<,,<,<<,<,<<,,,<,<,<<,,,<,,<,,,,,",
"<<<1<<<,<<<<<1<<<<<<11<<<<<1<<<<<1<<",
"21222212121112222122112122212122<222",
"223322222222222222222222233222223222",
"233333323333233233333333333333333333",
"435343446335566435464433533335643364",
"555557555557574775755575575755575555",
"887888878888898888089998899779898988",
"qqwqqwwwwwwqwwwwewqqw88ww8qw8wqw8r88",
"rteyeeeyuetyyeyyyyyyueyyyeyreyqyyeee",
"uiipauisddaaddyyfdaiaisfaauuiiiidupi",
"ghgjsgjklzsgghlgljszsgjsghslxcxkjjhg",
"zzvbnvmMnNvBVNNMbvBvmNVMCMbkZNNNzvzC"
};
