/* XPM */
static char *_16c001666ae48b0bbb52365fa11af6dEvQPRaUXjSNqreoj[] = {
/* columns rows colors chars-per-pixel */
"50 50 235 2 ",
"   c #356279",
".  c #366A89",
"X  c #3B7293",
"o  c #387599",
"O  c #356E8F",
"+  c #3A7EA4",
"@  c #47728A",
"#  c #427492",
"$  c #477997",
"%  c #557E99",
"&  c #4A6D83",
"*  c #437EA4",
"=  c #3D83A5",
"-  c #3D87A9",
";  c #4B829E",
":  c #5C8299",
">  c #63879C",
",  c #458DAD",
"<  c #4787A8",
"1  c #5687A4",
"2  c #5593AD",
"3  c #4795B5",
"4  c #4D97B7",
"5  c #549BBB",
"6  c #5798B5",
"7  c #528FB0",
"8  c #658EA4",
"9  c #7495A4",
"0  c #7898A7",
"q  c #7C9BAB",
"w  c #7897A8",
"e  c #689BB9",
"r  c #7D9EB1",
"t  c #739CB3",
"y  c #56A2BC",
"u  c #4EA1BF",
"i  c #7FA1AD",
"p  c #68A5BB",
"a  c #7EA2B4",
"s  c #7AABBD",
"d  c #569EC0",
"f  c #5EAAC6",
"g  c #56AACA",
"h  c #5DACCA",
"j  c #57A4C3",
"k  c #58B5CB",
"l  c #4EB7DB",
"z  c #5BB4D5",
"x  c #4AADCC",
"c  c #65A5C1",
"v  c #64A9C3",
"b  c #63ADCC",
"n  c #6AA7C5",
"m  c #75AAC6",
"M  c #69B3CC",
"N  c #74B4CE",
"B  c #7DB2CB",
"V  c #64B3D1",
"C  c #64BAD5",
"Z  c #6DBAD4",
"A  c #64BCDB",
"S  c #6CB9D7",
"D  c #73B5D1",
"F  c #73BCD4",
"G  c #7BBCD4",
"H  c #78BBD8",
"J  c #5BC5DA",
"K  c #6DC2DB",
"L  c #63C6DE",
"P  c #74C4DC",
"I  c #7BC4DA",
"U  c #79CADA",
"Y  c #7AD0DD",
"T  c #5BC1E3",
"R  c #64CAE4",
"E  c #6BCBEB",
"W  c #68C5E4",
"Q  c #78C9E3",
"!  c #66D3ED",
"~  c #6CD3EB",
"^  c #7CD2E3",
"/  c #78D7E9",
"(  c #74D7F5",
")  c #6AD2F1",
"_  c #819EAD",
"`  c #809FB2",
"'  c #81A1AE",
"]  c #83A4B4",
"[  c #89A6B3",
"{  c #87A9B5",
"}  c #8AA9B5",
"|  c #84A6BA",
" . c #86A9BC",
".. c #8BACBB",
"X. c #88A7B9",
"o. c #91ADBD",
"O. c #90AAB7",
"+. c #8EB1BD",
"@. c #91B4BE",
"#. c #85ACC3",
"$. c #8CAEC1",
"%. c #93AEC2",
"&. c #8DB1C3",
"*. c #84B2CB",
"=. c #8CB5CA",
"-. c #94B4C3",
";. c #99B5C4",
":. c #96B9C4",
">. c #9ABAC6",
",. c #94B6CA",
"<. c #95B9CB",
"1. c #9BBCCB",
"2. c #9BB6C9",
"3. c #84BBD5",
"4. c #8CBBD3",
"5. c #87BCD8",
"6. c #95BDD4",
"7. c #A2BDCC",
"8. c #A1BEC6",
"9. c #A8BCD4",
"0. c #9DC2CD",
"q. c #98C0C9",
"w. c #84C3DA",
"e. c #89C2D9",
"r. c #9DC1D1",
"t. c #94C2DC",
"y. c #9CC6DD",
"u. c #95C9DE",
"i. c #9DCADD",
"p. c #92C2D5",
"a. c #A3C3CD",
"s. c #A3C4D3",
"d. c #AAC5D2",
"f. c #A6C9D4",
"g. c #ABCBD5",
"h. c #A4CBDD",
"j. c #ACCCDA",
"k. c #A6C5DA",
"l. c #B3CBD6",
"z. c #B1CEDA",
"x. c #B7CAD8",
"c. c #AFD1DC",
"v. c #ABD0D6",
"b. c #B5D0D5",
"n. c #B4D3DD",
"m. c #BBD5DD",
"M. c #BCD9DD",
"N. c #B6D5DA",
"B. c #85CCE4",
"V. c #9CCBE1",
"C. c #93CAE2",
"Z. c #82D2E7",
"A. c #84DCEC",
"S. c #89D8E9",
"D. c #9AD5EB",
"F. c #89D8F2",
"G. c #94DEF4",
"H. c #A4CBE2",
"J. c #ACCFE4",
"K. c #B2CEE2",
"L. c #ACD3E4",
"P. c #ADD4EC",
"I. c #A6D6E8",
"U. c #B4D4E2",
"Y. c #BAD6E3",
"T. c #B6DAE4",
"R. c #BCDAE4",
"E. c #B3DAEC",
"W. c #BDDCEA",
"Q. c #A6D6F5",
"!. c #B8DCF2",
"~. c #8CE2EC",
"^. c #85E1EE",
"/. c #95E3ED",
"(. c #8DE5F0",
"). c #96EBF5",
"_. c #9BECF5",
"`. c #98E6F7",
"'. c #9CF1FA",
"]. c #A2E6EC",
"[. c #BEE2EB",
"{. c #BDE1E5",
"}. c #A3EDFB",
"|. c #AAECFD",
" X c #ABE6F8",
".X c #BCE4F5",
"XX c #B4EDFD",
"oX c #B4E7FB",
"OX c #A4F3FC",
"+X c #ABF5FD",
"@X c #ADFAFF",
"#X c #A0F3F7",
"$X c #B3F4FD",
"%X c #BBF5FF",
"&X c #B4FBFF",
"*X c #BCFBFF",
"=X c #C3DBDE",
"-X c #C2DCE4",
";X c #C3DEEA",
":X c #CBDFEB",
">X c #C4D9E7",
",X c #C3E1E6",
"<X c #CAE1E7",
"1X c #C4E2EB",
"2X c #CAE4EC",
"3X c #CDE9ED",
"4X c #C1E8ED",
"5X c #D1EAEE",
"6X c #D1E4EA",
"7X c #C4E5F3",
"8X c #CAE5F2",
"9X c #C5E9F4",
"0X c #CCEAF4",
"qX c #C5ECFC",
"wX c #CCEDFA",
"eX c #C7E6F9",
"rX c #D2ECF3",
"tX c #D3EDF9",
"yX c #D7EBF8",
"uX c #CDF2FE",
"iX c #C3FDFF",
"pX c #CCFDFE",
"aX c #C8F2FC",
"sX c #D3F1F5",
"dX c #D4F3FC",
"fX c #DAF2FC",
"gX c #D5FDFF",
"hX c #DCFEFF",
"jX c #D6F9F6",
"kX c #E3FEFF",
"lX c #EAFFFF",
"zX c #E6F3FB",
"xX c #F3FEFF",
"cX c #F5F7F8",
"vX c #E2EFF7",
/* pixels */
"9 9 0 q 9 0 _ 0 q q r a | #.#.#.#.#.$.$.&.&.,.6.#.*.=.=.&.$...X. .a a a ] ] q i ] q ` q q q q 0 q q ",
"9 9 9 9 q _ 0 q q r a ]  .#.$.&.$.$.&.>.1.0.s.s.,.,.<.<.,.,.-... .<.1...i ..{ i q q | q q q q 9 q q ",
"9 q q q q q q X.` ] |  . .$.=.<.<.<.1.0.a.a.a.a.a.s.s.s.s.s.1.1.-.1.0.-.{ } { } ,.] ` r | ` q 0 q q ",
"q 9 0 q q q ` r |  ...$.&.-.1.r.s.s.f.g.b.b.b.b.b.n.n.z.z.j.f.f.f.1.1.1.:.+.} -.1.] r ] X.] q q q q ",
"q q w r a r ] a  . .$.-.<.1.s.f.c.n.n.M.M.M.=X-X-X-XR.R.R.R.n.n.U.z.f.a.1.>.+...a a  .] ` ] ] q q q ",
"q q 9 9 q r | $. .$.-.<.a.f.j.n.R.R.W.W.R.M.M.,X1X1X1X1X1X1XW.R.R.M.Y.g.a.a.:.+. .| $.] | ] ] _ q q ",
"q w  .] w |  .| &.,.1.s.f.n.M.R.R.R.,X1X1X9X9XqX9X9X8X8X1X1X1X,X1X-X;XR.n.g.s.f.k.$. . .$.X.] { q q ",
"q r dXqXr a $.$.,.1.f.j.n.n.R.,X<X1X1X2X9X9X7X7X9X9X9X8X8X3X2X1X3X>X-XM.n.n.f.j.f.-.&..... .{ ' ' ' ",
"q ] U.J.| | &.<.1.r.j.n.R.R.,X1X2X3X2X1X0XdXdXlXlXlXkXfXfX0X1X0X2X<X1X,XR.W.R.j.r.1.1.,.......{ ] ] ",
"X.q ] ] | ,.>.,.s.j.U.R.R.W.1X1X2X0X0XhXhXhXdX7X;XY.tXfXfXlXhX0X1X0X2X1X2X1XW.R.j.k.s.1.,.+.....X.] ",
"a | X.X.&.<.s.j.j.T.W.1X1X1X8X8XtXtXdXqXQ.m e * $ % $ : a r.9XkXhXwX8X8X8X2X1XR.Y.j.j.s.<.,.+. .X.X.",
"a &.$.-.1.1.f.z.Y.W.1X1X9X9X0XwXwXgXE.t 1 $ e Q.Q.Q.P.t & @ 8 1.uXhXdX9X9X0X1X1XR.U.j.f.1.<.-..... .",
"| ....>.1.a.n.Y.;X1X1X8X9XwXuXdXuX*.% @ > ;XlXlXxXxXxXxX;X:   @ s .XhXuX9X0X2X8X;XY.n.j.s.1.>.&.....",
"..&.-.a.a.d.-X;X1X2X0X0X9XuXdXqXm $ @ % W.lXlXcXcXcXcXvXkXP.1 # @ t !.hXuX8XrX2X2X;XR.n.j.r.<.-.....",
"&.&.-.a.g.n.R.-X2X2X0XwXwXgX.X=.# X 2 t uXhXlXxXxXzXzXzXeXH.c . # . a qXhXdXdX3X3X<X;XR.j.s.r.:.+...",
"..-.1.s.j.n.Y.2XrX2X0XwXuXgXi.@ X 7 e m P.gXwXY.x.d.l.j.H.C.c o X . @ #.gXhX1XdXrX3X2X;Xn.f.s.1.&.+.",
"+.:.1.f.n.R.1X1X3XrXsX0XhX!.8 . ; 2 n m *.4.6.6.r.6.4.4.B n 6 < * O . : U.kXqXuXdX2X3X1XM.n.s.r.:.-.",
"@.:.a.f.U.W.8X8X3X3XsXdXdX4.$ O ; 2 p m B 3.5.5.e.3.3.G N n 6 7 * o . @ $.dXuXaXdX5X3X<X=Xm.j.s.<.-.",
":.>.s.j.Y.1X8X0XrXrXsXhXqXe . X ; 2 e n N D G G G G G F M n 5 4 < * . . > 9XgXuXrXrX5X,X=XR.U.r.1.,.",
":.0.f.n.R.1X8X0XrXsXdXgXE.1 O X < 2 6 n M Z F I I I I F Z M f d 4 + O . $ h.gXdXtXrX2X<X-Xn.n.s.1.,.",
">.a.j.U.W.1X3X5XrXsXdXdXV.; X o < 2 j M F P Y ^ ^ ^ ^ U P F V f 5 = o . # =.gXfXfXrXrXkXdXU.j.f.1.>.",
"<.s.j.Y.;X2XrXrXrXsXdXgX4.# X + < 6 f Z P ^ / ^.^.~.A.S.Z.U S b d - = O X m fXfXtXfXfXdX8XT.n.g.s.>.",
"<.s.n.R.1X3XrXrXfXsXdXdX*.$ o + , 5 b S ^ A.(.).).).)./.G.S.Q S j 3 = o o m dXzXfXfXrXn.f.U.U.g.s.>.",
"1.f.U.W.1X3XrXrXfXsXdXuXB < + + 3 j Z P S.`._.OX+X+X+X}._.(.Z.K h 4 = = = m tXlXfXtXfXtX9X.Xn.g.s.1.",
"s.f.n.R.;X3XrXrXrXdXuXaXe.< = - 4 f F Z.G.}.@X&X*X*X*X$X|._.F.Q V j , - < B hXfXtXfXfXrXqX.Xn.z.s.>.",
"s.j.U.R.1X3XrXrXdXwXeXpXC.6 - - 5 b Q S.`.$X*XiXpXpXpX*X$X}.(.^ A g 3 - 4 e.dXrXtXfXtXrXwX7XM.z.s.>.",
"s.f.n.;X<X3XrXrXtXwXE.aXQ.c , , u V Q G.|.*XpXpXgXhXgXpX*X@X).A.K g 3 , 5 D.gX;X0XtXrX0XwX8XR.z.s.,.",
"s.g.Y.;X2X3XrXrXtX9XL.oXXXD 4 4 j C Z./.|.*XpXgXhXhXhXgXiX&X'.A.Q g 3 5 c oXpXj.0XtXtXrX0X1XY.j.a.,.",
"a.g.Y.1X2X3XrXrXwX9Xh.u.iXB.v 4 j C Z.`.+X*XgXhXhXkXhXgXiX&X'.^.Q g u y w.pXI.r.7XtXdXrX8X1XY.j.s.>.",
"a.g.R.,X1X3X0X0XuX.Xy.*.%X|.I y g C ^ `.+X*XpXgXhXhXhXgXiX&X'.A.K g h M  XgXB p.W.0XtXrX3X;XY.U.s.>.",
"a.g.R.,X1X3X0X0XaX.Xy.m C.*XG.Z V C Q F.OX&XiXpXgXgXgXpXiX@X)./ C z S B.pX Xp p.T.8XtXrX6X:XY.K.s.2.",
"a.g.R.1X2X3X0X0XqX.Xu.m c *X|.S.P K K A._.@X*XiXpXpXpXiX&XOX(.^ K P w.$XgXs p 3.E.8XrX5X6X<XY.j.s.,.",
"1.j.Y.-X2X3X5X3X9X.XC.N 6 I gXXXS.Y Y Z.~.#X@X&X*X*X&X@XOX_.A.Y I D.XXpXI.2 p w.E.7XyXyX<X;Xn.f.r.1.",
"1.j.K.-X3X5XsXsX0X.XC.H j y D.gX+X/.S.S./._.OX+XOX+X+XOX).~.~./.]. XgX*Xy v p e.E.eXyX:X-XR.n.s.<.,.",
"1.f.j.Y.1X2X3X0X0X.XI.G b 5 v |.hXpXXX|.}._.}.$X+X}.}.OXOX_.].].iXgX&XM f y m V.!.8X8X1X1XY.d.7.<.,.",
">.s.f.Y.1X2X0X0XwX7XE.3.n f u b  XpXgXiX%XiX*XXX%X%X$X$X$X*XiXpXpXiXZ k u v *.H.7X0X8X1XR.g.n.tX:.-.",
"-.a.f.n.R.1X8XrXtXeX!.t.N f x x k (.iXhXlXlXhXhXjXjXhXhXkXlXkXgX|.S z k f n t.J.7X9X1X,XR.g.g.1X-.$.",
",.a.a.v.n.R.;X8X8XtX;XH.5.b x l J J Q oXhXlXkXkXkXkXlXlXlXhX%XD.Q C C g b G t.!.9X1X;XR.>Xx.;.X.-.$.",
"7.s.a.g.n.Y.;X7X8XtX8XU.y.G z l l T R R ^ ).&X*XiXpXpX%X|.G.Z.E W A z b m 4.P.E.[.4X;Xm.x.l.1.&.....",
"2.1.>.0.g.n.R.;X8X2XrX;Xj.t.S z z l T ! ! ~ / A.F.F.F.F.F.( E R T z V N 6.y.E.[.[.R.M.m.l.d.r.<.&...",
"%.,.1.a.d.z.Y.W.1X3X5X2XR.h.3.Z V b V A E ~ ( ( ( ( ( ( ~ ~ R J z V D 3.y.L.W.1X1XR.b.g.s.s.1.,.....",
"%.-.>.1.a.g.n.R.W.,X2X3X<XY.y.3.N M M S A W W E ) ) ! ! R L J C Z N 3.t.H.E.;X<X-Xm.g.a.0.<.,.%.....",
"$.-.,.>.7.d.j.n.T.{.,X3X3X:XU.y.e.G F Z Z S S S W W R R L L S D G e.y.H.E.[.1X>Xx.x.d.0.q.=.-.%.....",
"....-.;.>.a.g.j.n.T.{.2X3X2X>Xz.V.u.e.w.G G G H H P K K K P H 5.p.i.L.T.W.1X;XM.x.l.a.1.<.=.-.%...} ",
"..o.-.-.:.1.a.g.g.n.R.W.1X2X:X>XT.L.h.i.t.e.5.e.e.w.I w.w.u.C.V.h.L.R.R.W.[.R.z.n.l.7.<.,.-.$...} [ ",
"} ..o.@.-.:.1.a.d.z.U.E.W.1X<X<X;X;XR.U.L.H.V.V.V.V.u.i.H.L.L.U.T.R.R.R.R.Y.n.f.j.s.2.;.-.-...{ [ [ ",
"} } ....+.-.:.8.d.l.K.P.P.T.-X=X<X<X;X;XR.T.T.L.P.L.U.Y.Y.W.W.W.R.Y.n.c.c.j.f.f.s.1.,.%.%.@...{ X.[ ",
"[ } ....+.@.:.>.7.9.k.H.L.L.M.M.-X>X>X;X;X1X[.[.E.W.>X>X-X-XW.R.R.m.c.g.g.f.s.s.1.<.-.%.o.O.} [ } [ ",
"[ [ } ..o.@.:.-.2.1.1.s.j.j.g.n.R.R.R.R.W.1X1XW.W.W.W.;XW.Y.U.c.n.j.j.f.s.s.1.1.,.:.-.o.O...} [ } } ",
"[ } ......@.-.@.-.,.>.1.s.s.s.g.z.n.n.n.R.W.W.R.R.R.Y.Y.U.U.j.j.f.s.s.a.0.1.>.,.-.-.o.o.....} [ ..} "
};
