/* XPM */
static char *_ed3a127b55f4e31c3c95697a12f9f42Pxsl3HxVTbX2AHII[] = {
/* columns rows colors chars-per-pixel */
"50 50 246 2 ",
"   c #191D33",
".  c #1D2337",
"X  c #23283A",
"o  c #192E48",
"O  c #1D354D",
"+  c #1C3956",
"@  c #2A3547",
"#  c #23364A",
"$  c #2B394D",
"%  c #303645",
"&  c #313B4B",
"*  c #233A53",
"=  c #2B3C52",
"-  c #243C58",
";  c #113F69",
":  c #1F435E",
">  c #28435A",
",  c #2D455C",
"<  c #344355",
"1  c #3A4757",
"2  c #334559",
"3  c #35495D",
"4  c #3B4B5C",
"5  c #3F505E",
"6  c #184468",
"7  c #165078",
"8  c #264663",
"9  c #2C4A63",
"0  c #264C6A",
"q  c #2B4C6A",
"w  c #324B64",
"e  c #334D64",
"r  c #3B4E62",
"t  c #2C526E",
"y  c #3C5264",
"u  c #33526B",
"i  c #3A546A",
"p  c #38566B",
"a  c #274F75",
"s  c #2C5473",
"d  c #2A587A",
"f  c #365975",
"g  c #3B5C74",
"h  c #325B7B",
"j  c #35627F",
"k  c #3D627B",
"l  c #434C5A",
"z  c #435465",
"x  c #4C5766",
"c  c #44596B",
"v  c #4A5969",
"b  c #455D73",
"n  c #5B626F",
"m  c #42637B",
"M  c #476578",
"N  c #576777",
"B  c #626875",
"V  c #636D7A",
"C  c #68707D",
"Z  c #165A84",
"A  c #265D84",
"S  c #345D82",
"D  c #176C97",
"F  c #1B6B96",
"G  c #29658B",
"H  c #3C6483",
"J  c #386789",
"K  c #396D92",
"L  c #247299",
"P  c #337094",
"I  c #34749A",
"U  c #1675A3",
"Y  c #267AA5",
"T  c #337CA2",
"R  c #436582",
"E  c #456A84",
"W  c #496B84",
"Q  c #456D8B",
"!  c #546E86",
"~  c #46718C",
"^  c #4C738C",
"/  c #597589",
"(  c #497694",
")  c #577B94",
"_  c #6E7A85",
"`  c #757B85",
"'  c #677F92",
"]  c #467CA3",
"[  c #1682AC",
"{  c #2982AC",
"}  c #3989AD",
"|  c #2B8BB7",
" . c #3A8DB4",
".. c #2C91BC",
"X. c #3693B9",
"o. c #5A829A",
"O. c #7B838E",
"+. c #698598",
"@. c #76899A",
"#. c #7C909E",
"$. c #4B89AA",
"%. c #5C88A4",
"&. c #4598BB",
"*. c #5A93B6",
"=. c #678AA4",
"-. c #718DA3",
";. c #6A93AA",
":. c #7793A8",
">. c #7C9BAD",
",. c #6899B5",
"<. c #739CB3",
"1. c #789CB6",
"2. c #4AA0BF",
"3. c #6BA3BD",
"4. c #73A1BA",
"5. c #7BA3BC",
"6. c #3597C2",
"7. c #3AA4CC",
"8. c #449EC5",
"9. c #4CA4C5",
"0. c #4AA6CB",
"q. c #57A7C6",
"w. c #5BACCC",
"e. c #4AADD5",
"r. c #54B4D5",
"t. c #5FB1D6",
"y. c #78A9C6",
"u. c #70B0CC",
"i. c #68BAD5",
"p. c #72C4DE",
"a. c #7AC4DC",
"s. c #66C4E1",
"d. c #7BCCE4",
"f. c #8A9097",
"g. c #88949D",
"h. c #869AA8",
"j. c #959DA5",
"k. c #849EB3",
"l. c #8AA1AD",
"z. c #97A4AD",
"x. c #8BA4B4",
"c. c #84A3B8",
"v. c #8BA4BA",
"b. c #8DAABC",
"n. c #93A5B3",
"m. c #99A8B3",
"M. c #92ABBB",
"N. c #9AADBA",
"B. c #9EB2BC",
"V. c #A2AAAD",
"C. c #A4ADB4",
"Z. c #A7ADB6",
"A. c #A4B1BB",
"S. c #A9B3B8",
"D. c #ABB5BC",
"F. c #B4B9BE",
"G. c #87ACC3",
"H. c #92ACC1",
"J. c #88B4CA",
"K. c #95B3C3",
"L. c #9BB3C3",
"P. c #97B6C9",
"I. c #9DBCCC",
"U. c #88BBD6",
"Y. c #94BBD2",
"T. c #A2B5C2",
"R. c #A9B7C3",
"E. c #ACBBC4",
"W. c #A4BCCA",
"Q. c #ACBECA",
"!. c #B3BEC5",
"~. c #B7BEC4",
"^. c #A2BFD3",
"/. c #8BC3DC",
"(. c #99C4DA",
"). c #A7C1CC",
"_. c #ACC0CC",
"`. c #B6C2C7",
"'. c #B3C3CB",
"]. c #BAC5CC",
"[. c #A2C3D4",
"{. c #ACC4D2",
"}. c #ACCAD5",
"|. c #A6CBDC",
" X c #B6CAD6",
".X c #BCCBD3",
"XX c #ADD0DE",
"oX c #BBD0D7",
"OX c #B5D2DE",
"+X c #BAD2DC",
"@X c #89CCE4",
"#X c #97C9E2",
"$X c #8FD2E7",
"%X c #A6CDE2",
"&X c #A9D4E6",
"*X c #B4D5E4",
"=X c #BAD5E2",
"-X c #BCDAE4",
";X c #B9DDEA",
":X c #BEE2ED",
">X c #C2C8CC",
",X c #C4CDD2",
"<X c #C9CED2",
"1X c #CCD2D4",
"2X c #C3D4DC",
"3X c #C8D5D9",
"4X c #CBD6DC",
"5X c #D3D9DB",
"6X c #C4D6E1",
"7X c #C4DBE4",
"8X c #CCDCE3",
"9X c #C3DEE9",
"0X c #D2DEE2",
"qX c #DADFE0",
"wX c #C4E2EC",
"eX c #CCE2E8",
"rX c #CCE4EC",
"tX c #D3E1E5",
"yX c #DCE3E5",
"uX c #D3E5EB",
"iX c #DBE6EA",
"pX c #D4E9ED",
"aX c #DCEAED",
"sX c #C8E8F2",
"dX c #CCEAF3",
"fX c #D4ECF3",
"gX c #D4EBF4",
"hX c #DBEDF3",
"jX c #D6F1F7",
"kX c #DCF1F5",
"lX c #DDF4F9",
"zX c #E6EAE9",
"xX c #E4EBEC",
"cX c #E6F0EF",
"vX c #E1EEF1",
"bX c #E4F3F5",
"nX c #EBF5F5",
"mX c #EDF8F7",
"MX c #E3F6F9",
"NX c #EBF7F8",
"BX c #E6F9FA",
"VX c #EBFAFA",
"CX c #F3F9F7",
"ZX c #F6FAF6",
"AX c #F4FCFA",
"SX c #FCFEFB",
/* pixels */
"yXVX2XA.}.#.M.).2X+.vXCXx.>.bXh.+.h.rX|.P.K.@.yXkXfXI.;.:.OXh.iX8X/ T.eX}.n.n.h.4XBXP.@.N.h.h.MXNX4X",
"fXaXK.[.P.H.=X>.5.h 1.y.J ) y.=.b.b.c.y.^.M.>.[.K.{.v.W.x.OX^ ,.*.E R.OXk.8XL.=.H.G.b.M.>.I.:.{.hX:X",
"I.N.4XQ.m.A.Q. X).=.k k ^ '.4XxX8X0X4X X2XnXcX5X.XW.+.c.Q.7Xl.~ ( T.4X2X.X6XaXbX8X.X XT.m.j..X XM.5.",
"4Xn.<XD.zXyXV.tXVX-Xy.3.OXSXSXyX,XCXSXSXSXbXbXSXSXnX+X{.nXSXnX[.%XnXSXSXCXbX<X.XnXAX1XD.zXyXC.`.N.T.",
"#Xx.j.aXSXSX,XC.NXMXsXdXjXSX5XR.,XD.CXZXCXbXMXAXSXmXbXbXCXSXAXNXBXnXCXSXNX`.,X,XC.bXg.aXSXSX1Xh.c./.",
"1.0X+.:.iX7X=.n.VXBXfXkXNXAXF.M.7Xg.CXSXAXbXbXCXSXCXNXhXmXSXSXNXfXwXAXSXBXh.+X+X@.vX+.1.aX8Xo.m.2X~ ",
"v.yX+.S ~ K S n.BX7XgXBXNXAXyX) ( L.SXSXiXaXgXaXSXnXrXnXbXbXSXhXkXbXgXSXVXI.( ^ K.NX+.J ~ K h m.0X' ",
"aXA.L.s J j m 2XMX*XfXMXlXNXSXrX*XCXSXSX8XaXSXSXSXmXrXSXAXAXSXnXNXSXAXSXBXfXY.Y.kXBXW.u K J f L.!.8X",
"Y.n.pX1.o.o.P.rXpXbXgXgXhX XOX2XNXbX+X{.7XsXwX*X).OX7XnX8XOX).rX9XdX.X{. XhXhXhXbX9XwXG.=.=.Y.4XL.G.",
"G.iX0XD.nXxXV.}.bXCXnXnXbXm.J f ) ! H S J E J K h ( R ' b K h ] m Q f H F.NXCXNXkX0XrXlXfXjXMXmX8X) ",
"Q.A.z.xXSXSX>Xl.NXCXdXmXkXz.S q J 8 h a a s s h q S q H 9 J q J s H q h F.CXhXNXjX8XeXBXMXkXkXaXQ.W.",
"P.Q.+.c.aX8X=.>.AXAXCXAXAXg.* < r = $ $ 2 3 3 , $ < 2 y 4 , = w w r < @ F.SXCXSXNX8XrXBXhXkXNXtXP.J.",
"h.2X' k ^ ~ h l.AXhXNXCXBXj.< 5 1 z 1 4 y < 3 y y 4 y 1 1 i c b l 1 5 1 F.BXNXNXbXtXpXwX7XBXNXhXc.+.",
"uXA.b.f R k k OXCXNXSXSXSXj.@ . & v @ 2 2 @ . .   % X X z < & < X @ @ % S.AXSXAXSXeXdX}.-XVXNX6X X9X",
"1.:.tXY.,.,.XX2X:.:.K.v.>.z % # i 3 O = e + i = = 4 , > 3 $ * e - M c & N :.k.H.:.+.iXmX6XeXNX8Xk.3.",
"=Xz.xXMXhXkXAX<XH s d 0 J - < 9 M i / z.j.#.g.h.j.C.n.g._ h.#./ q t M 4 0 G s h A R zX>XC.R.3X8XR.6X",
"U.m.aXNXBXjXMX1Xf 8 h 0 q w b 8 g / tXAXkXkXdXkXlXMXdXMXfXkXNX}.m + E i 8 0 u s 6 b F.~.SXCXC.].b.J.",
"k.A.aXBXkXbXSX1X1 r c c c b u t Q >.kX(.,.,.u.u.*.3.%.y.*.y.%XrX) J s g M z v c y n C.E.SXnXh.'.T.x.",
"1.T.bX7XhXCXSX1Xl 4 $ % $ O k R ;.;XaXo.h f W E H k f H H k =.hX|.+.k 8 9 4 & & 4 B C.R 5.=./ 4XL.J.",
" XN.iXgXbXAXSX>Xv @ < # , u / :.-XjX:X+.q 6 8 0 H 6 6 a a t =.gXBXI.+.k f e o l @ x 2X) H H N.iX).5.",
"(.x.yXAXAXAXSX'.& * u 9 m l.aXnXNXXX,.! S 7 Z Y T F } L A 7 ) G.=XnXaX.XN t 6 , X l iX6X5.W.nX8Xc.y.",
"gXA.zXAXCXnXCX1X4 O 8 g l.nXrX%X%Xo.m m P L }  .u.u.&.| q.$.k E ;.%X*XBX4X) > o $ N cXAXCXmXnX5XE.(.",
"y.:.xXmXbXkXfX,XV w i m P.fX5.k H f h A *.&.&.u.X.9.9.X.9.&.d h H J R (.jX<.u e w V cXCXNXbXkX4Xx.3.",
"K.R.yXNXbXbXAX1X4 - N M (.jX<.e u 0 7 Y | X.w.i.7.7.a.i.w...D 6 + + W [.kX<.i b = n xXnXhXbXAXtXE.@.",
"v.N.xXhXnX3XcX1Xz - f o.*XrX) > f K { X.q.i.i.a.a.a.@X7.6.0.6.Y 6 + M <.MX5.i N & v xXuXuXuXbXtXL.;.",
"OXB.aXNX-X:.C.1X4 - q ^ J.sX@.- 6 L | &.X.i.a.p.e.e.@Xd.e.6.0.w.I ; i K.jX;.M # # N cXnXfXwXkXaXm._.",
"OXx.vXNXfXb.'.4Xb 8 + E (.gX@.q Z U | 9.9.i.e.d.t.s.@Xs.a.0.9.| Y G R x.fX,.e O , N bXNXkXkXkX4XL.&X",
">..XNXkXfXgXfX5Xr e 8 ) (.rX/ q $.U X.q.i.p.r.$X$X$Xs.e.a.w.w.{ { T S >.dX<.g 8 e V bXkXfXfXkXvXM.^ ",
"4XR.vX*X9XMXlX5XM 9 f k 3.*X/ 0 I &.w.....a.$Xe.e.s.@Xd.a.6.w.&.Y Z h c.;Xo.u e 2 V xX9XhXhXsXiX`.oX",
"[.m.0XNXNXAXAXE.r - f k y.wX+.u Z L &.6...6.a.r.p.i.d.i.8.6.0. .Y Z M K.dX( 9 g # v 0XNXmXNXNX.XN.Y.",
"P.k.xXAXtXiXSX].@ > 0 k ) ;X`.M 6 F Y 8.8.8.t.a.0.7.i.w.8.q.X.} $.6 / tXY.g 8 q # l zXSXbXnXSX5Xm.P.",
"G.R.aX,X!.F.5X1Xb 9 6 s W U.uX>.h A F  . .| ..0.i.t.i.w.9.U.{ F G J c.fX<.k 6 8 , n xXCXfXhXNXtX'.y.",
"W.k.aXz.CXzXS.<X1 # ! g h ( *XrXk.h G I } &.X.9.2.w.X...q.$.Y G ~ G.9X[.^ k ! 3 # x xXNXbXkXNXtXb.U.",
"v.N.VXh.b.>.C.1Xz 4 v u E Q 3.dXxXB.h.W L L Y  .U [ 0.6.{ D W >.W.hX;X=.k + N r r N cXpXpXfXjXvXb.=.",
"-XA.aX=XQ ) iX1X1 $ 3 M u q ;.1.*XgXCXC.s 7 Z Y U D | Y F d E.mXfXXX4.^ u i # M z n cX=XuXBXMXtX!.-X",
"U.v.tXBX*X;XAX.XV B V V V 3 0 H ( %.gX5X@.b H / g E ^ q m +.7X=Xo.) m - z O.C B B ` iXNXNXNXAX2XM.J.",
"{.n.hXNXBXBXNX6XiXmXnXbXbXg.> 0 u Q (.fXbXtX0X0XtXtXiX2X9XhXdXJ.m u 9 = C.mXnXnXhX.XuXbX7XvXNX0XN.K.",
"%XM.aXBXMXMXBX7XvXlXsXBXlXz.i 0 8 m k *.u.@X#X#X/.#XU.%X#X#X*.~ k : g 4 ~.VXgXNXlX6X7X'.Q.R.bXeX{.U.",
":.m.aXBXgXfXNX9XbXAXAXAXAXj.* u b 9 m M m ( ~ Q H ~ ^ ( ^ Q m m , ! > $ ~.SXAXSXAX6X+Xn.aXl.hXuXK.( ",
"c. XbXdXfXMXVX9XvXbXmXmXNXj.# 2 c m i v v 3 4 c e g M 3 z c i , O y i 1 F.bXNXbXbX2X7X:.o.c.dXkXQ./ ",
"aXA.aX9XMXVXVX-XiXnXAXAXSXj.v $ g i * r 2 @ # e * g > = i O O e O b r 1 C.NXmXnXAX{.eXwXY.kXVXiX].eX",
"/.k.aXaX`.].bX=XG.1.v.v.v.#.f.O.h.f.` ` O.O.O.` ` O.n N.+._ O.g.O.O.` ` -.5.:.:.1.>.pXiX`.].nX2XM./.",
"W.T.tXD.,X].D.bXrX%XU.U.*XnXSXzX>XzXSXSXZXCXCXSXSXAXm.<.-.zXSXSXSXSXSXSXuX(.u.u./.aXaXA.1X].!.+X).,.",
";XL.m.yXSXSX~.!.VXkXfXhXnXAX5XD.5Xm.zXSXCXnXMXkXAXAXuXG.}.CXSXSXCXcXkXAXNXkXgXdXMXNXC.qXSXSX>Xn.K.[.",
"5.N.#.OXSXCXn.z.VXMXrXhXNXAXD.Q.SXn.<XAXNXbXbXNXAXCXNXkXBXNXAXmX,X!.<XSXNXMXMXBXBXMX@.+XSXCXM.h.c.y.",
":.zX+.K :.-.H n.VXMXdXrXbXVX X) :.+.uXVXhXhXkXfXAXCXaXkXBXNXVXtXN.iXm.CXNXfXfXMXBXbX) Q >.-.J N.zX-.",
"2X!.l.s K J g `.VXMXNXkXBXVXlXG.%.}.VXVX+X2XBXkXAXCXOXfXVXVXAXhX@./ m.SXVX=X=XVXBXVXx.q ~ H t '.hXI.",
"*Xh.oX%.~ Q ,.eXuXbXNXNXBXeXhXkXdXMXpXuXvXnXAXmXiXbXNXNXAXmXtXaX-XI.bXxX7XfXNXVXBXuX-X%.W m ;.6X[.:.",
"hX<X'.P.y.y.I.Q.'.E.,X`.R.Q.].`.'.R._.{.].].'.E._.{..X2X].'.'.A.R..XE..XT.`.`.2X.XQ. XG.3.4.5.'.iXvX",
"sXdXdXwX+X@.;X;XfX_.K.P.x.dXwX>.W.=X;XsX}.P.M.P.jXrXL.rXk.|.jXW.K.*X;.;X;XdXh.{.=XdXdXW.l._.>.jXdXwX"
};
