/* XPM */
static char *e7121bc369264b0de7ef46d22c91c07asnRoQKeaKAzSmyhz[] = {
/* columns rows colors chars-per-pixel */
"50 50 219 2 ",
"   c #0B0718",
".  c #0D0A1A",
"X  c #130F1E",
"o  c #110F20",
"O  c #151424",
"+  c #1B1625",
"@  c #1D1827",
"#  c #1C1C2C",
"$  c #1C1E31",
"%  c #221D2B",
"&  c #2E1D2D",
"*  c #381B2A",
"=  c #221F31",
"-  c #1E2235",
";  c #25212E",
":  c #29232E",
">  c #242433",
",  c #2B2532",
"<  c #2D2935",
"1  c #272738",
"2  c #24263A",
"3  c #252A3B",
"4  c #2B2B3D",
"5  c #392537",
"6  c #322B36",
"7  c #332D39",
"8  c #36313C",
"9  c #3A333D",
"0  c #3F383F",
"q  c #4A1B28",
"w  c #6A2329",
"e  c #7A2A2D",
"r  c #762C37",
"t  c #732F39",
"y  c #2B2C41",
"u  c #362E44",
"i  c #2D3447",
"p  c #3C3642",
"a  c #393747",
"s  c #353E52",
"d  c #3D3C52",
"f  c #502D40",
"g  c #433C44",
"h  c #463F4A",
"j  c #6E3945",
"k  c #3A455A",
"l  c #3E4B63",
"z  c #45414C",
"x  c #494248",
"c  c #4C444B",
"v  c #50474D",
"b  c #52494E",
"n  c #4B4553",
"m  c #494756",
"M  c #544C52",
"N  c #554B55",
"B  c #5B5255",
"V  c #55525C",
"C  c #5B5558",
"Z  c #5D555B",
"A  c #7A4C58",
"S  c #61575A",
"D  c #645B5C",
"F  c #46526A",
"G  c #595763",
"H  c #5D5A63",
"J  c #565B72",
"K  c #645D63",
"L  c #675D69",
"P  c #765668",
"I  c #58657B",
"U  c #6A6263",
"Y  c #686368",
"T  c #6B656C",
"R  c #73696C",
"E  c #686777",
"W  c #736D74",
"Q  c #7E6C7E",
"!  c #6D707E",
"~  c #7A767A",
"^  c #862B28",
"/  c #923534",
"(  c #A8342D",
")  c #B23C30",
"_  c #B84936",
"`  c #CF4D2F",
"'  c #DC4826",
"]  c #C84835",
"[  c #D9573A",
"{  c #E34921",
"}  c #D3633E",
"|  c #EF7426",
" . c #B85952",
".. c #837875",
"X. c #827B7C",
"o. c #AE6E74",
"O. c #C85C46",
"+. c #F28F2C",
"@. c #FAAE33",
"#. c #FED339",
"$. c #A08545",
"%. c #AA9F67",
"&. c #EAA661",
"*. c #FBD045",
"=. c #FEEB57",
"-. c #FFF154",
";. c #FFFD79",
":. c #666C83",
">. c #767485",
",. c #757E96",
"<. c #827D87",
"1. c #897F90",
"2. c #6C839A",
"3. c #7D869B",
"4. c #7C869C",
"5. c #7B94AB",
"6. c #8A8384",
"7. c #85838A",
"8. c #89868A",
"9. c #948D8B",
"0. c #988D89",
"q. c #878898",
"w. c #918F92",
"e. c #939295",
"r. c #9D9693",
"t. c #989699",
"y. c #A78E9C",
"u. c #A39A9B",
"i. c #A8A39D",
"p. c #8E96AA",
"a. c #989AA5",
"s. c #949CAD",
"d. c #879DB4",
"f. c #979FB0",
"g. c #9CA2AF",
"h. c #8BA2BA",
"j. c #97A2B4",
"k. c #9CA4B2",
"l. c #A2A1A4",
"z. c #AAA7A6",
"x. c #ACABAC",
"c. c #B3ADA9",
"v. c #B8B4AD",
"b. c #A3AAB6",
"n. c #A5A8B5",
"m. c #A5ADB9",
"M. c #ACB0B7",
"N. c #ABB2BA",
"B. c #B3B3B3",
"V. c #B6B8BB",
"C. c #BCBDBC",
"Z. c #D7AA98",
"A. c #EDB98E",
"S. c #D6B0A4",
"D. c #BEC1BE",
"F. c #C4C5BE",
"G. c #F2CBBA",
"H. c #9BB6CE",
"J. c #9CBCD6",
"K. c #A5B3C5",
"L. c #ACB6C5",
"P. c #A3B5CB",
"I. c #A9B7CA",
"U. c #AEBACA",
"Y. c #B5BBC3",
"T. c #B9BDC2",
"R. c #B2BDCB",
"E. c #A1BCD5",
"W. c #C5BBC6",
"Q. c #BEC2C3",
"!. c #B5C1CD",
"~. c #BBC3CD",
"^. c #A1C2DA",
"/. c #BBC5D1",
"(. c #C4C6C1",
"). c #C4C7C6",
"_. c #C7C8C2",
"`. c #CACCC5",
"'. c #C5C9CC",
"]. c #CCCEC9",
"[. c #D9CBC8",
"{. c #CED0CA",
"}. c #D2D3CC",
"|. c #C4CBD2",
" X c #C8CDD3",
".X c #CAD1D6",
"XX c #CED5D9",
"oX c #D3D5D2",
"OX c #D6D9D2",
"+X c #DADCD5",
"@X c #D1D6D9",
"#X c #D4DADC",
"$X c #DBDEDB",
"%X c #FDD7C9",
"&X c #DEE0D7",
"*X c #DEE1DA",
"=X c #E2E4DC",
"-X c #E5E7DC",
";X c #E6E7DD",
":X c #E7E8DE",
">X c #E8E9DF",
",X c #F9E5DB",
"<X c #D9DFE1",
"1X c #DCE3E1",
"2X c #E2E6E2",
"3X c #E5EBE4",
"4X c #E9EAE1",
"5X c #EAECE5",
"6X c #EAECE8",
"7X c #F1EDE5",
"8X c #EBF0E7",
"9X c #EDF3EA",
"0X c #F3F5EC",
"qX c #FBF2E8",
"wX c #F5F9EE",
"eX c #F9FAEF",
"rX c #F5F7F3",
"tX c #FCFDF3",
"yX c #FEFFFB",
/* pixels */
"}.}.{.].].].`.`.=X-X-X-X-X-X>X>X>X4X5X+Xx.8.W Z b b V R 8.x.(.-X5X>X:X:X:X-X-X-X-X-X-X{._.F._.`.`.`.",
"}.}.].].].].].].=X-X-X-X-X-X:X>X4X+Xz.Y M K X.9.r.r.0...D v Z u.$X5X4X:X:X-X-X-X-X-X-X{._._._.`.`.`.",
"}.{.{.].].].].].=X-X-X-X-X-X4X+Xr.Z T u.v.v.i.r.9.9.0.u.v.v.r.D B u.=X4X:X-X-X-X-X-X-X{._.F.F._.`.`.",
"}.{.{.{.{.].].{.=X-X-X-X-X>XF.Y T c.z.X.D M v B M N M v M D %.c.i.D Y ).4X:X:X:X-X-X-X{.(.F.F._.`.].",
"}.}.{.{.].].].{.=X-X-X:X:Xz.B 9.i.Y c x c v K 0.X.X.6.D M M c c R z.6.M x.4X>X>X:X:X-X{.(.F._.`.].].",
"}.}.].].`.].{.}.-X>X>X>Xt.Z r.~ x h c v M B U 0.~ X.8.K C B M M x c 6.r.M z.4X4X4X4X4X{._._.`.].].].",
"{.].`.`.`.`.{.}.-X4X5Xl.K r.Z 0 h x v M B S D U K U Y K D S B M c x g Y r.N c.5X4X4X4X{.F.F._.`.`._.",
"`._._._.`.`.].}.+X&XB.Z 9.M p h x c b B Z D K U U U U U K D Z B v c h 0 Z 6.b B.OXOX+X}.`.`.`.].`._.",
"_._._.`.`.].{.}.*X].H 6.N 9 g x c v M B S D U U U U U U U D S B M v x g 9 Z W H `.OXOXOX}.].].].].`.",
"F._._.`.`.].{.}.-X8.T U 9 p h x v M B C S D D U U U U U D D S B M v c h g 9 Y V 8.+X+X+X}.].`.`.`.F.",
"F.F._.`.`.].{.OX_.Z ~ 9 9 g h c v M B B S S S D D D D D D S S B M v c h g 9 9 T M `.*X+X}.].`.`.F.F.",
"_.F._.`.`.`.{.}.~ R b 8 p g M K T K B B B B B C Z C C C S C B S T W Y v g 9 7 c M 7.-X+X}.].`._.F.F.",
"`.`.`.`.].{.}.V.V T 7 8 g ~ ).4X8X=XB.T M M M M M M B B B B W C.4X0X5X`.~ g 9 7 V b oX+X}.{.`.`._.F.",
"`.`.`.`.].{.}.<.H z 7 p t.0XyXyXyXyXyX+XR v c c c c v v b ~ <XyXyXyXyXyX0X9.p 6 z h t.*X}.{.`.`.`._.",
"F.`.`.`.].{._.V H 7 7 7.rXyXyXyXyXyXyXyX].Z x x z x x x D oXyXyXyXyXyXyXyX0XW 7 8 c K OX}.}.].].`.`.",
"F.`.`.].].{.z.c b < M $XyXyXyXyXyXyXyXyXtXw.g g p p g g l.yXyXyXyXyXyXyXyXyX}.z < h g V.}.}.{.{.{.].",
"F.`.`.].].}.7.c 9 < e.yXyXyX=Xz.l.$XyXyXyX}.c 9 9 9 9 M 1XyXyXyXoXl.x.2XyXtXtX<., 9 8 e.}.{.{.].].`.",
"F.`.`.].].].Y x < p {.tXyXV.u a L n V.yXyX0XY 7 7 7 7 ! rXyXyXx.G L , a ).yXyXS.8 < 6 W }.].`.`.`._.",
"`.`.`.].{._.M g : H 9XtXoX4 =  XyXx.a $XyXyX7.6 6 < < a.yXyX`.z '.yXz.X a $XyX-Xc , , M ].].`._._._.",
"`.`.].].}.V.g 9 ; 7.tXtX~   p 6XyX$X% w.yXyXl.6 6 < 6 M.yXyXW z rXyXoX@   8.tXwXR ; , p F.{.)._._._.",
"}.}.}.}.}.x.7 6 , l.tX7Xz   O e.$X7.. K yXyXx.6 6 6 8 Q.yX0Xz + l.$XW .   V wXtX8.; ; , B.}.`._._.`.",
"+XOX}.}.}.l., , < B.tX4Xp     X ; X   G yXtXZ.$.%.%.$.S.yX0Xd   O % .     z 9XeXt.: ; % z.oX{.].].].",
"&X+X+XOXOX6.% , 7 C.tX5Xn O       . o >.tXA.*.-.;.A.=.*.A.0XG .       . O H wXeXx., > % w.+X}.}.}.}.",
"=X&X&X+Xe.9 % ; 7 (.wXtX7.$ # O O # 1 T.G.@.#.-.;.;.=.*.+.G.l.# # O O - $ e.tXwXB., > @ 9 l.+XOX}.}.",
"=X=X+X6.K Y % ; 7 (.wXtX}.n $ 1 - $ >.rX&.+.#.#.=.=.*.@.+.Z.0XT - 1 1 - K &XeXwXB., ; % L B t.$XOX}.",
"=X=X8.S 6.9 @ ; 7 T.0X,X%XC.E n V 8.4XyXo.' | +.@.@.+.| ` Z.yX4X7.m m 7.[.%X,X0Xx., ; @ p X.N z.+X}.",
"-Xl.B ..g ; @ ; < V.5X%X%X,X3X$X2X0XyXyXS.] [ ' { { { ' _ [.yXtXwX=X*X9X%X%X,X9Xl., ; @ ; h W N C.+X",
"(.N R g 7 ; + ; , x.3X,X,XqXtXtXtXtXtXyX4X .[ } [ [ [ [ o.0XyXtXtXtXtXtXqX,X7X4Xt.; ; + : 7 h K T }.",
"W S c 6 6 % + ; > t.2X4X0XwXeXtXtXtXtXtXtXW.o. .O.O. .o.'.tXtXtXtXtXtXeXwX9X4X4X<.% % + ; 6 6 c n w.",
"p M < , , % + ; ; 7.$X2X5X9X0XeXeXtXtXtXtX6XR.n.y.y.n./.6XyXtXtXtXeXeXwX9X5X2X$XE % % + % , < 7 h n ",
"6 8 , ; ; @ + > % W @X$X2X5X9X0XeXeXtXtXtXtX<X!.R.R.!.1XtXtXtXtXeXeX0X9X5X3X*X@XV % > O @ ; , , 8 , ",
"% 4 > ; ; % + 1 > V '.#X1X2X5X9X0XwXeXtXtXtXtX2XXXXX3XtXtXtXtXeXeX0X9X5X3X2X#X).z % 1 + - > > 1 4 % ",
"c = 1 1 1 1 O 1 > a Y.XX#X1X3X5X9X0X0XeXeXtXtXtXeXeXtXeXeXeXeX0X0X9X8X3X2X$X@XN.u 1 1 O 1 3 3 3 > T ",
"].W 9 , , p p 1 y 4 g..X@X$X1X3X3X8X9X9X0XwXwXeXwXwXeXwXwX0X9X9X9X8X3X2X*X@X.Xp.1 4 1 p 8 , < a 7.+X",
":X-X}.F.C.`.a.1 i 1 7.|. X@X#X1X3X3X8X8X9X9X0X9X9X9X9X9X9X9X8X8X3X3X1X*X#X.X'.! > i 1 x.{.(._.OX4X:X",
"-X-X-X-X*X.XM.a i i J ~.'..XXX#X1X2X3X3X8X8X8X9X8X8X8X8X8X3X3X3X2X1X$X#X.X|.Y.m 3 i a T.oX$X-X-X-X-X",
"-X-X-X$X'.N.k.J 4 s k b.~.|..XXX#X$X1X3X3X3X6X8X8X6X6X3X3X3X1X1X$X#X#X.X|.~.a.i i 1 E k.b.N.].*X-X-X",
":X4XOXV.m.b.k.q.u s i >.R.~.|. X.X@X#X$X1X1X3X3X3X3X3X3X1X1X#X#X#XXX.X|.~.Y.E y i u p.k.k.b.N.Q.$X4X",
":XoXN.b.b.b.k.s.E y k m k.R.~.|.|..XXXXX#X#X<X1X1X1X1X<X#X#XXXXX.X.X|.~.Y.s.k s 1 E k.k.k.b.m.N.T.$X",
"=XV.b.b.b.b.k.s.p.d s k :.I.U.R.~.|. X.XXXXX@X#X#X#X#X#XXX.X.X X|.~.!.U.K.I s i d s.k.k.k.b.b.N.N.).",
"+XN.b.b.b.b.k.f.f.,.y k l 4.I.L.R.~./.|. X X.X.X.X.X.X.X X|.|.~.~.R.L.K.3.k k y 3.k.k.k.k.b.b.m.N.V.",
"*XV.m.b.b.k.k.k.k.j.:.4 k F d.I.I.U.R.!.~././.|.|.|.|././.~.!.R.L.K.K.s.F l 4 :.f.k.k.b.b.b.b.m.N.Y.",
"-X{.N.m.b.b.k.k.k.k.s.I 4 k J h.P.I.I.U.U.U.R.!.!.!.!.R.R.U.L.K.K.P.j.I k 4 J p.s.k.k.b.b.b.N.N.T.{.",
"-X*X}.).T.N.N.N.k.j.s.p.f & s I h.E.P.I.K.K.K.I.I.I.I.I.I.K.K.P.P.h.I s & f q.p.s.k.b.N.Q.).].}.OX*X",
"-X-X=X&X+XoX{.].N.f.s.q.r ^ q 4 F 5.J.E.H.P.P.P.P.P.P.P.P.P.E.H.5.F y q ^ e >.s.g.b.V.oX$X*X*X=X=X=X",
"-X-X-X=X*X*X*X$XT.k.s.q./ ] ( w * 4 I d.J.J.^.J.E.E.J.^.^.J.h.I 7 * w ( ] / >.s.k.N.(.$X-X=X=X=X=X=X",
"*X=X-X-X=X*X-X*X).N.k.q./ [ ) ) ( e q 5 d I 2.5.5.5.5.2.I h 5 q ^ ( ) ( [ / >.s.b.C.).*X-X=X*X*X=X*X",
"+X+X$X+X$X+X$X$X].).N.k.A ^ e [ ] ) ( / w 5 a a a a d m u w ( ( ) ] [ ^ ^ j q.g.V.).].$X=X*X$X$X$X+X",
"D.D.Q.D.D.(.(.).*X2X$XY.k.1.P _ } ^ _ _ w E ,.,.,.,.,.4.>.t _ _ ^ } } A Q t.N.'.+X*X*X`.(.Q.(.(.(.(.",
"D.D.D.D.D.D.Q.(.=X4X4X.XL.m.a.j e j e w L 4.4.4.4.4.4.4.3.E r ^ j t t 1.b.N.Q.OX-X-X-X'.C.C.C.D.D.C."
};
