/* XPM */
static char *_b741d33cdbd4a128e241a0a862675dbTGPJulRqh3NZefWW[] = {
/* columns rows colors chars-per-pixel */
"67 76 17 1 ",
"  c None",
". c black",
"X c #16171B",
"o c #1B192B",
"O c #1C2222",
"+ c #22282A",
"@ c #29253A",
"# c #2A3034",
"$ c #343043",
"% c #484152",
"& c #46425D",
"* c #726B7E",
"= c #586B90",
"- c #748DA4",
"; c #B4AFAF",
": c #A9C9CA",
"> c #C8E8E8",
/* pixels */
"                                                                   ",
"                                                                   ",
"                                                                   ",
"                                                                   ",
"                                                                   ",
"                                                                   ",
"                                                                   ",
"                                                                   ",
"                                                                   ",
"                                                                   ",
"                                                                   ",
"                                                                   ",
"                                                                   ",
"                                                                   ",
"                           ..........                              ",
"                         ..o@@$$$$@@@..                            ",
"                        .o@$%%%$$$$@@oo.                           ",
"                       .o@%*%%$$%$$$@@oo.                          ",
"                       .@$%*%%$%$$$$@@@o.                          ",
"                      .o$%%**$$%$$$$@@@oo.                         ",
"                      .o$%***$$%$$$$@@@oo.                         ",
"                      .o$%**%$%$$$$$@@@oo.                         ",
"                      .o@$%*%$$$$$$@@@ooo.                         ",
"                      .o@@@%$$$$$@@@@oooo.                         ",
"                     .@o@..............oo@.                        ",
"                   : .$..o%%******%%%%o..$. :                      ",
"                   :--.$@$$$$%*$$$$$$@$@$.--:                      ",
"                    ::-o@$$$$%*$$$$$$@$@o-::                       ",
"                     ::-&$%%****%%%%%%$&-::                        ",
"                      :-==o..........o==-:                         ",
"                       ==&$o........o$&==                          ",
"                     ....o$%%*%%%%%%%@o....                        ",
"                    .OOO..o@$%%$$$$$@o..OOO.                       ",
"                   .O+++O..oo@@@@@@oo..O+++O.                      ",
"                   .O++#+O...oooooo...O+#++O.                      ",
"                  .O++###+OO........OO+###++O.                     ",
"                  .O+++####+.------.+####+++O.                     ",
"                 .O+++++###+.::::::.+###+++++O.                    ",
"                 .O+++++##+.::::::::.+##+++++O.                    ",
"                .OO++++++++.::::::::.++++++++OO.                   ",
"                ...O++++++.>::::::::>.++++++O...                   ",
"                 X>....+++.:>>::::>>:.+++....>X                    ",
"                 X>>-X ...==-::::::-==... X->>X                    ",
"                 X::=XX X---::>>>>::---& XX=::X                    ",
"                 X-::-XX&---:>>::>>:---&XX-::-X                    ",
"                 X->:::X&----::::::----&X:::>-X                    ",
"                 X=::&:X--=---::::---=--X:&::=X                    ",
"                 X&::&&X--==--------==--X&&::&X                    ",
"                  X=:--X::-=&=----=&=-::X--:=X                     ",
"                   XXXX=:::--&XXXX&--:::=XXXX                      ",
"                      X=::--&X;;;;X&--::=X                         ",
"                      X=::-=X;;;;;;X=-::=X                         ",
"                    ;;X=---&X;;;;;;X&---=X;;                       ",
"                   ;;;X&=--X;;;;;;;;X--=&X;;;                      ",
"                  ;;;;X&--=X;;;;;;;;X=--&X;;;;                     ",
"                 ;;;;X=----&X;;;;;;X&----=X;;;;                    ",
"                 ;;;;X-:::-=X;;;;;;X=-:::-X;;;;                    ",
"                 ;;;X=:::::-X;;;;;;X-:::::=X;;;                    ",
"                  ;;X::::::-X;;;;;;X-::::::X;;                     ",
"                   ;X-:>=>>X;;;;;;;;X>>=>:-X;                      ",
"                    ;XXXXXX;;;;;;;;;;XXXXXX;                       ",
"                      ;;;;;;;;;;;;;;;;;;;;                         ",
"                          ;;;;;;;;;;;;                             ",
"                                                                   ",
"                                                                   ",
"                                                                   ",
"                                                                   ",
"                                                                   ",
"                                                                   ",
"                                                                   ",
"                                                                   ",
"                                                                   ",
"                                                                   ",
"                                                                   ",
"                                                                   ",
"                                                                   "
};
