/* XPM */
static char *dc215b0a3f6a4b7fd999f195b995fd310E5TaNCSJFH47KVn[] = {
/* columns rows colors chars-per-pixel */
"50 50 188 2 ",
"   c #5CE1E6",
".  c #000000",
"X  c #FF0000",
"o  c #15151A",
"O  c #18171D",
"+  c #1A191E",
"@  c #0C0D13",
"#  c #1D1C22",
"$  c #1E2731",
"%  c #212026",
"&  c #25252A",
"*  c #29292F",
"=  c #2C2D33",
"-  c #242D37",
";  c #302F36",
":  c #2F3137",
">  c #313136",
",  c #34343B",
"<  c #38393E",
"1  c #392924",
"2  c #7D311C",
"3  c #732C18",
"4  c #4F3A32",
"5  c #673D2A",
"6  c #764931",
"7  c #3B3C43",
"8  c #3E3F48",
"9  c #423E40",
"0  c #3F4149",
"q  c #414146",
"w  c #44444C",
"e  c #47484F",
"r  c #49494D",
"t  c #464751",
"y  c #464952",
"u  c #4B4C53",
"i  c #4F4F59",
"p  c #504F57",
"a  c #4F515A",
"s  c #4F5057",
"d  c #515256",
"f  c #53545B",
"g  c #5A5A5D",
"h  c #6E5447",
"j  c #565761",
"k  c #565962",
"l  c #5A5B64",
"z  c #5D5F69",
"x  c #575F68",
"c  c #5D626B",
"v  c #57616A",
"b  c #5B6670",
"n  c #63656D",
"m  c #656568",
"M  c #676972",
"N  c #6A6B72",
"B  c #6C6E79",
"V  c #666670",
"C  c #6D727B",
"Z  c #73747C",
"A  c #7B7C7E",
"S  c #757577",
"D  c #82371F",
"F  c #8A3B27",
"G  c #9B4438",
"H  c #89573C",
"J  c #975937",
"K  c #BB5F2E",
"L  c #BF612D",
"P  c #A1613C",
"I  c #B76437",
"U  c #C46B38",
"Y  c #CC6933",
"T  c #CD763E",
"R  c #DE7539",
"E  c #D37639",
"W  c #E17C3A",
"Q  c #B26F45",
"!  c #A97A5A",
"~  c #B67654",
"^  c #A46C4C",
"/  c #9D7964",
"(  c #C36F4A",
")  c #C6774A",
"_  c #D97E49",
"`  c #EB853F",
"'  c #AE845D",
"]  c #BF8461",
"[  c #BE9369",
"{  c #DA8D5C",
"}  c #D78654",
"|  c #C98559",
" . c #E98A4D",
".. c #E38E58",
"X. c #E99259",
"o. c #F09A5E",
"O. c #F9A95E",
"+. c #CA8D68",
"@. c #CD936F",
"#. c #C2977E",
"$. c #EA9A65",
"%. c #E69A65",
"&. c #F19F68",
"*. c #EEA16C",
"=. c #F3A36B",
"-. c #FEB66A",
";. c #EAAA77",
":. c #F5AB75",
">. c #F4B17D",
",. c #FAB17C",
"<. c #FFC479",
"1. c #7B7C83",
"2. c #7D7F8A",
"3. c #777982",
"4. c #6C7B87",
"5. c #7F8287",
"6. c #78818B",
"7. c #838385",
"8. c #83858C",
"9. c #85898D",
"0. c #8D8D8E",
"q. c #868A92",
"w. c #8C8D92",
"e. c #8D8F99",
"r. c #858792",
"t. c #8E929B",
"y. c #8F9197",
"u. c #959495",
"i. c #92959C",
"p. c #9C9C9C",
"a. c #989897",
"s. c #948C89",
"d. c #9A9DA3",
"f. c #9499A2",
"g. c #9EA1AA",
"h. c #9FA0A3",
"j. c #ACACAB",
"k. c #A7A8A8",
"l. c #B2AEAC",
"z. c #B1B0AE",
"x. c #ACADB4",
"c. c #A4ABB3",
"v. c #ABB1B5",
"b. c #B4B3B3",
"n. c #B9B9B7",
"m. c #B3B5BC",
"M. c #BDBDBC",
"N. c #C0AA9B",
"B. c #F3B684",
"V. c #D0BEAF",
"C. c #C0BFBD",
"Z. c #C1C1BF",
"A. c #D6C6B8",
"S. c #E0CBBB",
"D. c #BABCC3",
"F. c #BEC2C5",
"G. c #C4C4C3",
"H. c #C8C7C5",
"J. c #CAC9C7",
"K. c #C2C5CA",
"L. c #C6C9CB",
"P. c #CDCCCB",
"I. c #C8C7C8",
"U. c #D2D1CF",
"Y. c #DAD3CC",
"T. c #CCCDD0",
"R. c #CDD1D3",
"E. c #D4D4D2",
"W. c #DAD9D6",
"Q. c #DDDDDB",
"!. c #D6D9DB",
"~. c #D1CCC8",
"^. c #E0DDD9",
"/. c #E5D4C7",
"(. c #E2E1DF",
"). c #DFE2E3",
"_. c #E4E4E2",
"`. c #E8E7E5",
"'. c #EAE9E6",
"]. c #E7E7E8",
"[. c #ECECEB",
"{. c #F0EFEC",
"}. c #F0F0EE",
"|. c #EFEFF0",
" X c #F4F4F3",
".X c #F9F8F7",
"XX c #FDFDFD",
"oX c #F8F7F8",
/* pixels */"                                                                                                    ",
"                                                                                                    ",
"                                                                                                    ",
"                                                  >                                                 ",
"                                              l u 8 , = &                                           ",
"                                        t.f.t.2.M j t 8 , * #                                       ",
"                                      g.D.m.g.r.C c a w 7 , = %                                     ",
"                                    d.D.K.x.f.5.B c f t 8 , = * #                                   ",
"                                  q.g.c.d.e.2.C n l a t 8 , = = & #                                 ",
"                                Z 8.e.x.m.i.B n l f y 0 c w.9.f = % +                               ",
"                                B 1.T.XXXX Xd.j a t 0 Z ].XXXX].7.& #                               ",
"                              n z m.XXoX]. X].n 0 8 w P.[.Q.[.XX|.m # o                             ",
"                              l M [.oXR.L.P.[.5.: = f _.L.F.L.[.XXm.& o                             ",
"                              u 5.oX).v.i.f.).9.# # d !.c.q.t.E.XXQ., o                             ",
"                            s 0 0.oXR.c ; v R.N + # < K.c & v K.oX_.7 o X                           ",
"                            y 8 Z  X!.b $ 4.v.h ' [ 6 u.C - 6.L..XM.= O o                           ",
"                            e g x.oX Xv.6.i./ E -.<.` ^ s.9.c.Q.oX_.A # o                           ",
"                            u h.XXXX[.E.l.~ K W O.-.` L I N.P.`.oXXX_.e X                           ",
"                            w m.oXoXoX_.P.#.D 2 U T F 3 +.^.].oXXX XQ.g .                           ",
"                              7._.}. X[.Q.Y.] F G G F ~ /.[.oXoX X(.M.<                             ",
"                              , u.E._.`._.Q.A.@.) ( +.S.].[.}.].Q.Z.m                               ",
"                          n u , * m p.Z.P.E.E.~.V.A.Y.(.^.Q.E.M.0.e & 7                             ",
"                        1.n p 7 , = * q 7.k.j.b.n.M.M.n.b.0.u > % # # = y                           ",
"                      e.1.M i , 7 w u p.I.H.G.G.G.G.G.G.G.M.1., = & # # , f                         ",
"                    i.q.2.V w , y j j.|.oXoXoXoXoXoXoXoX X].W.1.> * % O & q m                       ",
"                  i.t.q.Z k 7 0 z y.[.oXXXXXXXXXXXXXXXXXoX[._.P.g = & + + ; f Z                     ",
"                  t.8.3.n t , l 3.E.oXXXXXXXXXXXXXXXXXXXoX X`.Q.d., & # o & 8 n                     ",
"                q.1.Z n i 7 0 Z d.[.oXXXXXXXXXXXXXXXXXXXoX X`.Q.J.d & % o + > g Z                   ",
"                1.M n f 8 = g 3.D. XoXXXXXXXXXXXXXXXXXXXoX[.`.Q.E.A & % O o & w N                   ",
"              A n j u 8 , = n 3.W. XoXXXXXXXXXXXXXXXXXXXoX[._.W.E.p.= % + X # , k C                 ",
"              B a w 7 , & , n 8.`. XoXXXXXXXXXXXXXXXXXoX X'.(.W.U.j., % + X + * y M                 ",
"              k 8 , = & # u l w.]. XoXXXXXXXXXXXXXXXoX X[._.Q.E.P.b.7 # + X o % 7 k                 ",
"            g w , = & #   u f u.[.}.oXoXXXXXXXXXoX.X X{._.Q.W.U.J.b.7 # + X X # = u                 ",
"            e , = &       e w w.'.[.}. XoXoXoXoX X X{.`.Q.W.E.P.G.j.< # O o X # * q                 ",
"            8 = &         w 8 1._.`.].[.}. X X}.{.[.`.Q.W.E.P.H.Z.p.= # O o   + & ,                 ",
"              &           7 7 l E._._.`.].[.[.'.'._.Q.E.U.P.H.Z.n.7.& # o       % =                 ",
"                            , 7 l.Q.Q.(._._._.(.(.W.E.P.J.G.Z.M.j.g # + o         &                 ",
"                            * = m P.W.E.W.Q.W.W.E.P.J.G.M.M.n.b.0.= + o X                           ",
"                              & = 7.H.J.G.J.J.J.H.G.Z.n.b.z.k.p.e + o X                             ",
"                                # & S z.C.C.M.M.M.n.m.z.j.k.a.d + o X                               ",
"                                  1 + 9 S p.j.j.j.j.j.k.a.S , o X @                                 ",
"                              >.*.{ Q P J H h g 1.w.N r 4 4 5 6 H !                                 ",
"                          ;.>.>.:.=.o. . .R L         ! | } X.$.$.,.>.                              ",
"                          { %.$.X.;.X...X.R Y         B.:.&.&.=.$.=.:.;.                            ",
"                              ( ) %._ ) } U I         ;.$.$...$.%.{ $.%.                            ",
"                                                                                                    ",
"                                                                                                    ",
"                                                                                                    ",
"                                                                                                    ",
"                                                                                                    "
};
