/* XPM */
static char *_ac23960839a4d5cda17f524469176f47nl2FxWXkAHtG1tI[] = {
/* columns rows colors chars-per-pixel */
"50 50 219 2 ",
"   c #494949",
".  c #484848",
"X  c #464646",
"o  c #444444",
"O  c gray29",
"+  c gray30",
"@  c #4C4C4C",
"#  c #4B4B4B",
"$  c #4E4E4E",
"%  c gray31",
"&  c #494849",
"*  c gray28",
"=  c #505050",
"-  c #434343",
";  c gray27",
":  c #494948",
">  c #515150",
",  c gray26",
"<  c #4B4A4B",
"1  c #414141",
"2  c #49494A",
"3  c #4E4D4E",
"4  c #4C4B4B",
"5  c #515151",
"6  c #535353",
"7  c #545354",
"8  c #525251",
"9  c #4F4F50",
"0  c #4E4F4E",
"q  c gray33",
"w  c gray32",
"e  c #565656",
"r  c #585858",
"t  c #555555",
"y  c gray34",
"u  c gray37",
"i  c #5F5F60",
"p  c #626262",
"a  c #606060",
"s  c gray38",
"d  c gray39",
"f  c #5D5D5D",
"g  c #5F5F5F",
"h  c #5B5C5B",
"j  c gray36",
"k  c #5B5B5B",
"l  c #5E5E5D",
"z  c gray35",
"x  c #6C6C6C",
"c  c #6D6D6D",
"v  c gray43",
"b  c #6F6F6F",
"n  c #717171",
"m  c #6A6A6A",
"M  c DimGray",
"N  c gray42",
"B  c #686868",
"V  c #6A6B6A",
"C  c gray48",
"Z  c #7B7B7B",
"A  c #7C7C7C",
"S  c #797979",
"D  c #777777",
"F  c gray47",
"G  c #787879",
"H  c gray46",
"J  c #767676",
"K  c #8B8B8B",
"L  c gray56",
"P  c #909090",
"I  c #8D8D8D",
"U  c #8E8E8E",
"Y  c #898989",
"T  c gray53",
"R  c #888888",
"E  c #8A898A",
"W  c gray54",
"Q  c #868686",
"!  c #A0A0A0",
"~  c #A5A5A5",
"^  c #A9A9A9",
"/  c gray65",
"(  c #A2A2A2",
")  c #9B9B9B",
"_  c #989898",
"`  c #979797",
"'  c #979897",
"]  c #9A9A9A",
"[  c gray60",
"{  c #959595",
"}  c #979696",
"|  c #989897",
" . c #9A9A9B",
".. c #AAAAAA",
"X. c #A7A7A7",
"o. c #A4A4A3",
"O. c #979798",
"+. c #9C9D9C",
"@. c gray61",
"#. c gray57",
"$. c #878788",
"%. c #878786",
"&. c #848484",
"*. c #898888",
"=. c #747474",
"-. c #747473",
";. c #727272",
":. c #737272",
">. c #757474",
",. c #676767",
"<. c #686869",
"1. c gray40",
"2. c #646464",
"3. c #656565",
"4. c #626161",
"5. c #5B5A5A",
"6. c #5A5A59",
"7. c #5A5A5A",
"8. c #5B5B5C",
"9. c #5C5D5C",
"0. c #525151",
"q. c #515251",
"w. c #4C4D4D",
"e. c #4C4C4D",
"r. c #464645",
"t. c #474847",
"y. c #464747",
"u. c #484748",
"i. c #4A4A49",
"p. c #4C4C4B",
"a. c gray25",
"s. c #4D4C4D",
"d. c #464647",
"f. c #444545",
"g. c #4A4B4B",
"h. c #4B4C4C",
"j. c #474848",
"k. c #494848",
"l. c #414142",
"z. c #494A4A",
"x. c #4B4C4B",
"c. c #4A4A4B",
"v. c #4B4A4A",
"b. c #4D4D4E",
"n. c #454546",
"m. c #474746",
"M. c #464546",
"N. c #474647",
"B. c #484747",
"V. c #4A494A",
"C. c #444544",
"Z. c #3F3F3F",
"A. c #414242",
"S. c #403F40",
"D. c #404041",
"F. c #424141",
"G. c #3C3C3C",
"H. c #3A3A3A",
"J. c #3E3E3E",
"K. c gray24",
"L. c gray23",
"P. c #3F3F3E",
"I. c #393A3A",
"U. c gray21",
"Y. c #383738",
"T. c #373737",
"R. c gray22",
"E. c #353535",
"W. c #393939",
"Q. c gray20",
"!. c #2D2D2D",
"~. c gray18",
"^. c gray19",
"/. c #313131",
"(. c #2F2F2F",
"). c #323232",
"_. c #323131",
"`. c #343434",
"'. c #2A2A2A",
"]. c #282828",
"[. c gray17",
"{. c #2C2C2C",
"}. c #2B2A2A",
"|. c gray16",
" X c gray15",
".X c #272727",
"XX c #2A2929",
"oX c #252525",
"OX c gray14",
"+X c #232323",
"@X c #242524",
"#X c #222222",
"$X c gray13",
"%X c #232222",
"&X c #232324",
"*X c #242425",
"=X c #202020",
"-X c #222122",
";X c #232423",
":X c #252424",
">X c #232223",
",X c #252425",
"<X c #262726",
"1X c #272728",
"2X c #272627",
"3X c #272626",
"4X c #282829",
"5X c #2D2D2E",
"6X c #2D2C2D",
"7X c #333232",
"8X c #2E2F2F",
"9X c #414040",
"0X c #414140",
"qX c #3E3F3E",
"wX c #3F3F40",
"eX c #3E3F3F",
"rX c #444445",
"tX c #454646",
"yX c white",
/* pixels */
"  . X o O O + @   # $ % + O   &   O @ O *   @ . # O X X   O # O X # # * . $   . . @ O     .     X # ",
"= + X - # @ O # @ .   % @ ; O   *   X O X * . . . @ * . @   # # : @ $ O + >   , X $   *   . * X . O ",
"% $ O . @   * * # <   @ @ * . O # o ; ; 1 ; o X O + O + + $ O *   # $ + % @ . O . # < + O . , ; # + ",
"% % % # O + $ @   @ % $ $ O   O 2 ; O O X O   O @ = @ $ + 3 4 . O . @ # + + X @ # . X # @ O * O % 5 ",
"5 6 5 % 7 = = = + % % % 8 + + @ $ % $ 5 6 9 @ $ 0 % % = % + 5 5 $ @ @ @ @ % + O O $ @ = = 6 q = w 6 ",
"q e r r r t q q q 6 w e e q t q t q w 6 t e w 6 q q q w t t t r e 6 5 w w q w q t q 6 e y e t $ 5 6 ",
"u i p a a s d f f g h j f g g u j k j k u u j l k l k j a g u u f f f k k j f g s u z j g f a j k f ",
"x c c v b b n v x m M m m N m x m M N N N N M m B V N M M x x N M M N N m c c c c N m x x c x m x c ",
"C Z A C Z Z S D C C D S F F D D F S S Z S S S G H F C S F F S C S S F D J S S S C S D C C S D S A C ",
"K L P I U K Y T R R R E R R Y W Y Y Y W W K W Y R Q Q R T T W R T Y Y R R R Y T W W Y W T T Y Y K T ",
"! ~ ^ / ~ ( ) _ _ ` ` ` ' _ _ ] [ ] ) [ ] _ [ ] { _ } _ ] ` _ [ [ [ ] ) ] [ ] _ [ [ ` | _ ` _ [ )  .",
"/ ..^ ..X.o.) [ ] [ _ _ _ ] [ ] ] ] ) ] ) ] _ [ ` O.] ` [ [ [ [ )  .) ] +.) ] [ [ [ [ _ ] ) ) ) ] @.",
"U P U U #.L R Y R $.R R R K W R R Y R R W W R Y W T %.&.T W W R R R T R W Y W R *.Y Y K K K R W Y K ",
"=.J D F F F J F J H J H H J H =.=.J D =.F C D J =.=.-.n ;.=.J D :.=.>.H H J F F F F J H F C J H H F ",
"M ,.M c M M N N <.1.,.1.m ,.2.1.,.1.,.1.1.M ,.,.1.,.2.d p 2.M B 1.M B B B M M m m m ,.3.,.<.,.,.m B ",
"a u g 4.f j j k 5.k 6.z j 7.z 8.f k r r f k 9.u j 7.k j k r u j j g g f u j k k j 7.k k z 7.k 7.f j ",
"q 5 t e 5 w = % 0.% % % $ 5 % = 5 6 w = 5 w q 6 6 % q.% 6 w = w 6 t 6 = = 6 = 5 q w % 5 5 % 5 6 q = ",
"w.+ + O # O w.  O O O   . @ O   # + # # $ @ O O O @ @ $ % % @ $ $ $ $ # + @ e.+ $ O O O $ @ O $ 6 % ",
"* *   O * * #   * - ; X ;     * O # .   O O   @   @ # # = O   O # +   #   . @     .   *   . * X X   ",
". X ; . * ; * * ; ; o o ; * X . O X X . .     . O       + * # O # @ O . * O O # X * * ; * r.* X - X ",
". t.y.u.i.* . X * X ; , ;   O p.O X * . * * - a.; * ;     + # O   # @ O . . # # +   X * s.@ O . X O ",
"o X     O O . d.X .   X X * * O O * o - * ; , f.a.o X . - * + # O # @ @ X . O # @ g.y.  . # h.  O O ",
"* * . X #   * * *     O * X j.. X X ; , , 1 X ; ; - . X o X O   @ # . @             X o - O + +   k.",
"@ . # $ = O .   . O + * *   X *   X   o 1 l.- o ; o z.#   * O @ * o X # O O - , X - ; , X O O $ # # ",
". * @ @ @ O     @ % $ . @ O . .   * ; y.X ; . o , ; X X x.# o = . o O O + = . -   - X X X X i.$     ",
". . # @       X # @   . $       @ O .   . O   ; # . * X o O . + + * c.+ $ $ #       O @ O *   # t.X ",
"  O # # O O O . @ + O @ 5   1 * $ . .   . * X . v.= b.X - O @ O # #     % @ X O   *   X O X * j.X X ",
"O . O * * X X   # + + % # .   . # # @ O . - ; O # $ + O * #   X .       O O X *   O ; n.m.o ; ; M.. ",
"g.O O   * X X . X O   # O ; O   X o     * X . @ % $ @ @   * O     X . @ O O N.* * . o . B.* * * * O ",
".   O . X O O   * d.X *   * o o * X O O s.+ O # + @ @ O . # . . . *     *   X X * O   *   O m.X * & ",
"; o ; . * * # O * ; o ; * X * . X *   V.  X 1 - r.* . O O   ; - X X ; o . * ; * X   # m.* C.. X - * ",
", Z.1 ; o - - o ; A.S.D.1 , o . - Z., o - X 1 1 - - X * ; o - , F.1 - Z.a.1 - ; - 1 1 1 1 1 - , 1 a.",
"G.G.H.G.J.Z.K.L.G.K.L.G.P.Z.Z.a.K.J.Z.Z.1 Z.K.Z.a.1 1 a.a.1 a.P.Z.K.G.H.L.G.K.G.K.G.G.J.Z.K.G.H.G.I.",
"U.Y.T.U.U.T.R.U.E.U.E.E.T.R.R.R.T.T.W.W.W.U.R.L.W.L.H.H.R.W.R.U.E.T.R.E.T.U.U.E.E.U.T.R.W.T.T.U.U.Q.",
"!.~.^.~.^./.^.(././.(.(.^./.^.)././.Q./.^.^._.).(./.`.Q.^./.~.(.~.(.^.^./.^.(.^./.).)./././.)././.(.",
"'.].[.{.'.'.{.[.'.{.!.{.{.{.'.[.{.[.[.{.}.[.{.~.!.'.[.!.'.'.|.'.|.'.|.|.'.'.[.[.{.{.~.(.[.[.|.[.!.|.",
" X]. X.X.X.X.X|.].|.].'.].]..X.X].]..X].XX|.|.|.[.'.'.]..X.X.X X X].]..X X X].].].].|.|..X].]. X X X",
"oXOX+XoX.X XoXoXoXOXOX X X.XoX X X X.X.X.X X.X X.X.X].oXOXoX X+XoX XoXoXoXoX.X.XoX X XoX@X X.XoX X.X",
"+X#X$X#X+XOXoX#X#X%X+XOXOX X X XoXOXOX X.XoXOXOX X&XOXOXoX*XoX+XoXOX+XOX+X+XOXOX#X+XOXoX#X X].oXoXOX",
"+X$X$X=X-XOXOX+XoXOX;XOXoX:X X XoX+X>XOXoXOXOXoXOXOX+XOX XOXOX XoX+X#X+X#XoX+X#X+X+X+XOX+X+XoX,XOXoX",
"OXoX XoX+X<X X X.X.X X XoX XoXoXoXoXoXOXOX XoX.XoX.X.X.X1XoXoX2X XoXoXOX+X XOXOXoX XoX+X&X.X X.X|.|.",
" X]. X|..XOX.X].|.|..X.X|. X.X|.]. X.X.X.X.X|.|.3X4X.X|.'..X].|..X]..X X X X]. X.X.X|.]..X].|.[.[.{.",
"[.[.{.5X6X'.{.{.{.!.[.{.[.[.{.!.'.'.'.[.[.[.!.^.{.[.[.{.'.'.[.!.'.[.'.[.'.|.{.'.|.[.!.{.{.~.!.[.{.!.",
"Q./.).U.^.^.^./.7X~./.^.(._.^./.^.).^.(.(.(.~.(.(.~.(.^.^.^.^././.^.~.~.8X~.^.^.~././././.).).^.`.).",
"T.T.T.H.`.R.T.T.R.U.`.E.T.T.R.E.U.T.U.T.E.E.`./.`.U.`.Q.U.U.`.U.E.U.E.`.`.Q.E.`.U.T.E.`.E.U.U.T.T.R.",
"L.H.K.K.a.J.G.K.K.J.K.L.L.Z.J.9XG.W.G.1 Z.G.H.R.K.K.L.W.L.K.L.K.L.K.G.L.T.W.K.J.Z.J.H.H.L.L.H.R.U.H.",
"J.Z.0XK.a.; - , , o o qX1 , - ; - Z.1 1 o - a.a.Z.G.wX1 a., o 1 a.1 , - Z.J.a.1 - - a.K.G.a.eXL.J.W.",
"1 ; - 1 - * ; . . ; . ; X X X X ; , 1 a.*     * rX; o , , X X o o o X ; * o , o ; , - 1 J.Z.K.- , 1 ",
", .   * tX  O ; - ; O .   , 1 ; , - 1 ; .   O # X ; * ;   @ . * . *   # X ; . X X * ; * - Z.a., - o ",
"o X ; @   o = * o O   @ $ X - * - X ; X ;   # . X X . # O #       # $ + * @ O * * . * ; X ; o * ; , "
};
