/* XPM */
static char *_39230e027964841c62c9ed9997f4bdaXYEOjVuiMyobwbQV[] = {
/* columns rows colors chars-per-pixel */
"50 50 153 2 ",
"   c #2D2C2E",
".  c #332E2C",
"X  c #2D2E32",
"o  c #322F31",
"O  c #2E323D",
"+  c #343335",
"@  c #3A3535",
"#  c #3F3836",
"$  c #35353B",
"%  c #39363A",
"&  c #37383F",
"*  c #3C3A3D",
"=  c #413A37",
"-  c #423E3D",
";  c #46403D",
":  c #49403E",
">  c #333643",
",  c #353945",
"<  c #3C3D43",
"1  c #363B4A",
"2  c #3A3E4B",
"3  c #413F41",
"4  c #3F4047",
"5  c #3E414D",
"6  c #3E4250",
"7  c #434244",
"8  c #4B4544",
"9  c #4C4846",
"0  c #43444B",
"q  c #494649",
"w  c #46484F",
"e  c #4B4A4C",
"r  c #504745",
"t  c #504846",
"y  c #534D4D",
"u  c #584F4D",
"i  c #54504F",
"p  c #5B514F",
"a  c #424551",
"s  c #464953",
"d  c #4B4C53",
"f  c #4C4E58",
"g  c #524F51",
"h  c #4F5056",
"j  c #4E515A",
"k  c #535154",
"l  c #5B5454",
"z  c #53545B",
"x  c #5A575A",
"c  c #57585F",
"v  c #5B595D",
"b  c #615553",
"n  c #635956",
"m  c #635C5C",
"M  c #695E5D",
"N  c #6C615F",
"B  c #545660",
"V  c #575962",
"C  c #5C5C63",
"Z  c #615F63",
"A  c #5F6067",
"S  c #636165",
"D  c #6B6463",
"F  c #65646A",
"G  c #69676A",
"H  c #67686E",
"J  c #6B696D",
"K  c #716665",
"L  c #726867",
"P  c #746B6B",
"I  c #796E6C",
"U  c #7A706F",
"Y  c #6D6C71",
"T  c #726F72",
"R  c #747174",
"E  c #7B7373",
"W  c #75747A",
"Q  c #7B767A",
"!  c #7E7A7C",
"~  c #7C797D",
"^  c #7D797C",
"/  c #827776",
"(  c #817674",
")  c #837877",
"_  c #807678",
"`  c #837978",
"'  c #837979",
"]  c #837A78",
"[  c #807B7B",
"{  c #867B7A",
"}  c #817B7D",
"|  c #817C7D",
" . c #837C7D",
".. c #807C7F",
"X. c #847C7C",
"o. c #877D7C",
"O. c #847D7E",
"+. c #857E7F",
"@. c #847B7C",
"#. c #897E7E",
"$. c #8A7F7F",
"%. c #897E7E",
"&. c #7F7C80",
"*. c #7E7C81",
"=. c #827D80",
"-. c #807E82",
";. c #847E80",
":. c #847F83",
">. c #827E82",
",. c #8A7F81",
"<. c #868080",
"1. c #858083",
"2. c #868082",
"3. c #878283",
"4. c #848185",
"5. c #858286",
"6. c #878286",
"7. c #868387",
"8. c #858185",
"9. c #8B8182",
"0. c #8C8180",
"q. c #8E8282",
"w. c #8E8283",
"e. c #888384",
"r. c #8B8484",
"t. c #8B8687",
"y. c #8C8486",
"u. c #8A8385",
"i. c #878489",
"p. c #8B8588",
"a. c #8B878A",
"s. c #8B878B",
"d. c #8E8789",
"f. c #89868A",
"g. c #8C888B",
"h. c #8E898B",
"j. c #8B888C",
"k. c #8D898D",
"l. c #8E898C",
"z. c #908586",
"x. c #908787",
"c. c #928788",
"v. c #90898B",
"b. c #92898A",
"n. c #918A8C",
"m. c #908A8D",
"M. c #928A8D",
"N. c #928C8D",
"B. c #938C8F",
"V. c #918B8D",
"C. c #918D90",
"Z. c #918D91",
"A. c #959194",
/* pixels */
". . . @ @ # = - - : 8 8 8 8 t t u u u u u k l k l l l l k l l k k e e y e q q q q q q < % % * + + + ",
"@ @ = - : r t u p p l n n n M D K L L L P P R T E R E R E R R J J J G S S Z Z v x l k d e q q 7 * * ",
"@ = ; : 8 t u l b n n M M D D L I I U E E Q ! Q ] ] ]  .:.} ! R R R T J J G F S S v x x z k q q 7 7 ",
"- - 8 y u p p b n M M N D L P I U E ] ] o.o. .o.<.e.<.<.6.<.=.:.! ~ W T P J J S S S S F C x k e q q ",
"- : 8 i y t b n M N D K L I I U E ] o.w.9.r.y.r.h.h.h.d.p.p.p.h.6.&.^ W R R Y J J F F S k k y d e q ",
"8 8 * 9 3 * b M N D K L I U E ( { #.#.w.w.z.v.v.n.n.N.N.n.C.k.j.6.6.=.=.^ Q T Y J F G v 7 q * 7 k e ",
"8 t * @ % * n N D K L P I I E ( { #.,.w.z.c.z.n.N.n.n.A.A.A.k.p.e.p.p.6.^ Q W Y J J J v @ - $ 7 d e ",
"8 t 8 @ + 9 n N N K L I I E ( ) { o.o.9.y.h.v.N.n.C.n.C.A.C.C.k.k.p.i.-.~ ^ W R Y G F S 7 o $ q e e ",
"8 8 t 8 8 l n N D K K P I U E ( ( ] o.o.e.r.n.n.h.k.k.C.C.C.C.p.f.i.4.~ ~ ~ R T Y J F F C q q k e e ",
"8 t u l l n n M D D K P P P U E E ( o.9.<.9.r.n.C.k.p.h.h.C.k.i.i.=.*.Q W R T Y J J S S S v z d d e ",
"8 9 u u l n n M N D K L L P I E E _ ] o.:.<.e.d.j.h.r.r.p.p.p.:.=.=.=.W T R Y Y J F C S F C z d d e ",
"8 8 u u l l n n M M D K K P P T R W ! ] } :.e.r.e.p.p.i.p.6.-.=.-.p.&.W R Y Y J G F S C C v k d d e ",
"8 8 u i l l l n M M D D D L P P R E Q ! ! =.6.:.=.<.6.4.&.4.6.6.=.=.*.W Y Y J F G F F C C v k k d e ",
"8 t t u p l l n M D D D D D L P R E E W ! ^ ^ ^  .} *.=.6.i.=.^ *.&.*.W Y Y F J J F F S C z k z d e ",
"8 r t u u l l x n M D D D D D L P P R E Q Q ~ ^ =.^ *.=.=.*.^ Q Q W W W R Y Y J F F C C C z k d d d ",
"8 8 t y y k l l x m M S D D D G L P T R E W Q Q Q Q Q W Q Q W ~ R R W R Y Y F H S S C C v z k d e e ",
"8 8 e y y k l l l x m M S D D D D L P P R R T R E E W W R Q R R R Y Y Y Y F F S A C C C z z k d e e ",
"8 9 e y u k l l l l x m m S D D D J G J T T T R R R R R W R R W Y Y Y Y F F A C C C C C c z z d e e ",
"8 8 e y u u u k l l l x m S S S D D D J J Y T T T T Y T R W T Y Y Y Y F F F F C C C C c z k h d d e ",
"8 8 e y t y u k l l l x x m Z S S S D G G J J J J Y Y J Y Y Y J H F F F F C C C C C c z z k d d e e ",
"8 8 e e e y y y k k l x x m m m S S D G G G G G H J J J J F F F F F F F F C C C c v c z h h d d e 0 ",
"7 8 8 8 e t y y y g k l x x x m Z S G S S F F F F F F J F F F F F F F S C C C C c c z z z d d e 0 q ",
"3 7 8 q e e t y y g k k l l x v v Z S S S S S S S F F F S F F F C F C C C C C C c z z j d d d 0 0 0 ",
"- 7 8 y l q e e y y g k l l l x v v Z S S S S S S S S S S Z Z A C C C C C c C v c z j d k k e 0 0 0 ",
"- - - q 8 * 8 e e y u k l k k x v v Z Z Z S Z Z C S Z C C Z C C C C C V V c c c z z j d e e 7 0 0 5 ",
"* - % * 3 $ 7 e e e y y g k k x x v v v C v m Z C C C C C C C C C C V V B c z z j j z < 7 7 $ < 0 4 ",
"* - * o o + 7 q q e e e g k k k z x c v v v v v v C C v C C C C V c V B B z z j j d j 0 + % $ 5 0 4 ",
"* - - @ o * 8 q q 8 q e y k k k k x z c v x v v v v v v v C c V c z z z j j j j d d d d % X & 0 4 < ",
"* * 3 3 3 7 8 8 q q q e e e g k k z z z z z z z c c c c c c c c z c z z j j j f d d d d 0 < 0 0 < < ",
"* * 3 7 7 7 8 q q q e q e e g g k k k z z z z z z z z z z z c z z z z j j f f d d d d s s a 0 0 5 < ",
"* * - 3 7 7 7 q q q q q e e d g d z c k k z k k z z z z z z z z j j j f f f f d d d s a a 0 0 0 5 < ",
"* * - - 3 7 7 7 q q q q e e e d d d k g k z k k h j z z z j j j j f f j d d f d s s a a 0 0 0 5 < < ",
"% * * 3 3 3 3 7 7 q q q q e e d d d d d d d d k d d d h j f f f f d f f d d d s a a s a 0 0 5 2 < < ",
"% * 3 3 3 7 3 7 7 7 q q q e e e d d d d d d d d d d d d d d d d d d f d d s s s a 0 a a a 5 2 2 < , ",
"% % * - 3 7 7 7 3 7 q q q q e e e d e d d d d d d d d d d d d d d f d s s a s a a a a a 5 5 2 2 < , ",
"@ % * * * < - 3 7 7 7 q q q e e e e e e e d e e d d d d d s s s s s s s s a a 0 a a a 6 5 5 2 < < , ",
"+ % % % * * 3 - 3 7 7 q q 0 q q q 0 0 0 e e s d d d d s s s s a a s a a a a a a a a 5 5 5 5 2 2 < < ",
"% + % % * * 3 < 7 7 7 7 q 7 0 0 q 0 q 0 0 e w w s d d s s s s a a a a a a a 6 6 5 6 5 5 5 2 2 2 < , ",
"% % % * % * 3 7 < 7 7 7 7 4 7 7 0 0 q q q 0 s 0 a s s a a a a a a a a a a a a a a 5 5 5 5 2 2 2 , > ",
"% % % % % * * < < 7 7 7 7 7 < 7 0 0 0 q 0 0 0 a s s d a a a a a a a a a 6 6 6 a 6 5 5 5 2 2 1 1 , > ",
"% % % $ * * * * * 7 3 < < 7 7 < 7 7 0 0 0 0 0 0 a a a a 0 0 a 6 a 5 6 6 6 6 5 6 5 5 5 2 2 2 , , > > ",
"@ + $ % < * * * < < < < < < < < 7 < 4 0 0 0 0 0 a a a a a 0 5 a a 5 6 6 6 6 6 2 5 5 2 2 2 2 1 , > > ",
"+ + + $ % % * * * < < < < < < < < < < 4 0 0 0 5 0 0 0 0 0 5 a 6 5 5 6 6 6 5 5 5 5 2 2 2 2 1 , , , , ",
"+ + + q q % * % * * % < < < 3 < < < < < 5 5 5 5 0 0 5 5 5 6 5 6 6 6 6 5 5 2 2 2 2 2 1 2 1 0 5 > > > ",
"+ + * e e * * * * * < * % % < < < < < < 5 5 5 5 5 5 0 0 5 5 5 5 6 5 5 5 2 2 2 1 1 2 2 1 2 e k < > > ",
"+ + @ q 3 $ % % % % % % % % % % % < < < < < 2 2 2 2 5 5 5 5 6 5 5 2 2 2 2 2 1 1 1 1 1 1 % 9 7 % > > ",
"+ + + + % + + % $ $ $ $ & % % % & < < < < < < < < 2 2 2 2 2 2 2 2 2 2 2 1 1 1 1 1 1 1 1 $ @ * + O > ",
"o + +       $ $ $ + $ & & & & & & & > & > < < < < , , 2 , 1 1 1 1 1 2 1 1 1 1 1 1 1 1 1 , X   X > $ ",
"X X + X   + + + + + + + $ $ $ $ & & & & & & & > > > > , > > , 1 1 1 1 , , , , , 1 1 1 1 1 O X O O O ",
"  X + + + + + + + + + + + + + $ & & & & $ $ $ $ $ $ > > > > > , 1 1 , > > > > > , > > > > > > O O O "
};
